<?xml version="1.0" encoding="UTF-8" standalone="no"?>
<!-- Created with Inkscape (http://www.inkscape.org/) -->

<svg
   version="1.1"
   id="svg993"
   xml:space="preserve"
   width="720"
   height="477.33334"
   viewBox="0 0 720 477.33334"
   sodipodi:docname="JINR.Inkscape.svg"
   inkscape:version="1.1.2 (0a00cf5339, 2022-02-04)"
   xmlns:inkscape="http://www.inkscape.org/namespaces/inkscape"
   xmlns:sodipodi="http://sodipodi.sourceforge.net/DTD/sodipodi-0.dtd"
   xmlns="http://www.w3.org/2000/svg"
   xmlns:svg="http://www.w3.org/2000/svg"><defs
     id="defs997" /><sodipodi:namedview
     id="namedview995"
     pagecolor="#ffffff"
     bordercolor="#666666"
     borderopacity="1.0"
     inkscape:pageshadow="2"
     inkscape:pageopacity="0.0"
     inkscape:pagecheckerboard="0"
     showgrid="false"
     inkscape:zoom="1"
     inkscape:cx="327.5"
     inkscape:cy="239"
     inkscape:window-width="1920"
     inkscape:window-height="979"
     inkscape:window-x="0"
     inkscape:window-y="0"
     inkscape:window-maximized="1"
     inkscape:current-layer="g999" /><g
     id="g999"
     inkscape:groupmode="layer"
     inkscape:label="jinr_logo"
     transform="matrix(1.3333333,0,0,-1.3333333,0,477.33333)"><g
       id="g1001"
       style="fill:#000000;fill-opacity:1"><path
         d="m 80.102,66.613 h 4.047 v -9.91 h -4.047 z"
         style="fill:#000000;fill-opacity:1;fill-rule:evenodd;stroke:none"
         id="path1003" /><path
         d="m 87.434,67.672 h 5.199 V 57.16 h -5.199 z"
         style="fill:#000000;fill-opacity:1;fill-rule:evenodd;stroke:none"
         id="path1005" /><path
         d="m 96.473,68.73 h 6.344 V 57.617 h -6.344 z"
         style="fill:#000000;fill-opacity:1;fill-rule:evenodd;stroke:none"
         id="path1007" /><path
         d="m 107.762,69.785 h 7.5 V 58.074 h -7.5 z"
         style="fill:#000000;fill-opacity:1;fill-rule:evenodd;stroke:none"
         id="path1009" /><path
         d="m 120.203,70.848 h 8.645 V 58.532 h -8.645 z"
         style="fill:#000000;fill-opacity:1;fill-rule:evenodd;stroke:none"
         id="path1011" /><path
         d="m 134.895,71.902 h 9.797 V 58.988 h -9.797 z"
         style="fill:#000000;fill-opacity:1;fill-rule:evenodd;stroke:none"
         id="path1013" /><path
         d="m 150.738,72.961 h 10.949 v -13.52 h -10.949 z"
         style="fill:#000000;fill-opacity:1;fill-rule:evenodd;stroke:none"
         id="path1015" /><path
         d="m 168.84,74.016 h 12.094 V 59.899 H 168.84 Z"
         style="fill:#000000;fill-opacity:1;fill-rule:evenodd;stroke:none"
         id="path1017" /><path
         d="m 188.637,75.074 h 13.242 V 60.359 h -13.242 z"
         style="fill:#000000;fill-opacity:1;fill-rule:evenodd;stroke:none"
         id="path1019" /><path
         d="m 215.125,78.57 h 9.566 V 58.703 h -9.566 z"
         style="fill:#000000;fill-opacity:1;fill-rule:evenodd;stroke:none"
         id="path1021" /><path
         d="m 230.207,78.57 h 9.57 V 58.703 h -9.57 z"
         style="fill:#000000;fill-opacity:1;fill-rule:evenodd;stroke:none"
         id="path1023" /><path
         d="m 261.84,77.844 h 6.461 v -6.461 h -6.461 z"
         style="fill:#000000;fill-opacity:1;fill-rule:evenodd;stroke:none"
         id="path1025" /><path
         d="m 261.84,68.184 h 6.461 v -6.449 h -6.461 z"
         style="fill:#000000;fill-opacity:1;fill-rule:evenodd;stroke:none"
         id="path1027" /><path
         d="m 261.84,58.523 h 6.461 v -6.449 h -6.461 z"
         style="fill:#000000;fill-opacity:1;fill-rule:evenodd;stroke:none"
         id="path1029" /><path
         d="m 455.379,66.613 h 4.047 v -9.91 h -4.047 z"
         style="fill:#000000;fill-opacity:1;fill-rule:evenodd;stroke:none"
         id="path1031" /><path
         d="m 446.891,67.672 h 5.199 V 57.16 h -5.199 z"
         style="fill:#000000;fill-opacity:1;fill-rule:evenodd;stroke:none"
         id="path1033" /><path
         d="m 436.703,68.73 h 6.348 V 57.617 h -6.348 z"
         style="fill:#000000;fill-opacity:1;fill-rule:evenodd;stroke:none"
         id="path1035" /><path
         d="m 424.262,69.785 h 7.5 V 58.074 h -7.5 z"
         style="fill:#000000;fill-opacity:1;fill-rule:evenodd;stroke:none"
         id="path1037" /><path
         d="m 410.676,70.848 h 8.641 V 58.532 h -8.641 z"
         style="fill:#000000;fill-opacity:1;fill-rule:evenodd;stroke:none"
         id="path1039" /><path
         d="m 394.828,71.902 h 9.797 V 58.988 h -9.797 z"
         style="fill:#000000;fill-opacity:1;fill-rule:evenodd;stroke:none"
         id="path1041" /><path
         d="m 377.84,72.961 h 10.941 V 59.441 H 377.84 Z"
         style="fill:#000000;fill-opacity:1;fill-rule:evenodd;stroke:none"
         id="path1043" /><path
         d="m 358.59,74.016 h 12.094 V 59.899 H 358.59 Z"
         style="fill:#000000;fill-opacity:1;fill-rule:evenodd;stroke:none"
         id="path1045" /><path
         d="m 337.641,75.074 h 13.246 V 60.359 h -13.246 z"
         style="fill:#000000;fill-opacity:1;fill-rule:evenodd;stroke:none"
         id="path1047" /><path
         d="m 314.828,78.57 h 9.566 V 58.703 h -9.566 z"
         style="fill:#000000;fill-opacity:1;fill-rule:evenodd;stroke:none"
         id="path1049" /><path
         d="m 299.746,78.57 h 9.562 V 58.703 h -9.562 z"
         style="fill:#000000;fill-opacity:1;fill-rule:evenodd;stroke:none"
         id="path1051" /><path
         d="m 271.223,77.844 h 6.457 v -6.461 h -6.457 z"
         style="fill:#000000;fill-opacity:1;fill-rule:evenodd;stroke:none"
         id="path1053" /><path
         d="m 271.223,68.184 h 6.457 v -6.449 h -6.457 z"
         style="fill:#000000;fill-opacity:1;fill-rule:evenodd;stroke:none"
         id="path1055" /><path
         d="m 271.223,58.523 h 6.457 v -6.449 h -6.457 z"
         style="fill:#000000;fill-opacity:1;fill-rule:evenodd;stroke:none"
         id="path1057" /><path
         d="m 463.48,137.586 v 9.656 l -1.632,0.524 c -6.289,2.015 -16.586,5.035 -29.274,8.328 46.426,32.808 81.946,69.594 65.11,98.16 -22.606,38.359 -105.582,20.812 -178.481,-3.957 C 279.426,309.234 225.281,369.785 179.805,355.246 146.73,344.672 148.418,298.344 159.281,252.859 90.75,265.375 39.199,262.453 29.141,238.246 19.633,215.355 41.07,182.359 82.652,149.312 c -1.859,-0.558 -3.531,-1.082 -4.98,-1.546 l -1.629,-0.524 -0.004,-12.515 v -3.34 C 24.039,95.426 -16.785,54.145 8.449,23.91 45.496,-20.484 136.098,7.238 209.566,38.641 h 106.875 c 82.375,-25.844 190.973,-48.973 218.254,-1.321 14.961,26.133 -6.226,60.492 -71.215,100.266 z m -7.601,7.125 c 1.031,-0.316 2.008,-0.613 2.91,-0.899 v -7.527 c -0.934,0.301 -1.898,0.61 -2.91,0.93 z m -11.031,3.215 c 2.257,-0.633 4.375,-1.238 6.34,-1.817 v -7.441 c -1.997,0.609 -4.114,1.23 -6.34,1.879 z m -11.778,3.195 c 2.465,-0.648 4.828,-1.277 7.082,-1.898 v -7.352 c -2.261,0.633 -4.621,1.266 -7.082,1.914 z m 20.086,-23.785 V 87.254 c -1.281,0.355 -2.578,0.707 -3.875,1.058 v 33.247 c -1.859,0.546 -3.972,1.14 -6.32,1.765 v -33.39 c -2.481,0.609 -4.992,1.211 -7.547,1.785 v 33.5 c -2.211,0.527 -4.562,1.07 -7.051,1.621 V 93.242 c -2.476,0.512 -4.988,1.012 -7.539,1.496 v 33.711 c -2.488,0.512 -5.086,1.028 -7.781,1.539 V 96.133 c -2.484,0.426 -4.992,0.844 -7.547,1.238 v 34.016 c -2.742,0.484 -5.582,0.972 -8.504,1.457 V 98.625 c -2.48,0.352 -4.996,0.687 -7.539,1.012 v 34.414 c -3.008,0.461 -6.086,0.918 -9.238,1.363 v -34.68 c -2.485,0.274 -5.004,0.539 -7.543,0.793 v 34.914 c -3.254,0.426 -6.574,0.84 -9.965,1.239 v -35.219 c -2.484,0.215 -5.004,0.418 -7.543,0.613 v 35.465 c -3.5,0.379 -7.066,0.738 -10.691,1.082 v -35.793 c -2.485,0.152 -5.008,0.305 -7.543,0.445 v 36.032 c -3.75,0.32 -7.559,0.617 -11.422,0.89 v -36.351 c -2.488,0.113 -5.004,0.211 -7.543,0.304 v 36.547 c -3.992,0.25 -8.047,0.465 -12.149,0.657 v -36.813 c -2.492,0.066 -5.004,0.121 -7.543,0.176 v 36.949 c -4.246,0.16 -8.535,0.285 -12.878,0.371 v -37.129 c -2.739,0.032 -5.497,0.055 -8.29,0.067 v 37.187 c -2.437,0.024 -4.882,0.035 -7.347,0.035 -2.457,0 -4.906,-0.011 -7.34,-0.035 v -37.187 c -2.789,-0.012 -5.555,-0.035 -8.293,-0.067 v 37.129 c -4.34,-0.086 -8.633,-0.211 -12.879,-0.371 v -36.949 c -2.535,-0.055 -5.047,-0.11 -7.543,-0.176 v 36.813 c -4.101,-0.192 -8.152,-0.407 -12.148,-0.657 v -36.547 c -2.535,-0.093 -5.051,-0.191 -7.543,-0.304 v 36.351 c -3.864,-0.273 -7.672,-0.57 -11.418,-0.89 v -36.032 c -2.539,-0.14 -5.055,-0.293 -7.543,-0.445 v 35.793 c -3.629,-0.344 -7.192,-0.703 -10.696,-1.082 v -35.465 c -2.539,-0.195 -5.054,-0.398 -7.543,-0.613 v 35.219 c -3.386,-0.399 -6.71,-0.813 -9.96,-1.239 v -34.914 c -2.543,-0.254 -5.059,-0.519 -7.543,-0.793 v 34.68 c -3.157,-0.445 -6.235,-0.902 -9.239,-1.363 V 99.637 c -2.543,-0.325 -5.058,-0.66 -7.543,-1.012 v 34.219 c -2.922,-0.485 -5.757,-0.973 -8.504,-1.457 V 97.375 c -2.55,-0.398 -5.062,-0.816 -7.543,-1.242 v 33.855 c -2.695,-0.511 -5.292,-1.027 -7.781,-1.539 V 94.738 c -2.551,-0.484 -5.062,-0.984 -7.543,-1.496 v 33.598 c -2.484,-0.551 -4.84,-1.094 -7.047,-1.621 v -33.5 c -2.554,-0.574 -5.066,-1.176 -7.543,-1.785 v 33.39 c -2.351,-0.625 -4.468,-1.219 -6.324,-1.765 V 88.312 c -1.301,-0.351 -2.594,-0.703 -3.875,-1.058 v 40.082 c 36.289,11.516 103.414,26.305 183.391,26.305 79.984,0 147.109,-14.789 183.398,-26.305 z M 88.332,138.668 v 7.441 c 1.965,0.579 4.086,1.184 6.348,1.817 v -7.379 c -2.231,-0.649 -4.348,-1.27 -6.348,-1.879 z m 11.039,3.203 v 7.352 c 2.254,0.621 4.617,1.25 7.082,1.898 v -7.336 c -2.465,-0.648 -4.82,-1.281 -7.082,-1.914 z m 200.07,40.434 c -0.265,12.726 -6.293,28.25 -13.789,37.875 11.7,-8.852 18.309,-28.125 19.969,-38.555 -2.105,0.246 -4.168,0.477 -6.18,0.68 z m 7.297,-11.207 v -8.121 c -2.168,0.113 -4.343,0.222 -6.543,0.32 v 8.555 c 2.117,-0.223 4.301,-0.473 6.543,-0.754 z m -11.996,11.656 c -2.949,0.262 -5.738,0.48 -8.336,0.66 -0.133,14.914 -4.133,31.195 -10.254,40.309 10.36,-8.028 18.086,-25.961 18.59,-40.969 z m 0.762,-10.438 v -8.836 c -2.168,0.086 -4.348,0.157 -6.543,0.215 v 9.176 c 2.059,-0.152 4.254,-0.34 6.543,-0.555 z m -13.793,11.387 c -3.902,0.219 -7.176,0.336 -9.602,0.383 v 36.703 c 5.602,-8.184 9.418,-23.164 9.602,-37.086 z m 2.559,-10.508 v -9.379 c -2.168,0.039 -4.352,0.079 -6.547,0.106 v 9.629 c 1.902,-0.086 4.093,-0.199 6.547,-0.356 z m -11.239,0.528 v -9.766 c -1.09,0.004 -2.176,0.012 -3.273,0.012 -1.094,0 -2.18,-0.008 -3.27,-0.012 v 9.766 c 2.055,0.054 3.219,0.062 3.27,0.062 0.054,0 1.222,-0.008 3.273,-0.062 z m -5.617,10.363 c -2.43,-0.047 -5.699,-0.164 -9.605,-0.383 0.187,13.922 4.003,28.902 9.605,37.086 z m -5.617,-10.535 v -9.629 c -2.199,-0.027 -4.375,-0.067 -6.543,-0.106 v 9.379 c 2.445,0.157 4.644,0.27 6.543,0.356 z m -8.684,9.863 c -2.593,-0.18 -5.386,-0.398 -8.336,-0.66 0.5,15.008 8.231,32.945 18.594,40.969 -6.121,-9.114 -10.125,-25.395 -10.258,-40.309 z m -2.551,-10.543 v -9.176 c -2.199,-0.058 -4.374,-0.129 -6.542,-0.215 v 8.836 c 2.292,0.215 4.48,0.403 6.542,0.555 z m -10.484,9.434 c -2.008,-0.203 -4.07,-0.434 -6.18,-0.68 1.668,10.43 8.274,29.703 19.973,38.555 -7.5,-9.625 -13.527,-25.149 -13.793,-37.875 z m -0.75,-10.453 v -8.555 c -2.199,-0.098 -4.379,-0.207 -6.547,-0.32 v 8.121 c 2.246,0.281 4.434,0.531 6.547,0.754 z m 0.242,47.722 c -10.66,-4.543 -19.742,-8.57 -26.652,-11.679 -5.176,-2.333 -15.359,-7.098 -28.582,-13.711 -5.156,14.293 -10.598,30.961 -14.938,47.902 24.137,-3.547 50.192,-8.922 76.868,-16.117 -2.364,-1.824 -4.598,-3.961 -6.696,-6.395 z m -24.121,-16.262 c 4.828,2.172 10.914,4.774 17.996,7.661 -0.113,-0.196 -0.222,-0.383 -0.336,-0.575 -5.839,-10.125 -8.976,-21.648 -9.851,-30.183 -3.57,-0.531 -7.207,-1.129 -10.86,-1.797 v -4.148 c -6.425,-0.313 -13.086,-0.868 -19.847,-1.622 -1.992,4.946 -4.196,10.618 -6.492,16.821 13.773,6.738 24.324,11.562 29.39,13.843 z M 228.09,170.48 v -7.765 c -1.801,-0.11 -3.59,-0.231 -5.367,-0.348 v 7.328 c 1.816,0.282 3.605,0.547 5.367,0.785 z m -15.692,-0.91 v -7.988 c -7.371,-0.617 -14.515,-1.332 -21.421,-2.137 v 8.313 c 7.308,0.847 14.5,1.472 21.421,1.812 z m -25.921,2.36 c -17.434,-2.2 -35.325,-5.555 -51.668,-9.149 16.523,9.184 32.32,17.324 45.664,23.938 2.148,-5.5 4.183,-10.481 6.004,-14.789 z m -0.188,-4.742 v -8.305 c -6.906,-0.848 -13.566,-1.778 -19.957,-2.766 v 8.071 c 6.641,1.132 13.328,2.148 19.957,3 z m -24.652,-3.817 v -7.996 c -6.176,-1.004 -12.094,-2.059 -17.746,-3.141 v 7.696 c 5.797,1.207 11.738,2.367 17.746,3.441 z m -35.039,-7.258 c 4.078,0.949 8.293,1.899 12.597,2.825 v -7.626 c -4.371,-0.874 -8.574,-1.761 -12.597,-2.656 z m -4.696,-1.117 v -7.406 c -3.754,-0.871 -7.343,-1.738 -10.757,-2.602 v 7.344 c 3.437,0.879 7.031,1.773 10.757,2.664 z m 244.68,15.02 c -2.355,4.64 -5.144,9.953 -8.32,15.796 18.683,-8.121 35.816,-16.183 51.379,-24.132 -13.508,3.066 -28.262,6.027 -43.059,8.336 z m 46.344,-13.903 v -7.457 c -4.024,0.895 -8.227,1.782 -12.598,2.656 v 7.626 c 4.309,-0.926 8.52,-1.876 12.598,-2.825 z m -17.293,3.817 v -7.696 c -5.653,1.082 -11.574,2.137 -17.75,3.141 v 7.996 c 6.008,-1.074 11.953,-2.234 17.75,-3.441 z m -22.445,4.258 v -8.071 c -6.391,0.988 -13.051,1.918 -19.954,2.766 v 8.305 c 6.625,-0.852 13.313,-1.868 19.954,-3 z m -14.352,6.976 c -10.82,1.512 -21.555,2.617 -31.719,3.106 v 4.148 c -3.644,0.668 -7.281,1.266 -10.855,1.797 -0.75,7.312 -3.164,16.816 -7.512,25.758 4.137,-1.539 8.27,-3.125 12.383,-4.754 9.555,-3.785 18.769,-7.563 27.652,-11.328 3.832,-6.887 7.199,-13.203 10.051,-18.727 z m -10.297,-3.406 v -8.313 c -6.902,0.805 -14.047,1.52 -21.422,2.137 v 7.988 c 6.93,-0.34 14.121,-0.965 21.422,-1.812 z m -31.742,1.937 v -7.328 c -1.774,0.117 -3.567,0.238 -5.371,0.348 v 7.765 c 1.773,-0.238 3.558,-0.503 5.371,-0.785 z M 417.621,147.59 v 7.406 c 3.723,-0.891 7.317,-1.785 10.758,-2.664 v -7.344 c -3.418,0.86 -7.004,1.731 -10.758,2.602 z m 65.649,100.844 c 11.933,-27.704 -15.481,-60.114 -56.059,-90.481 -20.891,10.859 -44.863,22.055 -72.063,33.535 -8.375,15.121 -18.984,33.094 -31.101,51.539 69.781,21.184 146.234,35.543 159.223,5.407 z M 345.66,195.453 c -6.613,2.738 -13.406,5.485 -20.39,8.25 -6.426,2.547 -12.864,5.02 -19.286,7.418 -5.476,9.234 -12.328,15.777 -20.254,19.441 10.231,3.54 20.954,7.086 31.895,10.489 10.648,-15.953 20.16,-31.715 28.035,-45.598 z M 183.117,342.551 c 42.449,13.847 92.297,-39.977 129.727,-94.442 -13.192,-4.593 -25.969,-9.375 -37.918,-14.058 v 13.578 h -2.817 v 12.199 h -4.695 v -12.199 h -2.816 v -13.945 c -4.493,-0.586 -8.739,-1.95 -12.7,-4.059 -29.668,9.215 -58.359,16.57 -84.757,21.746 -9.547,41.574 -10.989,82.383 15.976,91.18 z M 40.52,228.535 c 8.242,18.309 57.214,23.129 121.214,14.621 4.993,-18.738 11.254,-36.883 16.954,-51.82 -16.692,-8.469 -37.301,-19.441 -58.508,-31.938 -12.66,-3.043 -23.817,-6.062 -32.297,-8.531 -36.817,28.684 -56.641,57.074 -47.363,77.668 z m 40.214,-84.723 c 0.903,0.286 1.875,0.583 2.907,0.899 v -7.496 c -1.008,-0.32 -1.977,-0.629 -2.907,-0.93 z M 16.449,27.516 C -7.973,55.781 27.984,93.367 76.039,126.66 V 84.18 C 73.605,83.402 71.203,82.605 68.844,81.789 L 65.371,80.594 V 48.961 H 60.387 V 38.641 H 193.34 C 119.969,12.73 42.883,-3.074 16.449,27.516 Z M 279.738,48.961 H 259.781 V 80.82 h 19.957 z m 4.696,0 V 85.516 H 255.09 V 48.961 H 75.695 v 24.25 c 45.723,15.101 109.266,22.457 194.063,22.457 84.801,0 148.347,-7.356 194.066,-22.457 v -24.25 h -179.39 l 239.5,-6.676 C 502.914,4.164 414.41,18.242 339.047,38.641 h 140.094 v 10.32 h -4.993 v 31.633 l -3.472,1.195 c -2.356,0.816 -4.758,1.613 -7.196,2.391 v 46.511 c 52.879,-34.949 72.77,-66.07 60.454,-88.406 l -239.5,6.676"
         style="fill:#000000;fill-opacity:1;fill-rule:evenodd;stroke:none"
         id="path1059" /></g></g></svg>
