<?xml version="1.0" encoding="UTF-8" standalone="no"?>
<svg
   width="200px"
   height="200px"
   viewBox="0 0 200 200"
   version="1.1"
   id="svg278"
   sodipodi:docname="LHEP.Inkscape.svg"
   inkscape:version="1.2 (dc2aedaf03, 2022-05-15)"
   xmlns:inkscape="http://www.inkscape.org/namespaces/inkscape"
   xmlns:sodipodi="http://sodipodi.sourceforge.net/DTD/sodipodi-0.dtd"
   xmlns="http://www.w3.org/2000/svg"
   xmlns:svg="http://www.w3.org/2000/svg">
  <sodipodi:namedview
     id="namedview280"
     pagecolor="#ffffff"
     bordercolor="#000000"
     borderopacity="0.25"
     inkscape:showpageshadow="2"
     inkscape:pageopacity="0.0"
     inkscape:pagecheckerboard="0"
     inkscape:deskcolor="#d1d1d1"
     showgrid="false"
     inkscape:zoom="3.85"
     inkscape:cx="100"
     inkscape:cy="100"
     inkscape:window-width="1920"
     inkscape:window-height="979"
     inkscape:window-x="0"
     inkscape:window-y="0"
     inkscape:window-maximized="1"
     inkscape:current-layer="svg278" />
  <defs
     id="defs266" />
  <g
     id="g276">
    <path
       stroke="none"
       fill="#ffff00"
       fill-opacity="0"
       d="M200 200 L0 200 0 0 200 0 200 200"
       id="path268" />
    <path
       stroke="none"
       fill="#090064"
       d="M4.7 130.4 Q4.05 128.2 4.05 125.85 2.85 130.5 3.95 134.65 7.2 146.2 26.65 149.3 L26.8 149.35 28.65 149.6 29.25 149.7 28.25 147.7 34.9 150.25 35.65 150.3 35.8 150.3 36.8 150.35 37.8 150.35 Q68.45 151.6 107.65 138.15 138.8 127.4 160.9 112.4 139.9 125.75 111.45 135.55 71.75 149.2 40.7 147.9 8.8 146.6 4.7 130.4 M177.65 99.9 L177.25 101.1 176.85 102.25 176.15 102.8 175.3 103.4 175.25 103.45 172.7 105.1 Q171.9 105.65 171.9 106.45 L171.95 107.05 172 107.15 Q147.1 127.1 108.4 140.4 68.7 154.05 37.7 152.75 L37.5 152.75 35.95 152.7 35.65 152.65 35.65 152.7 35.15 152.65 35.1 152.7 27.9 154.9 29.75 152.15 28.4 151.95 26.35 151.65 Q4.95 148.3 1.65 135.25 L1.65 135.3 Q-1 125.7 7.2 114.25 L7.4 113.9 7.6 115.6 7.6 118.55 7.65 119.15 Q5.65 124.75 6.95 129.8 11.1 144.3 40.8 145.55 71.45 146.8 110.65 133.3 148.25 120.4 172.65 101.2 177 100 178.05 99.4 L177.7 99.85 177.65 99.9 M171.05 62.9 L172 62.95 173.05 63.2 174.05 63.8 174.85 65.05 175.15 66.45 175.25 67.8 175.15 69.25 174.75 70.75 173.9 72 172.85 72.55 171.55 72.75 164.4 72.75 164.4 78.15 161.55 78.15 161.55 65.2 161.6 64.35 Q161.7 63.9 162.05 63.5 L162.9 63 163.8 62.9 171.05 62.9 M170.8 65.3 L169.95 65.2 165.3 65.2 164.95 65.2 164.6 65.4 164.4 65.7 164.4 66.1 164.4 70.45 169.9 70.45 170.9 70.4 171.75 69.9 172.2 68.9 172.25 67.8 172.15 66.7 171.7 65.7 Q171.3 65.35 170.8 65.3 M178.35 48.9 L178.65 49.05 178.35 48.9 M141.85 69.15 L141.85 62.9 144.7 62.9 144.7 78.15 141.85 78.15 141.85 71.45 133.9 71.45 133.9 78.15 131.05 78.15 131.05 62.9 133.9 62.9 133.9 69.15 141.85 69.15 M147.35 75.9 L147.35 65.1 Q147.35 64.6 147.5 64.2 147.6 63.75 147.85 63.5 148.25 63.1 148.75 63 L149.7 62.9 159.5 62.9 159.5 65.2 151.25 65.2 150.85 65.25 150.45 65.4 150.25 65.8 150.2 66.15 150.2 69.25 159.25 69.25 159.25 71.5 150.2 71.5 150.2 75.1 150.3 75.45 150.45 75.7 150.8 75.85 151.4 75.9 159.55 75.9 159.55 78.15 149.65 78.15 148.7 78.1 147.9 77.7 147.4 76.8 147.35 75.9 M195.15 73.65 Q196.35 69.1 195.25 64.9 192.65 55.6 179.6 51.8 L179.4 51.7 177.55 51.25 170.6 51.8 172.95 50.3 161.4 49.15 Q130.8 47.95 91.55 61.4 86.9 63 82.45 64.75 L81.25 63 81 62.7 90.8 59.15 Q130.5 45.5 161.5 46.8 L161.55 46.8 Q168.65 47.05 173.9 48.05 L172.45 45.15 178.85 49.1 180.05 49.45 180.65 49.6 Q194.85 53.9 197.55 64.3 200.2 73.9 192 85.35 L189.2 89.9 186.45 91.2 187.2 89.55 Q187.75 88.3 187.75 87.7 L187.7 87.45 190.05 85.3 Q190.6 84.85 192.25 83.9 193.05 83.4 193.05 82.6 193.05 80.95 191.1 81.6 193.7 75.35 192.2 69.8 188.15 55.25 158.4 54 127.75 52.8 88.55 66.25 L84.05 67.85 83.45 66.6 83 65.7 87.8 64 Q127.45 50.35 158.5 51.65 190.4 52.95 194.55 69.15 195.15 71.35 195.15 73.65 M47.2 77.25 L53.45 76.5 53.45 75.35 56.6 74.8 Q57.2 70.4 58.75 67.15 L59.75 65.4 Q62.2 61.6 66.45 59.9 L68.7 59.15 68.75 59.15 68.75 55.05 69.7 55.05 69.7 51.6 70.65 51.6 70.65 55.05 71.6 55.05 71.6 59.15 74.3 60.05 75.85 60.85 78.2 62.55 80.2 64.85 Q82.9 68.7 83.7 74.8 L86.9 75.35 86.9 76.5 93.3 77.3 94.8 77.5 Q104.6 78.85 113.35 80.95 L119.5 82.55 Q124.45 83.9 129.1 85.5 L129.1 90.65 126.6 90.65 126.6 102.85 129.85 103.95 129.85 113.05 131.05 113.05 131.05 115.95 9.3 115.95 9.3 113.05 10.55 113.05 10.55 103.95 Q12.05 103.35 13.75 102.85 L13.75 90.65 11.25 90.65 11.25 85.5 13.9 84.6 16.4 83.8 16.45 83.8 Q21.65 82.2 27.25 80.85 L31.6 79.9 45.4 77.5 46.7 77.35 47.05 77.3 47.2 77.25 M47.4 78.5 L47.4 80.8 53.45 80.05 53.45 77.75 47.4 78.5 M45.95 78.7 L40.2 79.55 40.2 81.85 45.95 81 45.95 78.7 M38.65 79.8 L33.7 80.75 33.7 83.05 38.65 82.15 38.65 79.8 M27.15 84.45 L27.15 82.15 24 82.95 24 85.25 27.15 84.45 M32.25 81.05 L28.65 81.8 28.65 84.15 32.25 83.35 32.25 81.05 M40.35 87.45 L43 87.1 43 97.75 45.4 97.55 45.4 86.85 48.6 86.55 48.6 97.3 50.4 97.2 50.4 86.4 53.9 86.1 53.9 97 56.1 96.85 56.1 86 59.55 85.8 59.55 96.7 61.75 96.65 61.75 85.75 65.4 85.65 65.5 85.65 65.5 96.55 68.15 96.5 68.15 85.6 70.15 85.6 70.25 85.6 72.2 85.6 72.2 96.5 74.85 96.55 74.85 85.65 74.95 85.65 78.6 85.75 78.6 96.65 80.8 96.7 80.8 85.8 84.25 86 84.25 96.85 86.45 97 86.45 86.1 89.95 86.4 89.95 97.2 91.75 97.3 91.75 86.55 94.95 86.85 94.95 97.55 97.35 97.75 97.35 87.1 100 87.45 100 98 102.4 98.25 102.4 87.8 105.15 88.25 105.15 98.55 107.3 98.85 107.3 88.55 109.85 89.05 109.85 99.2 111.9 99.5 111.9 89.45 114.35 89.95 114.35 99.95 116.2 100.3 116.2 90.35 118.4 90.9 118.4 100.75 120.7 101.25 120.7 91.45 122.7 92 122.7 101.75 123.65 102 123.65 90.45 Q106.7 83.9 70.15 82.55 33.65 83.9 16.7 90.45 L16.7 102 17.65 101.75 17.65 92 19.65 91.45 19.65 101.25 21.95 100.75 21.95 90.9 24.15 90.35 24.15 100.3 26.05 99.95 26.05 89.95 28.45 89.45 28.45 99.5 30.5 99.2 30.5 89.05 33.05 88.55 33.05 98.85 35.2 98.55 35.2 88.25 37.95 87.8 37.95 98.25 40.35 98 40.35 87.45 M17.35 84.8 L17.35 87.1 19 86.6 19 84.3 17.35 84.8 M20.6 83.85 L20.6 86.15 22.5 85.65 22.5 83.35 20.6 83.85 M14.95 85.55 L14.95 87.85 15.9 87.5 15.9 85.25 14.95 85.55 M25.2 106.85 L25.2 110.75 22.95 110.75 22.95 107.1 25.2 106.85 M18.6 107.5 L18.6 110.75 17.05 110.75 17.05 107.7 18.6 107.5 M19.7 110.75 L19.7 107.4 21.55 107.2 21.55 110.75 19.7 110.75 M26.6 106.7 L27.55 106.65 29.15 106.5 29.15 110.75 26.6 110.75 26.6 106.7 M26.15 123.2 L26.5 122.5 Q26.75 122.15 27.25 122 L28.45 121.75 29.75 122 30.45 122.5 30.8 123.2 36.7 137.2 33.65 137.2 28.85 125 28.7 124.7 28.45 124.55 28.2 124.7 28.1 125 23.3 137.2 20.25 137.2 26.15 123.2 M13.7 106.15 L13.7 113.05 65.85 113.05 65.85 102.35 74.5 102.35 74.5 113.05 126.65 113.05 126.65 106.15 Q109.25 99.8 71.15 99.5 L70.65 99.5 69.7 99.5 69.2 99.5 Q31.1 99.8 13.7 106.15 M16.1 107.8 L16.1 110.75 14.95 110.75 14.95 107.9 16.1 107.8 M44.3 105.25 L44.3 110.75 40.8 110.75 40.8 105.55 44.3 105.25 M47.25 105.1 L50.3 104.9 50.3 110.75 46.5 110.75 46.5 105.15 47.25 105.1 M38.75 105.65 L38.75 110.75 35.55 110.75 35.55 105.95 38.75 105.65 M30.85 106.35 L33.85 106.1 33.85 110.75 30.85 110.75 30.85 106.35 M120.85 62.9 L120.85 75.05 120.85 75.4 121.05 75.7 121.3 75.8 121.8 75.9 130.15 75.9 130.15 78.15 119.95 78.15 119.2 78.1 118.55 77.8 118.15 77.3 117.95 76.5 117.95 62.9 120.85 62.9 M49.35 125.45 L47.65 125.45 47.65 133.45 48.9 133.45 50.15 133.35 51.35 133 52.2 132 52.45 131.1 52.55 129.35 52.45 127.75 52.1 126.7 Q51.7 125.9 50.95 125.7 L49.35 125.45 M40.05 127.55 Q39.9 128.1 39.9 129.35 L40 131.2 40.25 132 Q40.55 132.7 41.1 133 L42.25 133.35 43.5 133.45 44.8 133.45 44.8 125.45 43.05 125.45 41.5 125.7 Q40.7 125.9 40.3 126.7 L40.05 127.55 M36.9 129.35 L37.1 126.95 Q37.25 125.8 37.95 124.8 38.65 123.85 39.75 123.45 L42.6 123.15 44.8 123.15 44.8 121.9 47.65 121.9 47.65 123.15 49.8 123.15 52.65 123.45 Q53.8 123.85 54.5 124.8 55.15 125.8 55.3 126.95 L55.5 129.35 55.35 131.75 Q55.2 132.95 54.65 133.9 53.95 134.95 52.85 135.35 L50.35 135.7 47.65 135.7 47.65 137.2 44.8 137.2 44.8 135.7 42.1 135.7 39.55 135.35 Q38.5 134.95 37.8 133.9 37.25 132.95 37.1 131.75 L36.9 129.35 M65.3 63.55 Q60.05 66.4 59.6 74.4 L61.55 74.15 Q61.95 68.15 65.3 63.55 M68 73.75 Q67.95 67.8 69.45 61.95 65.75 66.65 66.05 73.8 L68 73.75 M71.4 73.75 Q71.45 67.15 70.35 61.95 69.2 67.15 69.25 73.75 L71.4 73.75 M64.9 73.85 Q64.8 67.5 67.7 62.3 63.55 65.15 62.75 74.05 L64.9 73.85 M75.4 63.55 Q78.8 68.25 79.2 74.15 L81.1 74.4 Q80.65 66.4 75.4 63.55 M77.9 74.05 Q77.15 65.15 72.95 62.3 75.9 67.5 75.75 73.9 L77.9 74.05 M74.6 73.85 Q74.95 66.7 71.25 61.95 72.75 67.85 72.7 73.75 L74.6 73.85 M86.9 77.75 L86.9 80.05 92.95 80.8 92.95 78.5 86.9 77.75 M84.15 80.05 L84.15 77.85 82.5 77.6 82.5 79.95 83.35 80 84.15 80.05 M79.2 79.7 L81 79.8 81 77.35 80.8 77.35 79.2 77.15 79.2 79.7 M77.65 77 L75.75 76.8 75.75 79.55 77.65 79.65 77.65 77 M72.5 79.5 L74.4 79.5 74.4 76.75 72.5 76.65 72.5 79.5 M57.95 77.6 L56.3 77.85 56.3 80.05 57.1 80 57.95 79.95 57.95 77.6 M62.8 77 L62.8 79.65 64.7 79.55 64.7 76.8 62.8 77 M61.25 79.7 L61.25 77.15 59.65 77.35 59.45 77.35 59.45 79.8 61.25 79.7 M67.95 79.5 L67.95 76.65 66.05 76.75 66.05 79.5 67.95 79.5 M69.3 79.5 L71.2 79.5 71.2 76.6 70.7 76.6 69.8 76.6 69.3 76.6 69.3 79.5 M70.6 104.55 L72.4 104.55 72.4 106.5 70.6 106.5 70.6 104.55 M69.85 106.5 L68 106.5 68 104.55 69.85 104.55 69.85 106.5 M68 107.5 L69.85 107.5 69.85 109.45 68 109.45 68 107.5 M70.6 107.5 L72.4 107.5 72.4 109.45 70.6 109.45 70.6 107.5 M69.85 112.4 L68 112.4 68 110.4 69.85 110.4 69.85 112.4 M70.6 110.4 L72.4 110.4 72.4 112.4 70.6 112.4 70.6 110.4 M61.5 110.75 L58.65 110.75 58.65 103.7 58.9 103.7 61.5 103.65 61.5 110.75 M67.3 113.05 L73.05 113.05 73.05 103.85 67.3 103.85 67.3 113.05 M54.2 103.95 L57.05 103.8 57.05 110.75 54.2 110.75 54.2 103.95 M80.8 122 L82.45 122.4 Q83.35 122.8 84.1 123.5 84.85 124.25 85.2 125.25 L85.7 127.3 85.75 129.45 Q85.8 131.7 85.4 133.25 85 134.85 83.85 135.85 L82.4 136.7 80.9 137.1 79.55 137.2 73 137.2 73 134.9 78.35 134.9 80.1 134.7 81.35 134.15 Q82.2 133.6 82.5 132.7 L82.8 130.55 73.5 130.55 73.5 128.3 82.8 128.3 82.55 126.65 Q82.3 125.9 81.7 125.25 L80.45 124.5 78.6 124.2 73.2 124.2 73.2 121.9 79.55 121.9 80.8 122 M78.85 110.75 L78.85 103.65 81.7 103.7 81.7 110.75 78.85 110.75 M90.05 104.9 L93.85 105.15 93.85 110.75 90.05 110.75 90.05 104.9 M83.3 103.8 L86.15 103.95 86.15 110.75 83.3 110.75 83.3 103.8 M66.4 130.65 L60.55 130.65 60.55 133.75 60.6 134.35 60.75 134.65 Q60.95 134.85 61.2 134.85 L61.65 134.9 66.2 134.9 67.05 134.85 67.9 134.35 68.2 133.6 68.25 132.8 68.25 132 67.95 131.25 67.45 130.85 66.4 130.65 M60.55 125.05 L60.55 128.35 66.15 128.35 67 128.25 67.7 127.8 67.9 127.35 68 126.25 67.95 125.45 Q67.9 124.95 67.5 124.6 67.2 124.3 66.85 124.25 L66.1 124.2 61.4 124.2 61.05 124.25 Q60.85 124.25 60.75 124.4 L60.55 124.75 60.55 125.05 M57.8 123.3 Q57.9 122.85 58.15 122.55 58.5 122.15 58.95 122.05 L59.75 121.9 67.25 121.9 68.65 122.1 Q69.4 122.25 70.05 122.85 L70.65 123.85 70.95 125 71 126.1 70.9 127.35 70.3 128.6 69.6 129.2 68.85 129.4 68.85 129.45 69.8 129.75 70.5 130.3 Q71.05 130.9 71.15 131.6 L71.25 133 71.2 134.05 71 135.15 70.4 136.2 69.5 136.9 68.55 137.15 67.6 137.2 60.25 137.2 59.55 137.2 58.85 137.05 58.2 136.55 57.9 136.1 Q57.7 135.7 57.65 135.05 L57.65 124.15 Q57.65 123.7 57.8 123.3 M117.85 85.65 L119.75 86.15 119.75 83.85 117.85 83.35 117.85 85.65 M121.35 86.6 L123 87.1 123 84.8 121.35 84.3 121.35 86.6 M125.4 87.85 L125.4 85.55 124.45 85.25 124.45 87.5 125.4 87.85 M113.15 82.15 L113.15 84.45 116.35 85.25 116.35 82.95 113.15 82.15 M106.65 83.05 L106.65 80.75 101.75 79.8 101.7 82.15 106.65 83.05 M108.1 83.35 L111.7 84.15 111.7 81.8 108.1 81.05 108.1 83.35 M94.4 78.7 L94.4 81 100.15 81.85 100.15 79.55 94.4 78.7 M113.75 106.7 L113.75 110.75 111.25 110.75 111.25 106.5 113.75 106.7 M96.05 110.75 L96.05 105.25 99.55 105.55 99.55 110.75 96.05 110.75 M115.15 110.75 L115.15 106.85 117.4 107.1 117.4 110.75 115.15 110.75 M106.5 106.1 L109.45 106.35 109.45 110.75 106.5 110.75 106.5 106.1 M101.6 105.65 L104.8 105.95 104.8 110.75 101.6 110.75 101.6 105.65 M125.45 107.9 L125.45 110.75 124.25 110.75 124.25 107.8 125.45 107.9 M120.6 107.4 L120.6 110.75 118.85 110.75 118.85 107.2 120.6 107.4 M123.3 110.75 L121.75 110.75 121.75 107.5 123.3 107.7 123.3 110.75"
       id="path270" />
    <path
       stroke="none"
       fill="#ff0000"
       d="M181 90.15 Q180 84.2 182.25 78.95 182.3 78.75 182.5 78.7 L182.85 78.7 183.1 78.95 183.1 79.25 Q180.55 85.35 182.4 92.3 L182.4 92.35 182.7 93.3 182.8 93 Q184.1 89.45 186.25 86.8 L186.25 86.75 186.3 86.7 187.45 85.35 Q189.35 83.35 191.85 81.85 L192.15 81.8 192.45 82.05 192.5 82.35 192.25 82.65 Q189.25 84.4 187.05 87.15 L187 87.25 Q185.8 88.75 184.85 90.6 L184.45 91.35 183.35 94.15 183.45 94.15 186.25 93.75 193.15 94.2 193.25 94.2 194.8 94.65 Q196.7 95.25 198.4 96.25 L198.6 96.5 198.55 96.85 198.3 97.1 197.95 97.05 Q195.65 95.7 193.15 95.1 L193.05 95.1 190.2 94.6 186.8 94.6 186.3 94.65 189.85 95.55 Q192.7 96.5 195.1 98.25 L195.2 98.35 196.2 99.15 197.4 100.25 197.55 100.55 197.4 100.85 197.1 101 196.8 100.85 194.8 99.15 194.65 99.05 193.25 98.1 Q189.8 96 185.45 95.4 L184.2 95.25 186.2 96.8 Q188.45 98.8 190 101.1 L190.05 101.2 191 102.75 Q192.05 104.7 192.65 106.9 L192.6 107.2 192.35 107.45 192 107.4 191.75 107.15 Q190.95 104.2 189.35 101.75 L189.3 101.65 Q187.2 98.5 183.75 96.05 L183.95 96.5 Q185.5 100.15 185.8 103.75 L185.8 103.85 185.85 105.7 Q185.8 108 185.2 110.25 L185 110.55 184.65 110.6 184.4 110.35 184.3 110 Q185.1 107.05 184.95 104 L184.95 103.9 Q184.7 100.5 183.15 96.95 L183.15 98.5 Q182.85 103.25 180.85 107.1 L180.8 107.25 180.15 108.4 178.95 110.05 178.65 110.25 178.35 110.15 178.15 109.85 Q178.1 109.65 178.2 109.5 L179.95 106.95 180 106.8 180.75 105.25 Q182.2 101.65 182.3 97.3 L182.3 97 180.25 101 178.2 103.7 178.15 103.75 177 104.95 Q175.4 106.4 173.45 107.5 L173.1 107.6 172.85 107.35 172.8 107.05 173 106.75 Q175.5 105.25 177.4 103.2 L177.5 103.15 179.4 100.7 180.7 98.35 181.65 96.1 180.55 96.95 Q174.85 101.2 168.25 101.2 168.05 101.2 167.95 101.05 L167.8 100.75 Q167.8 100.55 167.95 100.45 168.05 100.3 168.25 100.3 175.35 100.25 181.35 95.2 L174.4 94.5 174.35 94.45 172.6 93.9 Q169.75 92.85 167.3 91 L167.15 90.7 167.2 90.35 Q167.3 90.2 167.55 90.2 L167.85 90.3 Q170.8 92.55 174.45 93.6 L174.6 93.6 Q177.9 94.5 181.9 94.3 L181.55 93.75 181.1 93.05 181.1 93 179.95 90.8 179.45 89.55 179.45 89.5 178.75 87.45 Q177.65 83.5 178.2 79.55 L178.35 79.25 178.7 79.15 179 79.35 179.1 79.7 Q178.45 84.45 180.2 89.1 L180.25 89.1 180.25 89.2 181.25 91.45 181 90.15"
       id="path272" />
    <path
       stroke="none"
       fill="#0000ff"
       d="M178.75 87.45 L179.45 89.5 179.45 89.55 Q176.3 85.7 171.85 83.9 L171.6 83.65 171.6 83.3 171.85 83.05 172.2 83.05 Q175.9 84.55 178.75 87.45 M179.95 90.8 L181.1 93 181.1 93.05 Q176 87.95 169.5 87.15 L169.2 86.95 169.1 86.65 169.3 86.35 Q169.4 86.2 169.6 86.25 175.3 86.95 179.95 90.8 M181.55 93.75 L181.9 94.3 Q177.9 94.5 174.6 93.6 L174.45 93.6 Q177.8 93.1 181.55 93.75 M172.6 93.9 L174.35 94.45 174.4 94.5 Q170.9 95 167.8 96.8 L167.45 96.8 167.2 96.6 167.15 96.25 167.35 96 Q169.85 94.55 172.6 93.9 M180.55 96.95 L181.65 96.1 180.7 98.35 179.4 100.7 177.5 103.15 177.4 103.2 Q178.4 99.95 180.55 96.95 M177 104.95 L178.15 103.75 178.2 103.7 Q177.45 106.2 177.4 108.85 L177.3 109.2 177 109.3 176.7 109.2 176.55 108.85 Q176.55 106.85 177 104.95 M180.25 101 L182.3 97 182.3 97.3 Q180.7 101.3 180.75 105.25 L180 106.8 179.95 106.95 Q179.65 104 180.25 101 M180.15 108.4 L180.8 107.25 180.85 107.1 181.35 109.8 181.3 110.15 181.05 110.35 180.7 110.3 180.5 110.05 180.15 108.4 M183.15 98.5 L183.15 96.95 Q184.7 100.5 184.95 103.9 L184.95 104 Q183.7 101.5 183.15 98.5 M185.85 105.7 L185.8 103.85 185.8 103.75 Q187.15 106.45 189.25 108.6 L189.4 108.9 189.25 109.2 188.95 109.35 Q188.75 109.35 188.65 109.2 L185.85 105.7 M183.95 96.5 L183.75 96.05 Q187.2 98.5 189.3 101.65 L189.35 101.75 Q186.35 99.7 183.95 96.5 M191 102.75 L190.05 101.2 190 101.1 Q192.5 102.8 195.45 103.6 L195.8 103.8 195.85 104.15 195.6 104.45 195.3 104.45 Q193 103.85 191 102.75 M186.2 96.8 L184.2 95.25 185.45 95.4 Q189.25 97.55 193.25 98.1 L194.65 99.05 194.8 99.15 Q190.45 98.95 186.2 96.8 M196.2 99.15 L195.2 98.35 195.1 98.25 198.1 98.1 198.45 98.15 198.6 98.5 198.55 98.8 198.25 98.95 196.2 99.15 M189.85 95.55 L186.3 94.65 186.8 94.6 190.2 94.6 193.05 95.1 193.15 95.1 189.85 95.55 M194.8 94.65 L193.25 94.2 193.15 94.2 Q195.9 93.55 198.35 92.15 L198.65 92.15 198.95 92.3 199 92.7 198.75 92.95 Q196.9 94 194.8 94.65 M186.25 93.75 L183.45 94.15 183.35 94.15 184.45 91.35 184.85 90.6 Q185.8 88.75 187 87.25 L187.05 87.15 Q186.15 90.4 184.2 93.6 191.6 90.95 195.15 84.85 L195.4 84.6 195.75 84.7 195.95 84.95 195.9 85.3 Q192.65 90.9 186.25 93.75 M187.45 85.35 L186.3 86.7 186.25 86.75 Q187.15 83.15 186.65 79.45 186.6 79.25 186.7 79.15 186.85 78.95 187.05 78.95 L187.35 79.05 187.5 79.4 Q187.95 82.35 187.45 85.35 M182.8 93 L182.7 93.3 182.4 92.35 182.8 93 M181 90.15 L181.25 91.45 180.25 89.2 180.25 89.1 181 90.15"
       id="path274" />
  </g>
</svg>
