<?xml version="1.0" encoding="UTF-8" standalone="no"?>
<!-- Created with Inkscape (http://www.inkscape.org/) -->

<svg
   width="700px"
   height="500px"
   viewBox="0 0 700 500"
   version="1.1"
   id="SVGRoot"
   sodipodi:docname="MukeWiki.Inkscape.path.svg"
   inkscape:version="1.1.2 (0a00cf5339, 2022-02-04)"
   xmlns:inkscape="http://www.inkscape.org/namespaces/inkscape"
   xmlns:sodipodi="http://sodipodi.sourceforge.net/DTD/sodipodi-0.dtd"
   xmlns="http://www.w3.org/2000/svg"
   xmlns:svg="http://www.w3.org/2000/svg">
  <sodipodi:namedview
     id="namedview26774"
     pagecolor="#ffffff"
     bordercolor="#666666"
     borderopacity="1.0"
     inkscape:pageshadow="2"
     inkscape:pageopacity="0.0"
     inkscape:pagecheckerboard="0"
     inkscape:document-units="px"
     showgrid="true"
     inkscape:zoom="1.3826038"
     inkscape:cx="319.32503"
     inkscape:cy="264.71792"
     inkscape:window-width="1920"
     inkscape:window-height="979"
     inkscape:window-x="0"
     inkscape:window-y="0"
     inkscape:window-maximized="1"
     inkscape:current-layer="layer1">
    <inkscape:grid
       type="xygrid"
       id="grid26802" />
  </sodipodi:namedview>
  <defs
     id="defs26769" />
  <g
     inkscape:label="Layer 1"
     inkscape:groupmode="layer"
     id="layer1">
    <rect
       style="fill:#ffffff;fill-opacity:0;stroke:#c8c8c8;stroke-width:10;stroke-linejoin:round;stroke-miterlimit:4;stroke-dasharray:none;stroke-opacity:1"
       id="rect26826"
       width="590"
       height="480"
       x="55"
       y="10"
       rx="50"
       ry="50" />
    <g
       id="g29479"
       transform="matrix(0.65971593,0,0,0.6597168,181.11272,30)">
      <circle
         style="fill:#afafaf;fill-opacity:1"
         cx="255.99899"
         cy="256"
         r="43.029999"
         id="circle29465" />
      <path
         d="m 419.155,256 c 9.676,-9.272 18.497,-18.579 26.321,-27.823 34.523,-40.796 45.968,-76.372 32.224,-100.177 -10.683,-18.504 -35.031,-27.482 -70.383,-25.969 -20.497,0.878 -44.118,5.203 -69.74,12.678 C 334.385,101.692 330.736,89.396 326.641,77.996 308.574,27.699 283.485,0 255.999,0 c -18.334,0 -35.891,12.422 -50.772,35.925 -12.324,19.46 -22.897,46.578 -30.785,78.784 -12.874,-3.746 -25.353,-6.737 -37.278,-8.89 C 84.574,96.319 48.04,104.195 34.297,128 20.554,151.805 31.998,187.381 66.521,228.177 74.345,237.421 83.166,246.729 92.842,256 83.166,265.272 74.345,274.579 66.521,283.823 31.998,324.619 20.554,360.195 34.297,384 c 9.167,15.877 28.704,24.871 56.498,26.008 2.041,0.084 4.124,0.125 6.254,0.125 21.884,0 48.355,-4.406 77.368,-12.856 3.192,13.022 6.842,25.323 10.939,36.727 18.069,50.297 43.158,77.996 70.643,77.996 27.486,0 52.575,-27.699 70.644,-77.996 4.095,-11.399 7.744,-23.695 10.936,-36.713 25.622,7.474 49.241,11.8 69.74,12.678 2.562,0.11 5.06,0.164 7.506,0.164 31.306,-10e-4 52.969,-8.971 62.878,-26.134 13.743,-23.805 2.299,-59.381 -32.224,-100.177 -7.825,-9.243 -16.648,-18.55 -26.324,-27.822 z M 463.55,136.17 c 9.892,17.135 -1.242,46.822 -30.547,81.452 -7.661,9.054 -16.331,18.179 -25.867,27.275 -16.747,-14.933 -35.619,-29.664 -56.092,-43.772 -1.977,-24.76 -5.295,-48.45 -9.848,-70.404 61.765,-18.074 109.582,-16.672 122.354,5.449 z M 256.007,347.594 c -13.517,-6.627 -27.103,-13.866 -40.438,-21.565 -13.465,-7.774 -26.467,-15.883 -38.899,-24.225 -1.01,-14.939 -1.531,-30.254 -1.531,-45.802 0,-15.538 0.537,-30.83 1.557,-45.82 12.424,-8.337 25.418,-16.44 38.873,-24.209 13.344,-7.703 26.933,-14.945 40.446,-21.568 13.436,6.594 26.955,13.797 40.416,21.568 13.465,7.775 26.467,15.883 38.899,24.225 1.01,14.94 1.531,30.254 1.531,45.802 0,15.548 -0.522,30.863 -1.531,45.802 -12.432,8.342 -25.434,16.453 -38.899,24.225 -13.445,7.762 -26.944,14.958 -40.424,21.567 z M 159.62,289.958 C 144.246,278.891 129.931,267.503 116.943,256 c 12.994,-11.508 27.315,-22.899 42.695,-33.972 -0.543,11.189 -0.841,22.514 -0.841,33.972 0.002,11.454 0.283,22.788 0.823,33.958 z m 192.759,-67.916 c 15.374,11.067 29.689,22.455 42.677,33.958 -12.987,11.503 -27.303,22.891 -42.677,33.958 0.54,-11.169 0.822,-22.504 0.822,-33.958 0,-11.454 -0.282,-22.788 -0.822,-33.958 z M 255.999,16.34 c 19.784,0 39.927,24.487 55.264,67.18 4.012,11.167 7.581,23.244 10.692,36.058 -9.896,3.275 -20.037,6.972 -30.377,11.106 -4.19,1.675 -6.229,6.429 -4.554,10.619 1.675,4.191 6.428,6.229 10.619,4.554 9.505,-3.8 18.819,-7.207 27.892,-10.23 3.463,16.983 6.163,35.057 8.058,53.885 -9.401,-6.053 -19.078,-11.963 -28.996,-17.69 -38.66,-22.32 -77.91,-40.157 -114.532,-52.255 C 205.351,56.6 230.906,16.34 255.999,16.34 Z M 78.996,217.622 C 49.69,182.992 38.557,153.305 48.449,136.17 c 9.891,-17.133 41.168,-22.337 85.811,-14.272 13.683,2.472 28.146,6.09 43.135,10.749 0.387,0.153 0.785,0.286 1.204,0.38 18.878,5.927 38.579,13.498 58.623,22.529 -9.992,5.139 -19.975,10.578 -29.825,16.264 -9.903,5.718 -19.565,11.62 -28.953,17.663 1.062,-10.471 2.353,-20.777 3.925,-30.851 0.696,-4.459 -2.354,-8.636 -6.813,-9.331 -4.45,-0.697 -8.636,2.354 -9.331,6.813 -2.277,14.592 -4.011,29.631 -5.243,44.992 -20.485,14.113 -39.366,28.851 -56.121,43.79 C 95.326,235.8 86.657,226.674 78.996,217.622 Z M 48.449,375.83 c -9.892,-17.133 1.242,-46.821 30.547,-81.452 7.661,-9.054 16.331,-18.179 25.866,-27.275 16.748,14.933 35.619,29.664 56.093,43.772 1.978,24.773 5.299,48.473 9.854,70.436 -62.17,18.246 -109.813,16.25 -122.36,-5.481 z m 262.815,52.65 c -15.337,42.693 -35.48,67.18 -55.264,67.18 -19.784,0 -39.927,-24.487 -55.264,-67.18 -4.7,-13.079 -8.793,-27.402 -12.252,-42.702 -0.062,-0.425 -0.147,-0.85 -0.28,-1.272 -0.001,-0.003 -0.003,-0.008 -0.004,-0.012 -4.303,-19.303 -7.595,-40.141 -9.796,-62.004 9.401,6.052 19.078,11.963 28.996,17.69 9.839,5.681 19.814,11.116 29.803,16.254 -9.608,4.322 -19.189,8.335 -28.709,12.016 -4.208,1.627 -6.302,6.358 -4.674,10.567 1.252,3.241 4.344,5.227 7.622,5.227 0.978,0 1.975,-0.178 2.943,-0.551 29.822,-11.528 60.175,-26.166 90.217,-43.511 9.919,-5.727 19.594,-11.638 28.996,-17.69 -1.895,18.829 -4.596,36.902 -8.058,53.885 -9.072,-3.022 -18.387,-6.43 -27.891,-10.229 -4.189,-1.675 -8.944,0.363 -10.619,4.554 -1.675,4.19 0.364,8.944 4.554,10.619 10.34,4.134 20.48,7.831 30.376,11.106 -3.115,12.809 -6.684,24.887 -10.696,36.053 z M 463.55,375.83 c -12.771,22.121 -60.586,23.524 -122.354,5.448 4.552,-21.954 7.871,-45.642 9.848,-70.404 20.473,-14.106 39.346,-28.839 56.092,-43.772 9.536,9.097 18.205,18.222 25.867,27.275 29.306,34.632 40.44,64.319 30.547,81.453 z"
         id="path29467" />
      <path
         d="m 255.999,204.8 c -28.232,0 -51.2,22.968 -51.2,51.2 0,28.232 22.968,51.2 51.2,51.2 28.232,0 51.2,-22.968 51.2,-51.2 0,-28.232 -22.968,-51.2 -51.2,-51.2 z m 0,86.06 c -19.222,0 -34.86,-15.638 -34.86,-34.86 0,-19.222 15.638,-34.86 34.86,-34.86 19.222,0 34.86,15.638 34.86,34.86 0,19.222 -15.638,34.86 -34.86,34.86 z"
         id="path29469" />
    </g>
    <g
       aria-label="MukeWiki"
       transform="scale(1.0252126,0.97540744)"
       id="text31681"
       style="font-weight:800;font-size:80px;line-height:1.25;font-family:'Exo 2';-inkscape-font-specification:'Exo 2 Ultra-Bold';text-align:center;letter-spacing:2px;word-spacing:0px;text-anchor:middle;stroke-width:0.980739">
      <path
         d="m 205.00013,412.56505 h -13.6 c -3.2,0 -5.2,1.52 -5.76,4.72 l -5.28,24.48 c -0.48,2.72 -0.8,5.44 -1.2,8.16 h -0.88 c -0.4,-2.72 -0.72,-5.44 -1.2,-8.08 l -5.44,-24.56 c -0.56,-3.2 -2.56,-4.72 -5.68,-4.72 h -13.44 c -3.52,0 -5.2,1.84 -5.36,5.28 l -2,49.92 h 13.68 l 1.52,-43.84 h 1.28 l 7.04,30.96 c 0.64,3.12 2.64,4.64 5.84,4.64 h 8.4 c 3.2,0 5.2,-1.52 5.76,-4.64 l 7.04,-30.96 h 1.28 l 1.76,43.84 h 13.68 l -2.08,-49.92 c -0.08,-3.44 -1.84,-5.28 -5.36,-5.28 z"
         id="path1245" />
      <path
         d="m 236.60009,428.00505 h -14.56 v 29.76 c 0,7.28 3.92,11.12 11.6,11.12 5.68,0 10.8,-2.24 16.16,-6.88 l 1.28,5.76 h 11.44 v -39.76 h -14.64 v 26.72 c -3.28,1.44 -5.36,1.92 -7.6,1.92 -2.64,0 -3.76,-0.96 -3.68,-3.44 z"
         id="path1247" />
      <path
         d="m 287.24005,411.76505 h -14.56 v 56 h 14.56 v -11.84 c 0,-1.76 -0.24,-3.84 -0.56,-5.92 h 2.96 l 10,17.76 h 16.08 l -10.72,-16.96 c -1.04,-2 -3.12,-4.16 -4.16,-4.8 v -0.32 c 1.04,-0.64 3.12,-2.4 4.16,-4.32 l 9.28,-13.36 h -16 l -8.56,13.52 h -3.12 c 0.4,-2.48 0.64,-5.04 0.64,-7.52 z"
         id="path1249" />
      <path
         d="m 340.0399,426.88505 c -15.68,0 -21.6,5.6 -21.6,21.2 0,13.92 5.84,20.64 21.84,20.64 6.56,0 13.36,-0.8 18.56,-3.36 l -1.36,-8.8 c -6.16,0.64 -12.16,0.88 -15.6,0.88 -5.12,0 -7.28,-1.36 -8,-6 h 11.92 c 10.56,0 14.16,-3.28 14.08,-10.64 0,-9.12 -5.52,-13.92 -19.84,-13.92 z m 0.48,9.68 c 3.92,0 5.36,0.8 5.44,3.92 0,2.8 -0.64,3.68 -4.24,3.68 h -8.08 c 0.32,-6.48 1.92,-7.68 6.88,-7.6 z"
         id="path1251" />
      <path
         d="m 440.75981,412.56505 h -14.96 l -4.08,36.08 c -0.16,2.56 -0.4,5.68 -0.48,8.48 h -1.44 c -0.4,-2.72 -0.88,-5.84 -1.2,-8.56 l -4.88,-31.52 c -0.4,-2.64 -2.4,-4.48 -5.12,-4.48 h -11.36 c -2.72,0 -4.8,1.84 -5.12,4.48 l -4.8,31.36 c -0.32,2.72 -0.88,6 -1.28,8.72 h -1.36 c -0.08,-3.28 -0.32,-6.08 -0.48,-8.64 l -4.16,-35.92 h -14.96 l 7.92,51.12 c 0.32,2.48 2.56,4.08 5.2,4.08 h 13.28 c 2.56,0 4.88,-1.6 5.2,-4.08 l 4.8,-32.88 c 0.32,-2.56 0.56,-5.2 0.72,-7.76 h 1.44 c 0.24,2.48 0.4,5.12 0.8,7.68 l 4.88,32.96 c 0.32,2.48 2.56,4.08 5.2,4.08 h 13.2 c 2.56,0 4.8,-1.6 5.2,-4.08 z"
         id="path1253" />
      <path
         d="m 459.23979,410.08505 h -6.24 c -2.8,0 -4.24,1.44 -4.24,4.32 v 4.16 c 0,2.96 1.44,4.32 4.24,4.32 h 6.24 c 2.88,0 4.24,-1.36 4.24,-4.32 v -4.16 c 0,-2.88 -1.36,-4.32 -4.24,-4.32 z m 4.16,17.92 h -14.48 v 39.76 h 14.48 z"
         id="path1255" />
      <path
         d="m 488.43967,411.76505 h -14.56 v 56 h 14.56 v -11.84 c 0,-1.76 -0.24,-3.84 -0.56,-5.92 h 2.96 l 10,17.76 h 16.08 l -10.72,-16.96 c -1.04,-2 -3.12,-4.16 -4.16,-4.8 v -0.32 c 1.04,-0.64 3.12,-2.4 4.16,-4.32 l 9.28,-13.36 h -16 l -8.56,13.52 h -3.12 c 0.4,-2.48 0.64,-5.04 0.64,-7.52 z"
         id="path1257" />
      <path
         d="m 533.39955,410.08505 h -6.24 c -2.8,0 -4.24,1.44 -4.24,4.32 v 4.16 c 0,2.96 1.44,4.32 4.24,4.32 h 6.24 c 2.88,0 4.24,-1.36 4.24,-4.32 v -4.16 c 0,-2.88 -1.36,-4.32 -4.24,-4.32 z m 4.16,17.92 h -14.48 v 39.76 h 14.48 z"
         id="path1259" />
    </g>
  </g>
</svg>
