<?xml version="1.0" encoding="iso-8859-1"?>
<!-- https://www.svgrepo.com/svg/228617/nuclear-atom -->
<!-- Generator: Adobe Illustrator 19.0.0, SVG Export Plug-In . SVG Version: 6.00 Build 0)  -->
<svg version="1.1" id="Layer_1" xmlns="http://www.w3.org/2000/svg" xmlns:xlink="http://www.w3.org/1999/xlink" x="0px" y="0px"
     viewBox="0 0 512 512" style="enable-background:new 0 0 512 512;" xml:space="preserve">
  <circle style="fill:#FB5E52;" cx="255.999" cy="256" r="43.03"/>
  <path d="M419.155,256c9.676-9.272,18.497-18.579,26.321-27.823c34.523-40.796,45.968-76.372,32.224-100.177
           c-10.683-18.504-35.031-27.482-70.383-25.969c-20.497,0.878-44.118,5.203-69.74,12.678c-3.192-13.017-6.841-25.313-10.936-36.713
           C308.574,27.699,283.485,0,255.999,0c-18.334,0-35.891,12.422-50.772,35.925c-12.324,19.46-22.897,46.578-30.785,78.784
           c-12.874-3.746-25.353-6.737-37.278-8.89C84.574,96.319,48.04,104.195,34.297,128s-2.299,59.381,32.224,100.177
           c7.824,9.244,16.645,18.552,26.321,27.823c-9.676,9.272-18.497,18.579-26.321,27.823C31.998,324.619,20.554,360.195,34.297,384
           c9.167,15.877,28.704,24.871,56.498,26.008c2.041,0.084,4.124,0.125,6.254,0.125c21.884,0,48.355-4.406,77.368-12.856
           c3.192,13.022,6.842,25.323,10.939,36.727C203.425,484.301,228.514,512,255.999,512c27.486,0,52.575-27.699,70.644-77.996
           c4.095-11.399,7.744-23.695,10.936-36.713c25.622,7.474,49.241,11.8,69.74,12.678c2.562,0.11,5.06,0.164,7.506,0.164
           c31.306-0.001,52.969-8.971,62.878-26.134c13.743-23.805,2.299-59.381-32.224-100.177C437.654,274.579,428.831,265.272,419.155,256z
           M463.55,136.17c9.892,17.135-1.242,46.822-30.547,81.452c-7.661,9.054-16.331,18.179-25.867,27.275
           c-16.747-14.933-35.619-29.664-56.092-43.772c-1.977-24.76-5.295-48.45-9.848-70.404C402.961,112.647,450.778,114.049,463.55,136.17
           z M256.007,347.594c-13.517-6.627-27.103-13.866-40.438-21.565c-13.465-7.774-26.467-15.883-38.899-24.225
           c-1.01-14.939-1.531-30.254-1.531-45.802c0-15.538,0.537-30.83,1.557-45.82c12.424-8.337,25.418-16.44,38.873-24.209
           c13.344-7.703,26.933-14.945,40.446-21.568c13.436,6.594,26.955,13.797,40.416,21.568c13.465,7.775,26.467,15.883,38.899,24.225
           c1.01,14.94,1.531,30.254,1.531,45.802s-0.522,30.863-1.531,45.802c-12.432,8.342-25.434,16.453-38.899,24.225
           C282.986,333.789,269.487,340.985,256.007,347.594z M159.62,289.958c-15.374-11.067-29.689-22.455-42.677-33.958
           c12.994-11.508,27.315-22.899,42.695-33.972c-0.543,11.189-0.841,22.514-0.841,33.972
           C158.799,267.454,159.08,278.788,159.62,289.958z M352.379,222.042c15.374,11.067,29.689,22.455,42.677,33.958
           c-12.987,11.503-27.303,22.891-42.677,33.958c0.54-11.169,0.822-22.504,0.822-33.958S352.919,233.212,352.379,222.042z
           M255.999,16.34c19.784,0,39.927,24.487,55.264,67.18c4.012,11.167,7.581,23.244,10.692,36.058
           c-9.896,3.275-20.037,6.972-30.377,11.106c-4.19,1.675-6.229,6.429-4.554,10.619c1.675,4.191,6.428,6.229,10.619,4.554
           c9.505-3.8,18.819-7.207,27.892-10.23c3.463,16.983,6.163,35.057,8.058,53.885c-9.401-6.053-19.078-11.963-28.996-17.69
           c-38.66-22.32-77.91-40.157-114.532-52.255C205.351,56.6,230.906,16.34,255.999,16.34z M78.996,217.622
           c-29.306-34.63-40.439-64.317-30.547-81.452c9.891-17.133,41.168-22.337,85.811-14.272c13.683,2.472,28.146,6.09,43.135,10.749
           c0.387,0.153,0.785,0.286,1.204,0.38c18.878,5.927,38.579,13.498,58.623,22.529c-9.992,5.139-19.975,10.578-29.825,16.264
           c-9.903,5.718-19.565,11.62-28.953,17.663c1.062-10.471,2.353-20.777,3.925-30.851c0.696-4.459-2.354-8.636-6.813-9.331
           c-4.45-0.697-8.636,2.354-9.331,6.813c-2.277,14.592-4.011,29.631-5.243,44.992c-20.485,14.113-39.366,28.851-56.121,43.79
           C95.326,235.8,86.657,226.674,78.996,217.622z M48.449,375.83c-9.892-17.133,1.242-46.821,30.547-81.452
           c7.661-9.054,16.331-18.179,25.866-27.275c16.748,14.933,35.619,29.664,56.093,43.772c1.978,24.773,5.299,48.473,9.854,70.436
           C108.639,399.557,60.996,397.561,48.449,375.83z M311.264,428.48c-15.337,42.693-35.48,67.18-55.264,67.18
           s-39.927-24.487-55.264-67.18c-4.7-13.079-8.793-27.402-12.252-42.702c-0.062-0.425-0.147-0.85-0.28-1.272
           c-0.001-0.003-0.003-0.008-0.004-0.012c-4.303-19.303-7.595-40.141-9.796-62.004c9.401,6.052,19.078,11.963,28.996,17.69
           c9.839,5.681,19.814,11.116,29.803,16.254c-9.608,4.322-19.189,8.335-28.709,12.016c-4.208,1.627-6.302,6.358-4.674,10.567
           c1.252,3.241,4.344,5.227,7.622,5.227c0.978,0,1.975-0.178,2.943-0.551c29.822-11.528,60.175-26.166,90.217-43.511
           c9.919-5.727,19.594-11.638,28.996-17.69c-1.895,18.829-4.596,36.902-8.058,53.885c-9.072-3.022-18.387-6.43-27.891-10.229
           c-4.189-1.675-8.944,0.363-10.619,4.554c-1.675,4.19,0.364,8.944,4.554,10.619c10.34,4.134,20.48,7.831,30.376,11.106
           C318.845,405.236,315.276,417.314,311.264,428.48z M463.55,375.83c-12.771,22.121-60.586,23.524-122.354,5.448
           c4.552-21.954,7.871-45.642,9.848-70.404c20.473-14.106,39.346-28.839,56.092-43.772c9.536,9.097,18.205,18.222,25.867,27.275
           C462.309,329.009,473.443,358.696,463.55,375.83z"/>
  <path d="M255.999,204.8c-28.232,0-51.2,22.968-51.2,51.2c0,28.232,22.968,51.2,51.2,51.2s51.2-22.968,51.2-51.2
           S284.231,204.8,255.999,204.8z M255.999,290.86c-19.222,0-34.86-15.638-34.86-34.86s15.638-34.86,34.86-34.86
           s34.86,15.638,34.86,34.86S275.221,290.86,255.999,290.86z"/>
</svg>
