<?xml version="1.0" encoding="UTF-8" standalone="no"?>
<!-- Created with Inkscape (http://www.inkscape.org/) -->

<svg
   width="286pt"
   height="326pt"
   viewBox="0 0 286 326"
   version="1.1"
   id="SVGRoot"
   sodipodi:docname="SAV.UEF.Inkscape.path.svg"
   inkscape:version="1.1.2 (0a00cf5339, 2022-02-04)"
   xmlns:inkscape="http://www.inkscape.org/namespaces/inkscape"
   xmlns:sodipodi="http://sodipodi.sourceforge.net/DTD/sodipodi-0.dtd"
   xmlns="http://www.w3.org/2000/svg"
   xmlns:svg="http://www.w3.org/2000/svg">
  <sodipodi:namedview
     id="namedview1525"
     pagecolor="#ffffff"
     bordercolor="#666666"
     borderopacity="1.0"
     inkscape:pageshadow="2"
     inkscape:pageopacity="0.0"
     inkscape:pagecheckerboard="0"
     inkscape:document-units="pt"
     showgrid="true"
     inkscape:zoom="1"
     inkscape:cx="182.5"
     inkscape:cy="245"
     inkscape:window-width="1920"
     inkscape:window-height="979"
     inkscape:window-x="0"
     inkscape:window-y="0"
     inkscape:window-maximized="1"
     inkscape:current-layer="layer1">
    <inkscape:grid
       type="xygrid"
       id="grid5813" />
  </sodipodi:namedview>
  <defs
     id="defs1520" />
  <g
     inkscape:label="Layer 1"
     inkscape:groupmode="layer"
     id="layer1">
    <path
       style="fill:#000000;fill-opacity:1;fill-rule:evenodd;stroke:none"
       d="m 32.722656,158.92187 h 34.453125 l 6.003906,-6.42969 v -7.82422 h 2.605469 v 8.81641 l -7.589844,8.1875 -0.167968,-0.14062 H 32.722656 Z M 218.21094,105.95704 C 207.3125,98.164065 209.03906,77.363282 201.05469,68.71875 h -2.34766 V 50.238282 h -11.12891 v -1.527344 h 8.23829 v -8.417969 h -1.4414 v -1.53125 h 0.96093 l -5.91796,-8.957031 -5.97266,8.957031 h 2.49219 v 1.53125 h -3.05469 v 8.417969 h 0.96094 v 1.527344 h -3.48438 V 67.1875 h 15.6836 v 1.53125 h -17.97656 c -8.01172,8.644532 -6.28516,29.445315 -17.15625,37.23829 h 11.21093 v 1.53125 h -5.00781 v 72.43358 c 6.5664,-0.28125 13.41797,-0.39453 20.46484,-0.2539 0.99219,0 1.98438,0.0312 3.00391,0.0586 v -73.20313 h 1.52734 v 73.25782 c 6.625,0.19921 13.05079,0.56639 19.25,1.13281 v -73.42579 h -10.21876 v -1.53125 z M 202.69531,68.71875 c 7.78906,7.339844 6.42969,28.394535 17.15625,37.23829 h 3.0586 v 1.53125 h -8.94532 v 63.99217 l 8.89063,-12.38671 h -8.89063 v -2.60547 h 11.75 v -8.02344 h 1.52735 v 8.02344 h 1.30078 l 10.1914,28.10937 -0.14062,0.0899 c 2.69141,0.53515 5.29297,1.10156 7.78516,1.69921 1.10546,-1.95703 3.17187,-3.26171 5.57812,-3.26171 3.53906,0 6.39844,2.86328 6.39844,6.40625 0,0.0859 0,0.17187 -0.0273,0.2539 13.69922,4.64844 21.91016,10.45703 21.79688,16.69531 -0.22656,11.33594 -28.08203,20.42969 -66.16016,22.92579 v 59.17188 h -2.60547 v -59.00392 c -6.19921,0.33986 -12.625,0.53908 -19.25,0.51172 v 89.69532 h -1.52734 v -89.69532 c -1.33203,0 -2.63281,-0.0273 -3.96484,-0.0273 -6.71094,-0.11328 -13.21875,-0.42578 -19.50391,-0.90625 v 78.04688 h -2.60547 v -78.2461 c -8.63672,-0.73828 -16.76172,-1.75781 -24.23437,-3.0625 -0.56641,2.94922 -3.17188,5.21485 -6.28516,5.21485 -3.53906,0 -6.39844,-2.86328 -6.39844,-6.40235 0,-0.48437 0.0586,-0.9375 0.14453,-1.39062 -20.69531,-4.98829 -33.804683,-12.21485 -33.664058,-20.06641 0.226563,-11.75781 30.152348,-21.11328 70.437498,-23.20703 v -20.94531 h -41.73047 v -22.21875 h 1.53125 v 19.61328 h 40.19922 v -48.99999 h -9.17187 v -1.53125 h 3.93359 c 10.73047,-8.843755 9.37109,-29.898446 17.12891,-37.23829 h -5.37891 v -1.53125 h 7.8125 V 50.238282 h -3.82031 v -1.527344 h 6.33984 v -8.417969 h -2.88672 v -1.53125 h 3.14063 l 6.96484,-10.457031 v -4.703125 c -1.16015,-0.339844 -2.00781,-1.390625 -2.00781,-2.664063 0,-1.277344 0.84766,-2.351562 2.00781,-2.691406 V 9.457032 h -2.97265 V 7.929688 h 2.97265 V 4.5 h 1.53125 v 3.429688 h 2.96875 v 1.527344 h -2.96875 v 8.789062 c 1.16016,0.339844 2.03516,1.414062 2.03516,2.691406 0,1.273438 -0.875,2.324219 -2.03516,2.664063 v 4.476562 l 7.04688,10.683594 h 2.85937 v 1.53125 h -2.66015 v 8.417969 h 6.73828 v 1.527344 h -3.85157 V 67.1875 h 7.10547 v 1.53125 z M 112.5,67.101563 119.46484,69.285156 112.5,71.523438 v 7 c 1.30469,0.339844 2.26562,1.503906 2.26562,2.917968 0,1.417969 -0.96093,2.609376 -2.26562,2.949219 v 4.5625 l 7.73047,21.539055 -0.0273,0.0273 h 0.0273 v 38.39843 h -1.52735 v -31.17186 h -1.13281 v -2.15234 l -1.92578,-1.92969 -1.92578,1.92969 v 2.15234 H 112.5 v 40.07421 h -1.52734 v -40.07421 h -1.21485 v -2.21094 l -1.87109,-1.87109 -1.89453,1.92969 v 2.15234 h -1.33203 v 31.17186 h -1.52735 v -38.39838 l 7.83985,-21.792967 v -4.335938 c -1.30079,-0.339843 -2.26563,-1.53125 -2.26563,-2.949219 0,-1.414062 0.96484,-2.578124 2.26563,-2.917968 V 65.261719 H 112.5 Z m 112.19531,91.992187 -10.73047,14.96484 v 7.08594 c 1.1875,0.14062 2.40625,0.2539 3.59375,0.39453 l 7.95703,-22.44531 z m 2.40625,0 -8.01172,22.61718 c 6.33985,0.70703 12.3711,1.61328 17.97657,2.69141 l -9.17188,-25.30859 z m 30.94141,32.36328 c -0.82031,2.58203 -3.22656,4.48047 -6.08594,4.48047 -3.53906,0 -6.39844,-2.86329 -6.39844,-6.40625 0,-0.51172 0.0547,-0.99219 0.17188,-1.47266 -9.23047,-2.12891 -19.98828,-3.80078 -31.76563,-4.93359 v 44.32421 c 37.02735,-2.32421 64.03516,-10.625 64.23438,-21 0.11328,-5.55468 -7.44531,-10.76953 -20.15625,-14.99218 z m -124.05469,26.83984 c 3.28516,0 6.00391,2.49219 6.34375,5.69531 7.44531,1.24611 15.57031,2.26563 24.17578,2.94922 v -44.92186 c -39.21094,1.92968 -68.312498,10.48828 -68.511716,21.25781 -0.140626,7.14062 12.457026,13.74219 32.359376,18.36328 1.10156,-2.01172 3.19922,-3.34375 5.63281,-3.34376 z m -13.87109,-34.46094 -9.59766,-17.00389 1.33203,-0.73828 9.625,16.97656 z m 67.40625,-2.15625 c 1.01953,0.0312 2.03906,0.0312 3.05859,0.0586 v 46.33593 c -1.30469,0 -2.60547,-0.0273 -3.9375,-0.0586 -6.70703,-0.11328 -13.24609,-0.39453 -19.53124,-0.87891 v -45.23046 c 6.5664,-0.25391 13.38671,-0.33985 20.41015,-0.22657 z m 4.58593,0.11329 c 6.625,0.19921 13.07813,0.5664 19.25,1.10546 v 44.69141 c -6.19921,0.33984 -12.625,0.51172 -19.25,0.48438 z m 2.23829,-121.804688 v -7.539063 h 1.52734 v 7.539063 z m -5.69141,0 v -7.539063 h 1.52734 v 7.539063 z m -5.69141,0 v -7.539063 h 1.52735 v 7.539063 z m -71.28515,31.117187 -7.01953,19.554691 v 2.46485 h 1.33203 v 0.28515 l 1.95312,-1.95703 1.07422,1.07813 -0.0547,0.0547 0.79297,0.79688 v -0.25781 h 1.21485 v -5.35547 h 1.52734 v 5.35547 h 1.21875 v 0.3125 l 1.95312,-1.98438 1.07813,1.07813 -0.0312,0.0547 0.85156,0.85157 v -0.3125 h 1.13281 v -2.49218 z m 160.71875,138.582031 -4.19141,-3.17188 -74.11719,95.76172 -1.21484,-0.9375 74.11328,-95.76172 -3.82031,-2.89062 13.27734,-7.99219 z m -68.79297,-64.27344 v -36.10547 h 1.52734 v 36.10547 z m -24.80078,0 v -36.10547 h 1.52734 v 36.10547 z m -71.82422,-16.55078 v -19.55469 h 1.53125 v 19.55469 z m 7.78515,0 v -19.55469 h 1.52735 v 19.55469 z m -15.57031,7.625 V 136.875 h 1.53125 v 19.61328 h 5.1211 v 2.60547 H 83.597656 l 1.585938,1.92578 -2.066407,1.58984 -6.625,-8.07812 2.066407,-1.58594 2.914062,3.54297 z m -84.589842,21.28125 14.523438,-18.76172 2.066406,1.58594 -14.523437,18.76171 -2.066407,-1.58593 M 189.40972,34.881129 c 0.76562,0 1.38671,0.597656 1.38671,1.332032 0,0.765624 -0.62109,1.359375 -1.38671,1.359375 -0.76563,0 -1.41407,-0.593751 -1.41407,-1.359375 0,-0.734376 0.64844,-1.332032 1.41407,-1.332032 z m 0,-1.30078 c 1.5,0 2.74609,1.187499 2.74609,2.632812 0,1.476561 -1.24609,2.664061 -2.74609,2.664061 -1.52735,0 -2.77344,-1.1875 -2.77344,-2.664061 0,-1.445313 1.24609,-2.632812 2.77344,-2.632812 z"
       id="path1760" />
    <g
       aria-label="ÚEF"
       id="text8658"
       style="font-size:46px;line-height:1.25;font-family:'Nimbus Sans';-inkscape-font-specification:'Nimbus Sans';stroke-width:0.75">
      <path
         d="m 27.659682,223.16534 0.046,23.552 c 0,4.508 -3.266,7.268 -8.602,7.268 -5.336,0 -8.602,-2.76 -8.602,-7.268 v -23.552 H 6.2236821 v 23.552 c 0,6.716 5.0599999,11.04 12.8799999,11.04 7.82,0 12.88,-4.37 12.88,-11.04 l -0.046,-23.552 z m -7.544,-9.66 -4.416,6.808 h 2.76 l 6.854,-6.808 z"
         id="path1394" />
      <path
         d="m 43.9436,241.42734 h 18.262 v -3.772 h -18.262 v -10.718 h 18.952 v -3.772 h -23.23 v 33.534 h 24.058 v -3.772 h -19.78 z"
         id="path1396" />
      <path
         d="m 73.153523,241.42734 h 16.008 v -3.772 h -16.008 v -10.718 h 18.216 v -3.772 h -22.494 v 33.534 h 4.278 z"
         id="path1398" />
    </g>
    <g
       aria-label="SAV"
       id="text12349"
       style="font-size:46px;line-height:1.25;font-family:'Nimbus Sans';-inkscape-font-specification:'Nimbus Sans';stroke-width:0.75">
      <path
         d="m 90.241363,283.44354 c 0,-2.3 -0.138,-2.944 -0.874,-4.508 -1.84,-3.864 -5.75,-5.888 -11.408,-5.888 -7.36,0 -11.914,3.772 -11.914,9.844 0,4.094 2.162,6.67 6.578,7.82 l 8.326,2.208 c 4.278,1.104 6.164,2.806 6.164,5.428 0,1.794 -0.966,3.634 -2.392,4.646 -1.334,0.966 -3.45,1.426 -6.164,1.426 -3.68,0 -6.118,-0.874 -7.728,-2.806 -1.242,-1.472 -1.794,-3.082 -1.748,-5.152 h -4.048 c 0.046,3.082 0.644,5.106 1.978,6.946 2.3,3.174 6.164,4.784 11.27,4.784 4.002,0 7.268,-0.92 9.43,-2.576 2.254,-1.794 3.68,-4.784 3.68,-7.682 0,-4.14 -2.576,-7.176 -7.13,-8.418 l -8.418,-2.254 c -4.048,-1.104 -5.52,-2.392 -5.52,-4.968 0,-3.404 2.99,-5.658 7.498,-5.658 5.336,0 8.326,2.392 8.372,6.808 z"
         id="path1419" />
      <path
         d="m 114.2993,297.05954 3.45,10.074 h 4.784 l -11.776,-33.534 h -5.52 l -11.960004,33.534 h 4.554 l 3.542004,-10.074 z m -1.196,-3.588 h -10.672 l 5.52,-15.272 z"
         id="path1421" />
      <path
         d="m 137.94324,307.13354 11.638,-33.534 h -4.554 l -9.292,28.382 -9.844,-28.382 h -4.6 l 12.052,33.534 z"
         id="path1423" />
    </g>
  </g>
</svg>
