<?xml version="1.0" encoding="UTF-8" standalone="no"?>
<!-- Created with Inkscape (http://www.inkscape.org/) -->

<svg
   width="800"
   height="800"
   viewBox="0 0 800 800"
   version="1.1"
   id="svg1091"
   inkscape:version="1.2.2 (b0a8486541, 2022-12-01)"
   sodipodi:docname="UEF.SAV.blue.Inkscape.svg"
   xmlns:inkscape="http://www.inkscape.org/namespaces/inkscape"
   xmlns:sodipodi="http://sodipodi.sourceforge.net/DTD/sodipodi-0.dtd"
   xmlns="http://www.w3.org/2000/svg"
   xmlns:svg="http://www.w3.org/2000/svg">
  <sodipodi:namedview
     id="namedview1093"
     pagecolor="#ffffff"
     bordercolor="#000000"
     borderopacity="0.25"
     inkscape:showpageshadow="2"
     inkscape:pageopacity="0.0"
     inkscape:pagecheckerboard="0"
     inkscape:deskcolor="#d1d1d1"
     inkscape:document-units="px"
     showgrid="false"
     inkscape:zoom="0.75"
     inkscape:cx="376"
     inkscape:cy="456"
     inkscape:window-width="1920"
     inkscape:window-height="979"
     inkscape:window-x="0"
     inkscape:window-y="0"
     inkscape:window-maximized="1"
     inkscape:current-layer="layer1" />
  <defs
     id="defs1088" />
  <g
     inkscape:label="Layer 1"
     inkscape:groupmode="layer"
     id="layer1">
    <path
       style="fill:#204090;stroke-width:0;stroke:none;stroke-dasharray:none;fill-opacity:1"
       d="m 413.83959,799.57532 c -0.91986,-0.21278 -2.84338,-1.00225 -4.27446,-1.75423 -7.26399,-3.8166 -11.24761,-11.81703 -11.79054,-23.67924 -0.3205,-7.00252 0.46621,-11.55334 2.84039,-16.43097 3.73784,-7.67925 10.35104,-11.83941 20.13968,-12.66932 5.52895,-0.46877 13.49749,1.05978 13.49749,2.58917 0,0.31672 -0.33336,1.29963 -0.74109,2.18351 -0.40766,0.88376 -0.7606,1.65226 -0.78441,1.7077 -0.0227,0.0552 -1.19266,-0.3069 -2.59759,-0.80527 -1.89657,-0.67275 -3.60836,-0.91309 -6.64702,-0.93331 -10.88187,-0.0726 -17.89225,5.43458 -19.84593,15.58995 -0.47131,2.44993 -0.48487,9.89454 -0.0227,11.06234 0.28082,0.70639 0.39289,0.63704 0.89386,-0.55536 1.42757,-3.39742 6.15232,-6.69272 11.31708,-7.89313 9.60715,-2.23291 18.76548,1.31882 22.22537,8.61936 1.01208,2.13559 1.14698,2.94293 1.15034,6.88585 0.004,4.18723 -0.0839,4.64259 -1.40054,7.28013 -2.14859,4.30477 -6.02344,7.32015 -11.07187,8.61608 -2.81998,0.72389 -10.11303,0.82957 -12.89061,0.18671 z m 12.32414,-5.04185 c 6.80814,-2.51286 9.72775,-9.73138 6.50487,-16.08273 -2.30033,-4.53324 -6.80897,-6.68413 -13.30644,-6.34798 -8.26503,0.42765 -14.13245,6.05617 -13.41876,12.87243 0.53276,5.08891 4.63578,9.21007 10.36298,10.40898 2.5449,0.53276 7.19675,0.13115 9.85735,-0.8507 z m -70.53365,3.84344 c -4.46385,-0.72109 -10.55475,-2.95068 -10.55475,-3.86366 0,-0.20674 0.51406,-1.2155 1.14237,-2.24096 l 1.1424,-1.86436 2.41175,1.22604 c 2.97003,1.50984 8.85638,2.61592 12.10489,2.27448 8.94841,-0.94046 14.56691,-6.17499 16.77514,-15.62888 0.71463,-3.05942 1.38822,-8.80925 1.032,-8.80925 -0.0695,0 -0.94712,0.87783 -1.95035,1.95073 -5.17112,5.53032 -15.36904,6.89783 -23.39589,3.13746 -3.59634,-1.68491 -5.8421,-3.72042 -7.5693,-6.86083 -1.42874,-2.59778 -1.47753,-2.84099 -1.47557,-7.3581 0.002,-4.13639 0.12964,-4.93912 1.11587,-7.00732 2.05436,-4.30817 5.03739,-6.88963 9.7821,-8.46531 3.27296,-1.08688 9.86291,-1.19687 13.63801,-0.22753 11.31312,2.90479 16.89983,13.20216 15.33355,28.26267 -1.6823,16.17642 -9.81445,25.05424 -23.49831,25.65291 -2.13392,0.0934 -4.84921,0.0151 -6.03391,-0.17801 z m 16.42999,-27.74779 c 5.29584,-2.6914 7.75858,-8.32524 5.93957,-13.58782 -2.44369,-7.06991 -13.06368,-10.85277 -20.67062,-7.36294 -2.23638,1.02596 -4.619,3.13618 -5.56407,4.92794 -1.66307,3.15315 -1.66942,7.88247 -0.0151,11.0366 1.07554,2.05025 4.4657,4.62407 7.28463,5.53036 3.90595,1.25586 9.98313,1.00195 13.02543,-0.54414 z m 85.54148,24.35521 c -0.78214,-0.19729 -1.50845,-0.44432 -1.61409,-0.54841 -0.10545,-0.10394 0.1115,-1.19633 0.48201,-2.42699 0.59984,-1.99128 0.77756,-2.20626 1.61404,-1.95273 2.3607,0.71547 7.1861,0.7338 10.35293,0.0389 8.10765,-1.77815 13.41899,-6.7107 14.987,-13.91826 0.78149,-3.59218 -0.22564,-15.20596 -1.31807,-15.199 -0.1372,0 -0.60794,0.86158 -1.04644,1.9127 -2.48738,5.96255 -9.86824,9.95434 -18.4359,9.97067 -10.36022,0.0189 -16.90867,-6.45646 -16.86626,-16.68016 0.0113,-2.9384 0.19011,-3.66093 1.59024,-6.45355 1.82214,-3.63435 3.82987,-5.52801 8.08739,-7.62769 3.55805,-1.75472 7.99533,-2.53776 12.73074,-2.24655 11.08234,0.6816 18.7513,10.19067 20.80313,25.79456 1.85398,14.09882 -4.04908,24.457 -16.12521,28.29503 -2.76272,0.87814 -4.54605,1.13651 -8.64986,1.25318 -2.84338,0.0809 -5.80959,-0.0151 -6.59165,-0.21203 z m 12.90168,-28.02891 c 8.36119,-3.1307 11.19429,-12.29122 5.76303,-18.63417 -3.79975,-4.4374 -13.19018,-5.22452 -19.28679,-1.61655 -5.69835,3.37229 -7.43697,9.50601 -4.3737,15.43046 1.32438,2.56139 3.98899,4.76905 6.79026,5.62575 2.1919,0.67038 8.36032,0.223 11.1072,-0.80549 z m -150.73774,25.38494 c -1.00698,-0.22639 -1.83091,-0.65287 -1.83091,-0.94772 0,-0.29442 2.23589,-11.11294 4.96868,-24.04041 2.73279,-12.9275 4.81678,-23.63328 4.63117,-23.7907 -0.18558,-0.1576 -3.01879,-0.82567 -6.2959,-1.48497 l -5.95832,-1.19883 0.27326,-1.52326 c 0.43627,-2.43285 0.68001,-3.00961 1.27181,-3.00961 0.7248,0 17.18136,3.38616 17.37257,3.57461 0.0805,0.0794 -2.35038,11.9684 -5.40178,26.42015 -6.16324,29.18945 -5.34368,26.82974 -9.03043,26.00074 z m -66.64923,-44.39548 c -2.56657,-0.69936 -4.11062,-2.83642 -4.11062,-5.6894 0,-5.80275 7.34835,-7.859 10.65385,-2.98122 2.34505,3.46043 0.008,8.25967 -4.25393,8.7382 -0.7951,0.0892 -1.82533,0.059 -2.2893,-0.0673 z m 288.96845,-0.53953 c -2.77889,-1.67032 -3.66814,-4.46744 -2.35245,-7.3996 0.99572,-2.21892 2.64193,-3.23626 5.23703,-3.23626 3.52259,0 5.73736,2.23949 5.74186,5.806 0.004,3.05492 -2.63747,5.65735 -5.74186,5.65735 -0.82934,0 -2.12731,-0.37228 -2.88458,-0.82749 z m -350.48323,-6.13319 -2.0456,-1.39608 9.34568,-13.55071 c 10.38785,-15.06172 11.89951,-17.67096 12.6564,-21.84598 1.06908,-5.89731 -1.65396,-11.17002 -7.88811,-15.27391 -7.34336,-4.83398 -14.62258,-4.27392 -20.49922,1.57713 -1.35704,1.35114 -5.55038,6.94764 -9.31861,12.43669 -3.76819,5.48912 -8.08808,11.74277 -9.5997,13.89706 l -2.7484,3.91695 -2.33866,-1.53071 -2.33862,-1.53074 3.14857,-4.50962 c 1.73171,-2.48032 6.199,-8.94048 9.92731,-14.35583 7.62675,-11.07806 10.69055,-14.36557 15.61494,-16.75537 2.8303,-1.37363 3.12998,-1.4273 7.90515,-1.41505 4.39257,0.0113 5.27425,0.14249 7.66711,1.14266 8.70611,3.63833 14.87687,10.44209 16.06462,17.71258 0.72031,4.40919 -0.53268,10.15782 -3.15394,14.46989 -2.71733,4.47008 -19.49057,28.4504 -19.88603,28.43063 -0.25663,-0.0151 -1.3878,-0.6517 -2.51289,-1.41959 z m -31.70473,-4.27397 c -2.13755,-1.44366 -2.55954,-1.89388 -1.9386,-2.06842 0.4365,-0.12246 3.94118,-0.35414 7.78818,-0.51386 l 6.99454,-0.29065 2.24803,1.42209 2.24803,1.42208 -6.87315,0.94269 c -3.78021,0.51852 -7.06697,0.9402 -7.30394,0.93714 -0.23698,-0.004 -1.66031,-0.83604 -3.16309,-1.85095 z m 460.22851,-3.3945 c -1.51442,-1.49296 -1.47519,-4.13742 0.0824,-5.56052 2.53361,-2.31466 6.61463,-0.72182 6.61463,2.58176 0,3.41053 -4.31305,5.3289 -6.69714,2.97876 z m -18.42025,-28.96832 -11.49321,-16.84536 2.19844,-1.45946 c 1.83076,-1.21542 2.28982,-1.36343 2.74548,-0.88524 0.30123,0.31634 5.51404,7.86746 11.58464,16.78144 l 11.03747,16.20719 -2.10523,1.52342 c -1.15786,0.83792 -2.18831,1.52349 -2.28983,1.52349 -0.10129,0 -5.3565,-7.58045 -11.67776,-16.84548 z m -28.04883,-1.44865 c -1.56049,-1.82816 -1.50664,-3.89386 0.144,-5.52099 2.6756,-2.63765 6.92602,-0.80141 6.92602,2.99207 0,2.46999 -1.43656,3.83558 -4.0348,3.83558 -1.61503,0 -2.09703,-0.20712 -3.03518,-1.30666 z m -190.66994,-2.95408 c -69.00139,-4.124 -132.21631,-29.68367 -184.48894,-74.59426 -6.79067,-5.83431 -21.68773,-20.5197 -27.60609,-27.21393 -6.01372,-6.80209 -13.80987,-16.4501 -18.44244,-22.82321 -5.34591,-7.35455 -10.71379,-15.47215 -10.71379,-16.20194 0,-1.29528 0.89276,-2.27195 2.07681,-2.27195 0.65167,0 3.88797,1.06938 7.19177,2.37646 22.05812,8.72644 48.31874,15.32614 78.34619,19.68957 4.94601,0.71875 9.14714,1.4008 9.33581,1.51578 0.1886,0.11489 1.04845,2.29568 1.91048,4.84596 7.40618,21.91064 26.54548,36.92278 49.80282,39.06343 24.92402,2.2941 49.04286,-12.44092 58.33657,-35.63978 0.88891,-2.21893 1.7929,-4.25322 2.00878,-4.52059 0.21808,-0.26948 2.35094,-0.61251 4.79324,-0.77015 2.42037,-0.15647 8.08407,-0.56153 12.58602,-0.90066 126.24201,-9.5099 244.32693,-49.70765 296.7858,-101.0301 14.61438,-14.29777 23.21122,-28.34476 26.38799,-43.11728 1.07006,-4.9762 1.05823,-14.59038 -0.0265,-19.53555 -3.87538,-17.70679 -17.26682,-33.56944 -39.46403,-46.74671 -6.14109,-3.64563 -18.36246,-9.73654 -19.53627,-9.73654 -0.38461,0 -1.10555,0.80479 -1.61692,1.80492 -4.64406,9.08292 -14.56933,16.67524 -25.23214,19.30122 -4.07455,1.00346 -14.30264,1.00346 -18.37724,0 -11.53655,-2.84119 -20.95435,-10.46526 -26.10928,-21.13655 -7.64837,-15.83287 -3.20467,-35.21225 10.58188,-46.14876 10.44295,-8.28409 24.09756,-10.82051 36.7786,-6.83184 8.73778,2.74838 16.91611,9.16825 21.54528,16.91273 3.56413,5.96266 5.24058,12.15101 5.33949,19.70955 0.0522,3.97057 0.2022,5.12831 0.69959,5.38545 0.34847,0.18013 4.80144,2.31286 9.89571,4.73933 14.36664,6.84302 24.71616,13.05011 34.04449,20.418 5.91107,4.6688 13.73379,12.70842 17.14663,17.62211 3.46435,4.98792 6.72227,11.69923 7.89551,16.26475 1.03241,4.01764 0.97304,8.25408 -0.28196,20.1212 -7.1862,67.94134 -37.18217,130.71644 -85.71094,179.37451 -15.98707,16.02955 -31.04188,28.35108 -48.98243,40.08931 -44.01186,28.79612 -91.9886,45.11439 -145.76071,49.57722 -7.46264,0.61938 -33.31768,0.87598 -41.14195,0.4083 z m -246.85173,-3.43253 c -4.833,-0.7818 -11.25392,-4.99552 -15.31325,-10.04935 -2.28817,-2.84867 -5.79625,-9.49539 -5.79625,-10.98192 0,-0.82529 0.40316,-1.204 1.9996,-1.87861 1.09977,-0.46469 2.05266,-0.79242 2.11752,-0.72813 0.065,0.0646 0.60642,1.39661 1.20347,2.96077 1.36676,3.58069 3.42108,6.76143 6.13437,9.498 7.1,7.16077 14.33031,8.15244 18.87591,2.58882 1.19131,-1.4581 1.33338,-1.93319 1.33338,-4.4592 0,-3.30206 -0.69014,-4.80994 -6.06614,-13.25451 -4.81021,-7.55573 -5.96584,-10.38149 -5.98285,-14.62915 -0.0151,-4.06235 0.73278,-5.85272 3.66127,-8.75139 4.91237,-4.86236 12.80372,-5.01381 20.01204,-0.38411 3.41076,2.19057 8.54922,7.43044 10.68397,10.89475 1.89128,3.06917 3.52986,7.22616 3.93581,9.98507 l 0.29103,1.97646 -2.20218,0.72106 c -1.21115,0.39655 -2.24323,0.65382 -2.29342,0.57162 -0.0503,-0.0824 -0.42561,-1.48721 -0.8341,-3.12227 -1.2759,-5.10679 -3.5014,-8.89527 -7.62509,-12.98023 -4.26992,-4.22986 -7.42201,-5.99055 -11.20804,-6.26056 -5.28945,-0.3772 -9.62321,4.01 -8.86765,8.97691 0.37418,2.46055 1.71081,5.14659 5.63532,11.32566 5.05913,7.96551 6.35399,10.89143 6.5887,14.88855 0.16252,2.76733 0.0438,3.61822 -0.72276,5.17912 -1.4852,3.02453 -3.72737,5.26591 -6.63935,6.63724 -3.09585,1.45784 -5.58943,1.81436 -8.92112,1.2754 z m 524.83638,-17.4479 c -0.97281,-2.40597 -4.77729,-11.70145 -8.45431,-20.65663 l -6.68554,-16.28221 1.78262,-1.90644 c 1.31611,-1.40749 2.03176,-1.85952 2.7346,-1.72709 0.52354,0.0987 10.18096,3.50068 21.46081,7.56 l 20.50886,7.38059 -2.05282,2.02284 -2.05292,2.02288 -17.87842,-6.52089 c -9.83313,-3.58636 -17.93508,-6.47419 -18.00436,-6.41723 -0.0692,0.0571 3.10651,7.98305 7.05725,17.61336 l 7.18311,17.50973 -1.91501,1.88784 -1.91501,1.88779 z M 88.515395,651.56387 c -7.336973,-8.98908 -13.58752,-16.68756 -13.890147,-17.10777 -0.48393,-0.67204 -0.319748,-0.9501 1.362029,-2.30865 l 1.912253,-1.54473 5.63214,6.94775 c 3.097665,3.82118 5.877357,7.14819 6.177073,7.39325 0.408568,0.33449 5.41478,-3.41284 20.004557,-14.97271 l 19.45962,-15.41844 1.39896,1.75865 c 0.76943,0.96722 1.57099,1.98199 1.78133,2.25498 0.26456,0.34394 -5.35839,5.03422 -18.27376,15.2433 -10.26086,8.11068 -19.025848,15.08924 -19.477728,15.50782 -0.80145,0.74234 -0.677292,0.93853 5.06196,7.9988 3.235998,3.98079 5.883598,7.38539 5.883598,7.56579 -4e-5,0.29632 -2.13752,2.11707 -3.24609,2.76507 -0.24529,0.14324 -6.44886,-7.09403 -13.785795,-16.08311 z m 538.327785,14.36886 c -1.62482,-1.60169 -1.802,-4.03018 -0.42036,-5.76174 0.74483,-0.93347 1.23859,-1.119 2.97736,-1.119 1.79876,0 2.23733,0.17915 3.19979,1.30666 2.28091,2.67216 0.89386,6.16297 -2.6341,6.62944 -1.60407,0.21203 -1.95859,0.0922 -3.12269,-1.05536 z m 82.41108,-69.86508 -12.99168,-17.91837 1.09161,-1.91104 c 0.60037,-1.05113 1.30923,-2.14288 1.57527,-2.42608 0.37757,-0.40192 5.16714,0 21.80863,1.82453 11.72864,1.28678 21.76865,2.43182 22.31113,2.54457 l 0.98631,0.20522 -1.10899,1.79263 c -0.60998,0.98593 -1.26237,2.04386 -1.44976,2.35083 -0.2759,0.45196 -3.92991,0.14325 -19.19876,-1.62104 -10.37189,-1.19856 -18.9323,-2.10602 -19.02304,-2.01656 -0.0907,0.0896 4.84879,7.0526 10.97681,15.47365 l 11.14182,15.31103 -1.27635,2.17923 c -0.70193,1.19861 -1.40568,2.16817 -1.56381,2.15468 -0.15837,-0.0151 -6.1338,-8.08793 -13.27919,-17.94302 z m -653.480243,8.9178 c -0.702502,-1.20847 -1.34007,-2.33677 -1.416832,-2.50742 -0.176127,-0.39182 33.969045,-48.74813 34.421983,-48.74813 0.629783,0 3.048153,4.64757 2.704404,5.19726 -0.184441,0.29443 -2.232794,3.16279 -4.552102,6.37327 -2.319308,3.21056 -4.216896,5.96773 -4.216896,6.12711 0,0.67234 15.267142,25.71845 15.799829,25.91997 0.32126,0.1217 4.012007,-0.17688 8.201277,-0.66372 4.18927,-0.48665 7.64406,-0.84272 7.67732,-0.79128 0.034,0.0518 0.67725,1.17403 1.43112,2.49464 l 1.37064,2.40106 -2.05417,0.25814 c -1.12982,0.14173 -14.17063,1.49692 -28.979577,3.01077 -14.80895,1.51389 -27.416854,2.83642 -28.017572,2.93892 -0.939364,0.16026 -1.270904,-0.12094 -2.369424,-2.01074 z m 23.06329,-5.20865 c 7.700676,-0.84926 14.053686,-1.59167 14.117825,-1.64987 0.157606,-0.14287 -12.367185,-21.10402 -13.0314,-21.80925 -0.4224,-0.4484 -2.287106,1.89914 -9.529364,11.99664 -4.952317,6.90483 -9.077521,12.77103 -9.167096,13.03598 -0.113386,0.33562 0.410986,0.40399 1.722974,0.22601 1.037216,-0.14022 8.186422,-0.95044 15.887061,-1.79973 z m 605.018633,5.7893 c -1.29302,-0.53783 -2.75199,-2.50617 -2.75199,-3.71271 0,-1.75049 1.17162,-3.42633 2.75577,-3.94175 4.15922,-1.35314 7.53906,3.82938 4.39574,6.74045 -1.11337,1.03117 -3.11716,1.44741 -4.39952,0.91401 z M 37.108926,571.74124 c -0.506759,-1.30545 -0.921411,-2.57802 -0.921411,-2.82792 0,-0.24982 8.190693,-8.5858 18.201569,-18.5243 17.949247,-17.81946 18.183616,-18.07431 16.909121,-18.37977 -0.964914,-0.23093 -47.655362,-2.15127 -50.461927,-2.075 -0.575849,0.0151 -2.553487,-4.56163 -2.14492,-4.96438 0.269102,-0.26532 47.523909,1.38108 55.77103,1.94287 l 4.025803,0.27439 1.045116,2.5358 1.045153,2.5358 -9.594032,9.56773 c -25.571347,25.50127 -32.442493,32.28848 -32.687785,32.28848 -0.146267,0 -0.680957,-1.06814 -1.187717,-2.37362 z m 313.908354,-20.2195 c -0.4046,-0.30349 -1.51513,-2.44539 -2.46792,-4.75922 -7.33096,-17.80237 -23.41588,-30.71162 -42.99191,-34.50381 -2.55353,-0.4947 -5.87263,-0.73194 -10.24018,-0.73194 -7.17789,0 -11.51581,0.65764 -17.89588,2.71291 -4.78878,1.54269 -10.75219,4.45875 -15.04219,7.35557 -7.30118,4.93009 -15.41639,14.44127 -19.18832,22.48914 -0.83876,1.78957 -1.87185,3.4368 -2.29584,3.66043 -1.40217,0.73981 -26.02089,-3.0542 -41.3132,-6.36669 -32.62266,-7.06651 -57.13389,-16.73008 -73.76952,-29.08381 -6.99973,-5.19803 -14.23375,-13.42795 -14.23375,-16.19328 0,-1.01344 5.19731,-6.31533 34.67053,-35.36815 l 34.67052,-34.17605 0.11679,-7.64909 c 0.10885,-7.09913 0.17499,-7.66008 0.92704,-7.8025 0.4455,-0.0847 0.97565,0.10432 1.17808,0.41919 0.20259,0.31484 0.37115,3.82296 0.37493,7.79554 l 0.008,7.2228 10.66821,10.51038 10.66821,10.51034 34.67412,-0.10885 34.67408,-0.10885 0.11376,-13.27148 0.11377,-13.27144 h -1.7593 c -1.57807,0 -1.74516,-0.0986 -1.62168,-0.95558 0.11074,-0.7675 0.45551,-0.98146 1.75321,-1.08733 l 1.61552,-0.1319 v -12.0779 -12.0779 h 1.94627 1.94631 l -0.11528,-10.29865 -0.11528,-10.2986 -3.58178,-0.12401 c -3.417,-0.11803 -3.57555,-0.16683 -3.44644,-1.06173 0.12548,-0.86897 0.39655,-0.94698 3.6895,-1.06125 l 3.55412,-0.12351 v -8.91174 -8.91176 l 1.01828,-0.38164 c 0.56005,-0.20992 1.15536,-0.73072 1.32295,-1.15737 0.32768,-0.83338 13.60041,-109.16336 13.59587,-110.96443 -0.002,-0.75589 -0.39432,-1.2987 -1.31032,-1.8126 -3.06562,-1.71984 -3.16162,-6.30314 -0.16857,-8.04404 l 1.48135,-0.86196 v -13.12332 -13.12331 h 1.07701 1.07702 v 13.12331 13.12332 l 1.48153,0.86171 c 3.06728,1.78404 2.89679,6.27671 -0.30878,8.14129 -1.19112,0.69278 -1.42534,1.05776 -1.29347,2.01522 0.0888,0.64308 3.13916,25.63114 6.779,55.52902 3.63987,29.8979 6.75908,54.70888 6.93158,55.13553 0.17235,0.42665 0.77182,0.94747 1.33187,1.15737 l 1.01828,0.38165 v 8.91175 8.91174 l 3.55415,0.12352 c 3.29296,0.11414 3.5641,0.19215 3.68947,1.06124 0.12888,0.8948 -0.0302,0.94366 -3.44648,1.06173 l -3.58175,0.12401 -0.11527,10.29859 -0.11528,10.29865 h 1.72415 1.72414 l 0.11415,11.9974 0.11414,11.99736 1.72327,0.21241 c 1.36419,0.16781 1.72317,0.38936 1.72317,1.06174 0,0.67245 -0.35906,0.89363 -1.72317,1.06171 l -1.72327,0.21241 -0.11414,12.43797 c -0.0745,8.09239 0.0438,12.72912 0.33826,13.2714 0.44429,0.81838 1.13114,0.8335 37.87137,0.8335 33.72368,0 37.44467,-0.0661 37.68032,-0.67181 0.144,-0.36964 0.26154,-22.35765 0.26154,-48.86266 v -48.19047 l -2.1329,-2.59857 -2.13294,-2.59858 3.79745,-3.91574 c 5.95672,-6.14235 9.60155,-12.71494 11.49286,-20.72459 l 0.78921,-3.34229 -1.19199,-1.01074 c -0.65564,-0.55591 -1.53014,-1.01076 -1.94343,-1.01076 -2.08835,0 -2.30302,-2.54646 -0.70908,-8.4115 0.59078,-2.17377 1.74852,-5.39131 2.57287,-7.15007 1.19966,-2.55962 1.58899,-4.07225 1.95092,-7.57983 1.27223,-12.32969 6.7129,-22.56221 16.10548,-30.29058 1.89993,-1.56327 3.64887,-3.39033 3.96949,-4.14679 0.69146,-1.63142 0.22526,-3.65169 -1.1839,-5.13039 l -0.94704,-0.99372 h 2.01374 2.01373 l -0.0151,-14.33315 -0.0151,-14.33315 -1.83764,-2.23697 -1.83761,-2.23699 1.76765,-1.87118 c 2.23691,-2.36796 3.88237,-5.33883 4.72653,-8.53371 0.85719,-3.24427 0.87862,-6.14311 0.0453,-6.14311 -0.951,0 -2.40072,-2.0979 -2.40072,-3.47406 0,-1.64538 1.71734,-3.32091 3.40385,-3.32091 1.08491,0 1.53853,-0.37062 2.86522,-2.34098 1.85726,-2.75836 4.34929,-4.97675 7.20956,-6.41793 2.19946,-1.10823 2.19693,-1.08382 0.36133,-3.49362 -1.02615,-1.34692 -1.04187,-1.44633 -0.29443,-1.85857 1.34771,-0.74352 4.20133,-3.43507 5.48092,-5.16965 l 1.22177,-1.65629 v -7.33967 c 0,-6.86936 -0.0529,-7.35628 -0.82866,-7.59893 -1.4358,-0.44925 -3.3795,-2.78024 -3.84801,-4.61482 -0.90346,-3.5375 0.56394,-6.61578 3.9521,-8.29059 l 2.03089,-1.00391 -0.11452,-11.31199 -0.11452,-11.312 -5.38507,-0.21237 c -5.02606,-0.1982 -5.38507,-0.26891 -5.38507,-1.06171 0,-0.79275 0.35905,-0.86353 5.38507,-1.06171 l 5.38507,-0.21234 0.21544,-5.30858 c 0.20107,-4.95468 0.27288,-5.30857 1.07701,-5.30857 0.81026,0 0.8688,0.32277 0.98219,5.41474 l 0.12056,5.41475 h 5.40212 c 5.35586,0 5.40102,0.009 5.26455,0.95554 -0.13304,0.92392 -0.31257,0.95949 -5.41505,1.07478 l -5.27736,0.11929 v 11.66579 c 0,10.82609 0.0541,11.66599 0.75391,11.66859 1.2178,0.005 3.21294,1.52647 4.28084,3.26557 1.92102,3.12822 0.99338,7.33156 -2.07983,9.42415 l -1.62981,1.10977 -0.0151,7.3751 -0.0151,7.37512 1.51389,2.03304 c 0.83267,1.11817 2.46837,2.7506 3.63496,3.6276 l 2.12111,1.59457 -1.48788,1.78994 -1.48789,1.78994 2.33049,1.16238 c 2.70985,1.35158 5.92891,4.33207 7.4617,6.90867 0.88093,1.48085 1.30345,1.80491 2.35351,1.80491 1.80152,0 2.78363,0.6275 3.30943,2.11447 0.62072,1.75515 -0.11376,3.68233 -1.71469,4.49836 -1.20975,0.61669 -1.24785,0.72665 -0.98846,2.85373 0.62264,5.10644 2.00009,8.23494 5.14288,11.68083 l 2.01611,2.21056 -1.76322,2.07608 -1.76327,2.07609 v 14.46214 14.46213 l 1.76587,0.13058 1.76595,0.13059 -0.93029,1.16128 c -2.18529,2.72791 -1.4606,5.57822 2.06748,8.13123 2.72481,1.97179 7.28466,6.74495 9.45093,9.89306 4.16867,6.05814 5.30571,13.20944 7.45913,19.9818 1.08726,3.41932 0.49996,5.051 2.74957,10.40275 0.85637,2.03723 1.97333,5.51224 2.48217,7.72223 1.08918,4.73038 0.82511,5.90946 -1.42273,6.35264 -2.9229,0.57627 -3.18206,1.87441 -1.50709,7.54856 2.15328,7.29446 5.8893,13.59645 11.26198,18.99679 1.75929,1.7684 3.19877,3.28942 3.19877,3.38004 0,0.0906 -0.9693,1.36561 -2.15403,2.83332 l -2.15403,2.66855 v 47.85101 c 0,32.17278 0.14627,48.12016 0.44598,48.67247 0.42913,0.79056 1.07702,0.82148 17.2322,0.82148 h 16.78628 v -6.54789 c 0,-3.60136 0.11755,-6.85017 0.26155,-7.21965 0.33826,-0.86892 1.72365,-0.86892 2.06184,0 0.144,0.36964 0.26155,3.85497 0.26155,7.74558 v 7.07391 l 24.98676,24.64514 c 25.48114,25.13281 25.79359,25.47879 24.63501,27.27697 -0.7649,1.18727 -19.52822,9.12545 -33.89735,14.34105 -14.7566,5.35619 -35.87494,11.6606 -53.37137,15.93283 -7.26701,1.77437 -9.194,2.10924 -10.01526,1.74036 l -1.01684,-0.45672 -0.10885,-91.63555 -0.10885,-91.63549 -9.19355,-0.21237 c -9.02027,-0.20832 -9.20913,-0.23127 -10.01625,-1.21493 -1.05369,-1.28414 -1.05369,-3.50567 0,-4.7898 0.80149,-0.97683 1.02274,-1.006 8.60935,-1.1355 l 7.7867,-0.13289 -1.32098,-2.20287 c -4.32306,-7.20966 -7.2816,-16.13257 -7.2816,-21.96119 0,-3.09091 1.03721,-6.53404 2.54929,-8.46259 0.80209,-1.02298 0.80141,-1.07811 -0.0393,-3.18514 -0.47047,-1.17927 -1.40504,-3.19524 -2.07689,-4.47991 -1.04031,-1.98939 -1.25578,-2.99705 -1.453,-6.79497 -0.27628,-5.32307 -1.05649,-8.39711 -3.28747,-12.95293 -2.12973,-4.34905 -4.86388,-7.65164 -9.58776,-11.58103 -2.07409,-1.72526 -4.27347,-3.98193 -4.8875,-5.01482 -0.97356,-1.63768 -1.30412,-1.87798 -2.58334,-1.87798 h -1.46687 v -22.73762 c 0,-21.45618 -0.0457,-22.82641 -0.81408,-24.31327 -1.37692,-2.66499 -2.21956,-6.05415 -2.63233,-10.5873 -0.21732,-2.38706 -0.67665,-4.87148 -1.02073,-5.52092 -0.90153,-1.70157 -2.79878,-3.2854 -4.88864,-4.08096 -1.72784,-0.65775 -1.91731,-0.649 -3.87726,0.17911 -3.95124,1.66955 -5.049,3.51121 -5.4361,9.11995 -0.26948,3.90666 -1.44261,8.45234 -2.91969,11.31481 -0.7666,1.48556 -0.81305,2.86356 -0.81305,24.10093 v 22.52528 h -1.2825 c -0.93117,0 -1.48664,0.3199 -2.02787,1.16788 -1.37881,2.16039 -2.68494,3.53216 -5.61846,5.90105 -8.00244,6.46199 -12.22954,14.64116 -12.88975,24.94057 -0.23508,3.66936 -0.47943,4.70661 -1.66246,7.06159 -2.5206,5.01762 -2.59718,5.55883 -1.11303,7.86587 1.58585,2.46511 2.3774,6.0003 2.04034,9.11277 -0.58262,5.38035 -3.46163,13.56579 -6.77534,19.26315 -0.92893,1.59716 -1.68899,2.98269 -1.68899,3.07897 0,0.0963 5.24923,0.17506 11.66491,0.17506 h 11.66487 l 1.2593,1.2414 c 1.63405,1.61082 1.63405,3.12605 0,4.73687 l -1.2593,1.2414 h -13.17268 -13.17275 v 99.08301 c 0,81.30198 -0.10167,99.22027 -0.56753,99.84809 -0.48341,0.65174 -2.19247,0.91211 -11.52405,1.75585 -6.02612,0.54494 -15.90003,1.28618 -21.94206,1.64731 -6.04207,0.36132 -12.63337,0.76373 -14.64737,0.89484 -2.65799,0.17273 -3.86351,0.0869 -4.39745,-0.3137 z m 104.54015,-12.84884 -1.0574,-1.04247 v -93.20315 c 0,-51.26167 0.12057,-93.51248 0.26759,-93.89059 0.42349,-1.08792 2.64242,-2.02047 4.07135,-1.71109 2.76,0.59759 2.5539,-7.11325 2.5539,95.56812 v 93.4747 l -0.99704,0.92342 c -1.36717,1.26618 -3.48609,1.21406 -4.83844,-0.11868 z m 299.46333,-21.05795 c -12.30255,-10.01488 -22.64266,-18.47937 -22.97802,-18.81 -0.52588,-0.51836 -0.50872,-0.95618 0.12397,-3.18028 0.62441,-2.19376 0.90368,-2.61241 1.8686,-2.80173 3.79616,-0.74468 57.92098,-8.32487 58.11014,-8.13827 0.28006,0.27553 -1.02758,4.94774 -1.4987,5.35465 -0.18368,0.15874 -11.67481,1.8774 -25.536,3.81951 -13.86116,1.94211 -25.34481,3.64914 -25.51919,3.79333 -0.17424,0.144 8.71,7.58778 19.74323,16.54141 18.83287,15.28316 20.0436,16.34771 19.78716,17.39683 -0.78357,3.20595 -1.14913,4.2994 -1.4267,4.26807 -0.16856,-0.0189 -10.37227,-8.22856 -22.67479,-18.24352 z m -33.28438,14.56214 c -3.69324,-2.51342 -10.90689,-8.36243 -10.90689,-8.84368 0,-0.2793 0.2521,-1.09935 0.56047,-1.82207 l 0.56046,-1.31392 4.78084,3.23056 c 4.64459,3.13848 4.80942,3.2109 5.78212,2.53927 2.4751,-1.70902 6.40996,0.18066 6.40996,3.07817 0,3.9753 -3.62574,5.55515 -7.18696,3.13167 z M 4.619567,463.15613 C 3.0478121,453.077 1.8213928,444.77175 1.8941865,444.70001 c 0.072945,-0.0718 1.1633012,-0.17461 2.4233205,-0.22866 l 2.2909237,-0.0983 2.4038937,15.15138 c 1.3221166,8.33329 2.5046186,15.24877 2.6277176,15.36783 0.220724,0.21354 18.908265,-2.5225 19.200914,-2.81103 0.08277,-0.0816 -0.812675,-6.22367 -1.990225,-13.64875 -1.177512,-7.42499 -2.140914,-13.64708 -2.140914,-13.8268 0,-0.31219 4.331227,-0.98838 4.604903,-0.71852 0.07257,0.0714 1.095118,6.20753 2.272026,13.63537 1.176907,7.42787 2.230829,13.59492 2.342023,13.70453 0.239622,0.23622 19.638507,-2.71128 19.965701,-3.03379 0.123591,-0.12208 -0.888492,-7.30999 -2.249273,-15.97342 -1.360782,-8.66344 -2.364889,-15.85947 -2.231321,-15.99112 0.277796,-0.27401 4.239574,-1.04953 4.425451,-0.86626 0.06728,0.0661 1.453985,8.57597 3.081261,18.91011 2.913941,18.50533 2.945198,18.79235 2.067667,18.98866 -0.490054,0.10998 -12.231954,1.91467 -26.09315,4.01121 -13.861157,2.09655 -25.7006451,3.90123 -26.3099429,4.01046 l -1.1078177,0.19843 z m 734.894583,5.74273 c 0.46091,-3.9566 -0.13342,-3.51851 8.2351,-6.0714 l 7.65763,-2.33605 1.76149,-14.85404 c 1.00758,-8.49668 1.60429,-15.06029 1.39427,-15.33585 -0.20183,-0.26495 -3.29163,-2.17603 -6.86586,-4.24687 l -6.4986,-3.76509 0.21582,-2.67806 c 0.11867,-1.47292 0.31748,-2.77879 0.44269,-2.90189 0.22186,-0.21845 49.91775,29.19955 51.07047,30.23185 0.45094,0.40388 0.49965,1.12891 0.21543,3.20946 l -0.36699,2.68774 -28.21781,9.02604 c -15.51977,4.96434 -28.45641,9.03179 -28.74804,9.03875 -0.37924,0.008 -0.46333,-0.56179 -0.29518,-2.00459 z m 42.07353,-16.54882 c 5.15252,-1.5843 9.36854,-2.97611 9.36892,-3.09294 0,-0.47108 -27.29523,-16.14992 -27.57336,-15.8377 -0.26948,0.30199 -3.04691,23.1184 -3.02147,24.8207 0.008,0.59747 0.88955,0.42622 5.93401,-1.15404 3.25799,-1.02055 10.13934,-3.15183 15.2919,-4.73602 z m -354.89418,6.05719 -1.05747,-1.04243 v -34.99863 c 0,-34.76411 0.008,-35.00611 0.89288,-36.11759 1.17399,-1.4713 4.13703,-1.59496 5.39474,-0.22488 0.79068,0.86116 0.82511,2.15327 0.94179,35.35514 0.0665,18.95362 0.0151,34.89609 -0.11868,35.42757 -0.65957,2.65822 -4.06677,3.55941 -6.05329,1.60112 z m 49.11185,0 -1.0574,-1.04243 v -35.26826 c 0,-34.70197 0.0151,-35.28186 0.86158,-36.11759 0.57437,-0.56622 1.43599,-0.84942 2.58482,-0.84942 1.14882,0 2.01044,0.28309 2.58486,0.84942 0.84778,0.83576 0.86162,1.41562 0.86162,36.23661 v 35.38723 l -0.99712,0.92342 c -1.36717,1.26618 -3.48609,1.21406 -4.83836,-0.11868 z M 40.962459,418.68075 c -7.680797,-5.58599 -14.175199,-10.03495 -14.43198,-9.88656 -0.25663,0.14815 -6.218384,4.44 -13.248005,9.53688 -7.0296214,5.09688 -12.89397623,9.2671 -13.03189123,9.2671 C 0.11262996,427.59817 0,426.20322 0,424.49824 v -3.09989 l 11.202713,-8.19206 c 6.161501,-4.50557 11.112873,-8.33533 11.003002,-8.51051 -0.109984,-0.17499 -5.072052,-3.81967 -11.027154,-8.09893 -5.9550631,-4.27918 -10.91641288,-8.00893 -11.02518772,-8.28832 -0.10885043,-0.27968 -0.13908666,-1.68748 -0.06765356,-3.12911 l 0.13001579,-2.62117 13.01004549,9.35471 c 7.155518,5.14507 13.208471,9.35467 13.450965,9.35467 0.322016,0 22.951832,-16.26785 27.928262,-20.07674 0.420775,-0.3224 0.536391,0.31899 0.528794,2.93114 l -0.0076,3.34333 -12.029522,8.70603 c -6.616255,4.78832 -12.028011,8.80165 -12.026121,8.9184 0.0019,0.11641 5.409942,4.0345 12.017957,8.70603 l 12.014518,8.49374 0.02268,3.29136 c 0.01134,1.81017 -0.02646,3.2834 -0.08655,3.27376 -0.05934,-0.0113 -6.392015,-4.58794 -14.072812,-10.17393 z m 715.071221,-8.2043 c -5.63331,-1.55962 -9.23468,-5.56823 -11.03989,-12.28845 -1.11557,-4.15322 -0.99693,-12.76234 0.23584,-17.1032 1.00736,-3.5471 3.71169,-8.96601 4.81319,-9.64475 0.428,-0.26363 1.32178,-0.10152 2.73132,0.49632 2.05088,0.86962 2.08048,0.90846 1.40005,1.83838 -2.44744,3.34497 -4.70117,9.3807 -5.21617,13.96969 -0.31219,2.78101 0.42297,8.77901 1.34344,10.96128 1.89792,4.4996 5.71661,7.1633 9.53064,6.64796 3.04241,-0.41114 4.98498,-1.90469 6.53507,-5.02439 1.29548,-2.60746 1.77359,-4.28346 4.10181,-14.37884 1.3589,-5.8921 2.93609,-9.33946 5.363,-11.72183 2.26976,-2.22807 4.84869,-3.11379 9.06509,-3.11336 7.52039,8.3e-4 12.60526,4.78518 14.5205,13.66259 1.36123,6.30947 0.25852,15.52782 -2.49578,20.86508 -0.8959,1.73605 -0.98755,1.74678 -4.1212,0.48366 l -1.3898,-0.56027 1.28995,-2.71737 c 4.56862,-9.62419 2.74125,-22.29937 -3.65484,-25.35172 -2.38334,-1.13736 -5.59835,-1.2163 -7.78957,-0.1914 -3.10515,1.45259 -4.70397,5.02912 -7.10454,15.89266 -2.22663,10.07622 -4.48392,14.2904 -8.73581,16.30874 -2.75044,1.30568 -6.69509,1.71311 -9.38238,0.96915 z M 28.433018,367.41922 c -14.572012,-2.21418 -26.5305921,-4.05987 -26.5746236,-4.10151 -0.1432442,-0.13542 3.2576515,-21.63702 3.7695509,-23.83243 0.8504318,-3.64748 3.3499854,-8.27852 5.7377787,-10.63064 2.938319,-2.89444 6.365898,-4.46155 10.41914,-4.76375 9.644375,-0.71903 16.977002,3.83668 19.607025,12.18177 1.256617,3.98731 1.18715,8.88542 -0.263811,18.59108 -0.671585,4.49253 -1.120555,8.26736 -0.997683,8.38849 0.122835,0.12098 3.843706,0.76318 8.268513,1.42683 4.424808,0.66365 8.163405,1.32325 8.30801,1.4658 0.144756,0.14264 0.09411,1.36465 -0.111874,2.71571 -0.257008,1.68368 -0.578268,2.47666 -1.021154,2.5205 -0.355275,0.0363 -12.568785,-1.74764 -27.140797,-3.96185 z m 6.666975,-6.17824 c 1.116473,-6.31814 2.37997,-15.71395 2.37997,-17.69853 0,-7.90092 -4.809224,-13.1846 -12.658323,-13.90715 -6.568178,-0.60463 -11.648886,2.99337 -13.998543,9.91327 -0.648492,1.90981 -2.311031,11.45263 -3.2037179,18.3889 -0.06463,0.50046 2.4921459,1.01862 12.8437459,2.60308 7.108274,1.08802 13.254657,2.00126 13.658575,2.02943 0.507742,0.0363 0.809651,-0.3747 0.978293,-1.329 z m 737.980947,-36.65512 -19.81705,-6.10477 -9.02416,2.29549 c -4.96327,1.2625 -9.14695,2.22064 -9.29707,2.12919 -0.35036,-0.2135 -1.41759,-4.88292 -1.17143,-5.12559 0.10205,-0.10072 4.20662,-1.18476 9.12103,-2.409 l 8.93526,-2.22588 14.65463,-14.75672 c 8.06007,-8.1162 14.8015,-14.66726 14.98095,-14.55793 0.17953,0.10938 0.57729,1.36477 0.88407,2.78986 l 0.55782,2.59105 -2.97339,3.04468 c -1.63533,1.67457 -7.33531,7.42087 -12.66649,12.76954 -5.33121,5.34868 -9.49927,9.78866 -9.26237,9.8666 0.48903,0.16086 32.34048,9.85269 33.4856,10.18905 0.67605,0.19858 0.99387,0.96969 1.86335,4.52045 0.15723,0.64233 0.11943,1.15007 -0.0839,1.12831 -0.20334,-0.0215 -9.28747,-2.78672 -20.18688,-6.14433 z M 39.934011,308.47558 c -14.170059,-4.50294 -25.840034,-8.26237 -25.933275,-8.3543 -0.158363,-0.15598 10.92057,-34.77012 11.243985,-35.13027 0.30085,-0.33513 4.135447,0.95207 4.330773,1.45386 0.111496,0.286 -1.933834,7.08043 -4.544808,15.09872 -2.610974,8.01829 -4.690811,14.63434 -4.621835,14.70233 0.226016,0.22288 17.704674,5.63627 18.212719,5.64079 0.272504,0.003 1.593033,-3.38776 2.934577,-7.53376 4.687901,-14.48773 6.027101,-18.58123 6.132361,-18.74479 0.219969,-0.34167 4.094931,0.9556 4.280846,1.43313 0.10696,0.27462 -1.661065,6.20835 -3.928783,13.18609 -2.267717,6.97774 -4.042584,12.89362 -3.944203,13.14641 0.269103,0.6917 18.739887,6.40049 19.168448,5.92446 0.198047,-0.2199 2.555037,-7.20946 5.237936,-15.53238 l 4.878049,-15.13256 1.97435,0.64351 c 1.085896,0.35396 2.128631,0.77978 2.317191,0.9463 0.188599,0.16653 -2.099679,7.83326 -5.085053,17.03716 -2.985375,9.20392 -5.626434,17.35549 -5.869042,18.11462 -0.242646,0.75912 -0.571502,1.35944 -0.73081,1.33403 -0.159496,-0.0253 -11.883368,-3.73041 -26.053426,-8.23335 z m 687.560449,-13.32646 -1.21346,-2.91707 7.56786,-14.916 c 4.16232,-8.2038 7.56409,-15.0604 7.55948,-15.23687 -0.008,-0.29798 -14.03354,-6.05841 -14.7441,-6.05547 -0.17612,8.6e-4 -3.11815,1.14798 -6.53745,2.54944 -3.41934,1.40147 -6.38971,2.54812 -6.60079,2.54812 -0.49531,0 -2.4508,-4.63056 -2.10112,-4.97528 0.14589,-0.14358 11.55761,-4.88716 25.35996,-10.54129 l 25.0952,-10.28023 0.79393,1.7504 c 1.73053,3.81531 3.17174,2.78908 -13.44103,9.57048 -8.20845,3.35073 -15.07461,6.225 -15.25803,6.38725 -0.18368,0.16229 1.75521,1.10302 4.30806,2.09058 2.55288,0.98758 12.23823,4.76788 21.52302,8.40067 l 16.88149,6.60509 1.12392,2.76764 c 0.61814,1.52222 1.06428,2.82646 0.99133,2.89835 -0.0729,0.0718 -7.10907,-2.52931 -15.63595,-5.78043 -8.52684,-3.25111 -15.69721,-5.91225 -15.93415,-5.91365 -0.23698,-9.6e-4 -4.40497,7.63667 -9.26234,16.97351 -4.85734,9.33684 -8.92846,16.97962 -9.04695,16.98394 -0.1183,0.005 -0.76146,-1.3048 -1.42888,-2.90918 z M 59.581438,254.82038 C 46.265856,248.11092 35.24286,242.49476 35.085896,242.34003 c -0.405241,-0.39948 9.875418,-19.96236 12.177718,-23.17275 4.461885,-6.22175 11.278605,-9.34951 17.895615,-8.21119 3.558465,0.61216 8.396526,3.00555 10.874385,5.37954 1.172939,1.12378 2.557494,3.09274 3.354068,4.76971 1.141493,2.40322 1.384403,3.48216 1.532485,6.80667 l 0.176126,3.95074 1.132309,-0.23044 c 0.622791,-0.12673 5.106522,-0.80146 9.963859,-1.49938 4.857337,-0.69792 9.469569,-1.37888 10.249399,-1.51324 l 1.41782,-0.24427 -1.3005,2.5397 c -0.71528,1.39683 -1.47451,2.6457 -1.68714,2.77525 -0.21279,0.12957 -5.112006,0.92496 -10.887504,1.76755 -6.320355,0.92208 -10.566618,1.72825 -10.666095,2.02498 -0.09109,0.27115 -1.98104,4.00344 -4.200342,8.29397 -2.219302,4.29053 -4.035138,7.96831 -4.035138,8.17285 0,0.20451 3.344164,2.01884 7.431423,4.03182 4.087258,2.01299 7.518276,3.74003 7.624443,3.83789 0.106205,0.0978 -0.378482,1.30788 -1.077014,2.68894 l -1.270073,2.51105 z m 10.927034,-10.79549 c 4.932134,-9.67633 5.476991,-11.30315 5.224632,-15.60026 -0.306142,-5.21137 -2.677759,-8.34543 -8.202372,-10.83875 -3.240341,-1.46241 -5.720619,-1.7238 -8.580248,-0.90429 -5.130068,1.47016 -7.913994,4.68336 -13.497076,15.57841 l -3.665878,7.15382 6.139202,3.16885 c 7.076941,3.65285 18.100579,9.14186 18.417228,9.17049 0.118678,0.011 1.992492,-3.46701 4.164512,-7.72827 z M 701.22469,238.5271 c -0.3326,-0.53674 -0.99254,-1.65464 -1.46635,-2.48422 l -0.86146,-1.50833 23.91799,-13.30373 c 22.60736,-12.5747 23.95133,-13.26004 24.52472,-12.50631 0.79646,1.04689 2.36103,4.03484 2.18483,4.1725 -0.076,0.0592 -10.21863,5.69939 -22.53967,12.53375 -12.32104,6.83437 -23.02141,12.79649 -23.77861,13.24917 l -1.37661,0.82305 z m -21.56822,-33.304 -13.25455,-18.02981 0.99667,-0.82968 c 0.5481,-0.45633 1.47397,-0.95767 2.05746,-1.11411 0.58352,-0.1564 13.91286,0.25485 29.62085,0.9139 15.70794,0.65907 28.66904,1.09074 28.80242,0.95927 0.13342,-0.13145 -4.42375,-6.57621 -10.12687,-14.32165 -5.70319,-7.74544 -10.3694,-14.13372 -10.3694,-14.19619 0,-0.45521 4.02599,-2.83768 4.24593,-2.51262 0.15269,0.2256 5.85112,7.9789 12.66323,17.22944 6.81215,9.25056 12.38431,16.97555 12.38272,17.16665 0,0.19109 -0.661,0.78917 -1.46532,1.32904 l -1.46238,0.98157 -29.15846,-1.20125 c -16.03711,-0.6607 -29.20971,-1.1024 -29.27245,-0.98158 -0.0627,0.1208 4.69391,6.71736 10.57025,14.659 5.87629,7.94162 10.69364,14.6458 10.70529,14.89819 0.0113,0.25239 -0.81192,1.04852 -1.82994,1.76925 l -1.85095,1.3104 z m -590.338719,-3.45946 -22.840146,-15.17393 1.514003,-2.24783 c 0.975497,-1.44837 1.729966,-2.16612 2.121261,-2.0181 1.270337,0.48054 44.912141,29.66042 44.912141,30.02924 0,0.21312 -0.64513,1.33188 -1.43357,2.48606 l -1.43358,2.09849 z m 15.703679,-23.75854 -20.127542,-18.08066 1.315957,-1.63796 c 0.809726,-1.00781 1.674973,-1.6349 2.249084,-1.63003 0.513222,0.005 11.005194,2.09928 23.315501,4.65541 12.3103,2.55613 22.42999,4.60057 22.48819,4.54319 0.0582,-0.0573 -3.11338,-10.09862 -7.04795,-22.31388 l -7.15374,-22.20957 1.68238,-1.6297 1.68242,-1.62971 20.39767,18.28552 20.39774,18.28553 -1.96687,1.93891 -1.96683,1.93891 -0.98325,-0.88433 c -15.42607,-13.87486 -31.08688,-27.7246 -31.21131,-27.60194 -0.0892,0.0881 2.68653,9.07442 6.16857,19.96972 l 6.33098,19.80962 -0.93657,0.98277 -0.93653,0.98276 -20.14016,-4.15866 c -11.07712,-2.28727 -20.384553,-4.11513 -20.683249,-4.0619 -0.431055,0.0768 24.611159,22.94618 30.157499,27.54082 l 1.34419,1.11354 -1.69353,1.95151 c -0.93142,1.07332 -1.88738,1.94459 -2.12432,1.93615 -0.23698,-0.009 -9.4882,-8.15165 -20.55833,-18.09602 z m 541.07373,-11.91143 -2.03086,-2.03261 6.85414,-6.74687 6.85418,-6.74688 5.09114,-20.10434 5.09121,-20.10434 2.15426,2.12367 2.15433,2.12367 -4.38176,17.29908 c -2.40991,9.51449 -4.32624,17.35374 -4.25847,17.42056 0.0676,0.0668 8.0513,-1.70368 17.74114,-3.93445 l 17.6179,-4.05594 1.92631,1.99822 c 1.05952,1.09902 1.73806,2.05732 1.50785,2.12956 -0.23018,0.0722 -9.50745,2.21624 -20.61616,4.76444 l -20.19762,4.63307 -6.73829,6.63288 -6.73837,6.63288 z M 162.15872,121.74806 c -8.98209,-11.71663 -16.38879,-21.53153 -16.45932,-21.810898 -0.11225,-0.444443 29.57799,-22.979978 29.81244,-22.628369 0.0499,0.07472 0.73296,0.956852 1.51804,1.960317 0.78512,1.00348 1.35564,1.886012 1.26781,1.961186 -0.0877,0.07518 -5.00618,3.728974 -10.92976,8.119559 -5.92358,4.39058 -11.59056,8.630153 -12.59324,9.421269 l -1.82309,1.438386 5.81707,7.62225 c 3.19937,4.19223 5.91308,7.62225 6.03043,7.62225 0.11717,0 5.27033,-3.77283 11.45103,-8.38406 l 11.2376,-8.384047 1.05464,1.270561 c 2.18762,2.635506 2.76888,1.951566 -9.343,10.993266 -6.1519,4.59249 -11.18525,8.46788 -11.18525,8.612 0,0.41526 11.79731,15.85251 12.11464,15.85251 0.23319,0 6.85096,-4.87086 25.18685,-18.5389 l 1.32923,-0.99083 1.41751,1.94579 c 1.19233,1.63673 1.32332,2.03277 0.8248,2.49349 -0.32617,0.30123 -7.08707,5.37229 -15.02464,11.26903 -7.93762,5.89674 -14.64368,10.88713 -14.90235,11.08977 -0.31143,0.24381 -5.99391,-6.83671 -16.80144,-20.93453 z m 435.4376,3.55881 c -1.21081,-0.86432 -2.11537,-1.81063 -2.01003,-2.10292 0.10545,-0.29231 7.41887,-9.93177 16.25228,-21.42107 8.83343,-11.489296 16.18016,-21.061947 16.32597,-21.27255 0.25663,-0.370847 30.10667,21.62228 30.10667,22.18229 0,0.15296 -0.60283,1.08626 -1.33965,2.07394 -0.88902,1.19171 -1.5049,1.66985 -1.83092,1.42146 -7.67603,-5.84831 -24.75663,-18.333351 -25.06183,-18.318924 -0.57679,0.02721 -12.95622,16.432164 -12.71203,16.845644 0.10885,0.18395 5.06264,3.96553 11.00894,8.40349 5.94622,4.43797 10.8731,8.22999 10.9485,8.42668 0.16516,0.43053 -2.19258,3.65256 -2.68305,3.66683 -0.18973,0.006 -5.38179,-3.75047 -11.53769,-8.34666 -10.54704,-7.87478 -11.22634,-8.30949 -11.77951,-7.53818 -0.32277,0.4502 -3.48926,4.58344 -7.03654,9.18499 l -6.44957,8.36646 z M 209.06475,87.955412 196.48002,63.854664 l 2.12481,-1.037155 2.12478,-1.037163 5.93647,2.62884 c 3.26506,1.445855 14.85415,6.609247 25.75352,11.4742 10.8994,4.864952 19.87204,8.716134 19.93917,8.558183 0.0669,-0.157908 -4.34321,-8.844577 -9.80081,-19.30363 -5.45764,-10.459049 -9.92293,-19.143283 -9.92293,-19.298308 0,-0.457977 4.91445,-2.697325 5.05746,-2.304504 0.0718,0.197632 5.72213,11.061385 12.55598,24.141711 l 12.42516,23.782413 -1.77203,0.936352 c -0.97463,0.514999 -2.06283,0.940532 -2.41826,0.945634 -0.35527,0.0053 -12.0841,-5.112916 -26.06374,-11.373377 -13.97965,-6.260464 -25.47248,-11.253438 -25.53964,-11.095499 -0.0669,0.157909 4.34321,8.844567 9.80085,19.303619 5.4576,10.45904 9.92292,19.14328 9.92292,19.29831 0,0.2205 -4.44276,2.58279 -4.85612,2.58205 -0.0537,-1e-4 -5.76129,-10.84551 -12.68286,-24.100928 z m 338.55928,9.240317 C 541.15555,94.901684 536.0835,89.651022 535.20994,84.3445 c -0.23773,-1.443168 -0.15874,-1.569321 1.5061,-2.406525 0.96624,-0.485937 2.0069,-0.88326 2.31251,-0.882939 0.30614,3.25e-4 0.89,1.122357 1.30012,2.498238 1.05362,3.534703 3.50736,6.431953 6.83607,8.071691 5.0795,2.502195 9.7016,1.419421 12.78214,-2.994355 1.29736,-1.858916 16.5803,-32.666661 16.32832,-32.915082 -0.0745,-0.07332 -4.13216,-2.044747 -9.01735,-4.380954 l -8.88204,-4.247657 0.94352,-2.117096 c 0.51897,-1.164397 1.07176,-2.121597 1.22846,-2.1271 0.15685,-0.0057 5.28038,2.374361 11.38594,5.288585 6.1056,2.914225 11.26738,5.353234 11.47061,5.420015 0.52898,0.17382 -17.39725,36.462468 -19.22378,38.915364 -1.62932,2.187992 -3.7976,3.859352 -6.38098,4.91852 -2.25313,0.92377 -7.3016,0.829765 -10.17555,-0.189468 z M 507.70457,81.187962 c -9.95161,-3.169211 -18.12934,-5.78887 -18.17273,-5.821472 -0.0941,-0.07064 16.69743,-51.374313 16.87586,-51.561615 0.11452,-0.120264 34.98903,10.871626 35.61378,11.224887 0.48994,0.27704 -1.06564,4.405468 -1.65997,4.405468 -0.31143,0 -7.18061,-2.110205 -15.2651,-4.689344 -8.08449,-2.57914 -14.74228,-4.633555 -14.79508,-4.565373 -0.32693,0.422136 -5.94591,18.196308 -5.79651,18.335149 0.10091,0.09411 6.09691,2.037986 13.32367,4.319786 7.22676,2.281796 13.21482,4.20801 13.30674,4.280479 0.32542,0.256554 -0.9546,4.058356 -1.42655,4.23689 -0.26343,0.09974 -6.38857,-1.699405 -13.61106,-3.998024 -8.54136,-2.718335 -13.22718,-4.020013 -13.40444,-3.723611 -0.14967,0.250659 -1.59413,4.529686 -3.20935,9.508993 -2.0208,6.229483 -2.78616,9.145073 -2.45378,9.347583 0.2657,0.161878 7.35863,2.470947 15.76218,5.131308 l 15.27916,4.837007 -0.73829,2.141141 c -0.40604,1.177629 -0.91748,2.188793 -1.1365,2.247036 -0.21922,0.05828 -8.54042,-2.487089 -18.49203,-5.656288 z M 282.80744,58.389065 c -4.23163,-12.877172 -7.71598,-23.456894 -7.74304,-23.510495 -0.0265,-0.05359 -4.19962,1.225754 -9.27247,2.843014 -5.07281,1.617253 -9.24907,2.903313 -9.28056,2.85791 -0.45951,-0.662733 -1.39389,-4.354747 -1.15377,-4.558796 0.30387,-0.257915 40.80882,-13.214892 41.62429,-13.314914 0.20485,-0.02532 0.72536,0.955798 1.15702,2.179787 l 0.78486,2.225432 -9.12696,2.92398 c -7.18477,2.30177 -9.10053,3.068523 -9.00287,3.603217 0.068,0.373569 3.50302,10.946476 7.63279,23.495321 4.12978,12.548844 7.46654,22.846235 7.41502,22.883089 -0.0518,0.03704 -1.27423,0.453668 -2.7171,0.926249 l -2.62341,0.859246 z m 30.61419,14.563704 c 0.17575,-0.545753 3.65488,-13.518177 7.73148,-28.827601 l 7.41203,-27.835323 2.76235,-0.492242 c 1.51925,-0.270728 2.85895,-0.39843 2.97706,-0.283805 0.11792,0.114671 7.80881,11.133801 17.09042,24.486993 10.846,15.603801 16.69547,24.377546 16.3713,24.55563 -0.27742,0.152428 -1.59561,0.410408 -2.92929,0.573358 l -2.42491,0.29624 -4.41169,-6.412787 c -3.23127,-4.697002 -4.64327,-6.412788 -5.27736,-6.412788 -2.01282,0 -29.01476,4.816246 -29.45492,5.253769 -0.26533,0.263697 -1.30194,3.760075 -2.3037,7.769675 -2.01181,8.05226 -1.56004,7.424 -5.76915,8.023177 -2.04983,0.291817 -2.08649,0.277417 -1.77362,-0.694338 z M 337.5283,50.45642 c 6.85927,-1.17924 12.56341,-2.234794 12.67593,-2.345689 0.11263,-0.11093 -3.73981,-5.978195 -8.56063,-13.038449 -10.08477,-14.769496 -8.99668,-13.254781 -9.30399,-12.951811 -0.18974,0.187163 -7.94295,29.807879 -7.94295,30.346008 0,0.238299 0.48824,0.163578 13.13164,-2.010059 z M 468.98088,70.385418 C 467.82298,70.209972 466.72457,69.910982 466.53994,69.721 466.3555,69.531003 459.96697,58.864605 452.34362,46.017862 444.72038,33.171111 438.3258,22.497566 438.13365,22.298869 c -0.19238,-0.19869 -0.44943,-0.0076 -0.57151,0.424687 -0.12207,0.432272 -1.53974,10.102495 -3.15023,21.489384 l -2.92808,20.703439 -1.3084,-0.02457 c -0.71958,-0.01323 -1.99219,-0.156774 -2.82799,-0.3185 l -1.51964,-0.294048 3.84473,-26.853794 c 3.74253,-26.139835 3.8688,-26.84901 4.75072,-26.673512 0.49825,0.09918 1.58445,0.29246 2.41375,0.429521 1.48279,0.245065 1.74388,0.647256 15.72443,24.219618 7.81909,13.183708 14.33156,23.975759 14.47205,23.982336 0.14059,0.0064 1.55633,-9.113495 3.14611,-20.266809 1.58979,-11.153311 2.99256,-20.866791 3.11721,-21.585506 l 0.22677,-1.306753 2.65856,0.39326 c 1.46222,0.216302 2.69582,0.426977 2.74133,0.468193 0.1217,0.110173 -7.55657,53.436291 -7.70831,53.534815 -0.0707,0.04607 -1.0763,-0.05983 -2.23412,-0.235313 z m -90.32832,-8.724649 c -0.0151,-1.596284 -0.27478,-13.699972 -0.57925,-26.897089 -0.40067,-17.363602 -0.42335,-24.080978 -0.082,-24.306763 0.25927,-0.171628 1.47035,-0.31491 2.69102,-0.318501 l 2.21942,-0.0064 0.2468,2.441946 c 0.13569,1.343067 0.37304,10.510983 0.52736,20.373139 0.1542,9.862151 0.40157,19.888429 0.54943,22.280606 l 0.26872,4.349406 7.7545,-0.09502 c 4.26497,-0.05227 11.19557,-0.215018 15.40132,-0.361739 l 7.64682,-0.266721 v 2.354782 2.354779 l -3.98495,0.241323 c -2.19171,0.132699 -10.4309,0.357732 -18.30929,0.500017 l -14.32426,0.25867 -0.0265,-2.902334 z M 326.45639,11.159467 c 0.40728,-0.529304 2.38832,-3.0505974 4.40236,-5.6028792 l 3.66187,-4.64051311 3.3817,-0.51673719 c 1.85994,-0.28418278 3.44269,-0.45616646 3.51715,-0.38214817 0.0745,0.07404097 -2.31965,2.65585227 -5.32029,5.73739667 -5.43028,5.576529 -5.46739,5.604595 -7.91959,5.985024 l -2.46372,0.382224 z"
       id="path853" />
  </g>
</svg>
