<?xml version="1.0" encoding="UTF-8" standalone="no"?>
<!-- Created with Inkscape (http://www.inkscape.org/) -->

<svg
   version="1.1"
   id="svg962"
   xml:space="preserve"
   width="522"
   height="684"
   viewBox="0 0 522 684"
   sodipodi:docname="ALICE.color.Inkscape.svg"
   inkscape:version="1.1.2 (0a00cf5339, 2022-02-04)"
   xmlns:inkscape="http://www.inkscape.org/namespaces/inkscape"
   xmlns:sodipodi="http://sodipodi.sourceforge.net/DTD/sodipodi-0.dtd"
   xmlns="http://www.w3.org/2000/svg"
   xmlns:svg="http://www.w3.org/2000/svg"><defs
     id="defs966" /><sodipodi:namedview
     id="namedview964"
     pagecolor="#ffffff"
     bordercolor="#666666"
     borderopacity="1.0"
     inkscape:pageshadow="2"
     inkscape:pageopacity="0.0"
     inkscape:pagecheckerboard="true"
     showgrid="false"
     inkscape:zoom="1"
     inkscape:cx="261"
     inkscape:cy="342"
     inkscape:window-width="1920"
     inkscape:window-height="979"
     inkscape:window-x="0"
     inkscape:window-y="0"
     inkscape:window-maximized="1"
     inkscape:current-layer="g970" /><g
     id="g968"
     inkscape:groupmode="layer"
     inkscape:label="ink_ext_XXXXXX"
     transform="matrix(1.3333333,0,0,-1.3333333,0,683.53333)"><g
       id="g970"
       transform="matrix(0.10021074,0,0,0.09992739,-24.786526,-23.62975)"><path
         d="m 1603.29,1959.03 h 1198.52 l 847.63,847.91 v 1199.04 l -847.63,847.9 H 1603.29 L 755.715,4005.98 V 2806.93 Z M 2914.78,1686.37 H 1490.32 L 483.059,2694.03 V 4118.89 L 1490.32,5126.52 H 2914.77 L 3922.1,4118.89 V 2694.03 L 2914.78,1686.37"
         style="fill:#ed1c24;fill-opacity:1;fill-rule:nonzero;stroke:none"
         id="path974" /><path
         d="m 2200.59,3406.69 v 0 l -29.14,336.81 v 981.29 h 58.26 V 3743.5 l -29.12,-336.81 v 0"
         style="fill:#ed1c24;fill-opacity:1;fill-rule:nonzero;stroke:none"
         id="path976" /><path
         d="m 2200.59,3406.69 v 0 l -29.14,336.81 v 981.29 h 58.26 V 3743.5 Z"
         style="fill:none;stroke:#ed1c24;stroke-width:2.91293;stroke-linecap:butt;stroke-linejoin:miter;stroke-miterlimit:4;stroke-dasharray:none;stroke-opacity:1"
         id="path978" /><path
         d="m 2200.92,3406.69 v 0 l 30.45,340.5 172.32,977.37 57.4,-10.12 -172.32,-977.37 -87.85,-330.38 v 0"
         style="fill:#cb3b46;fill-opacity:1;fill-rule:nonzero;stroke:none"
         id="path980" /><path
         d="m 2200.92,3406.69 v 0 l 30.45,340.5 172.32,977.37 57.4,-10.12 -172.32,-977.37 z"
         style="fill:none;stroke:#cb3b46;stroke-width:2.91293;stroke-linecap:butt;stroke-linejoin:miter;stroke-miterlimit:4;stroke-dasharray:none;stroke-opacity:1"
         id="path982" /><path
         d="m 2200.98,3406.58 v 0 l 94.22,343.91 354.1,973.05 54.78,-19.92 -354.15,-973.09 -148.95,-323.95 v 0"
         style="fill:#f46f1b;fill-opacity:1;fill-rule:nonzero;stroke:none"
         id="path984" /><path
         d="m 2200.98,3406.58 v 0 l 94.22,343.91 354.1,973.05 54.78,-19.92 -354.15,-973.09 z"
         style="fill:none;stroke:#f46f1b;stroke-width:3.20422;stroke-linecap:butt;stroke-linejoin:miter;stroke-miterlimit:4;stroke-dasharray:none;stroke-opacity:1"
         id="path986" /><path
         d="m 2200.98,3406.92 v 0 l 147.98,314.56 504.58,874 50.46,-29.19 -504.63,-873.94 -198.39,-285.43 v 0"
         style="fill:#f46f1b;fill-opacity:1;fill-rule:nonzero;stroke:none"
         id="path988" /><path
         d="m 2200.98,3406.92 v 0 l 147.98,314.56 504.58,874 50.46,-29.19 -504.63,-873.94 z"
         style="fill:none;stroke:#f46f1b;stroke-width:2.91293;stroke-linecap:butt;stroke-linejoin:miter;stroke-miterlimit:4;stroke-dasharray:none;stroke-opacity:1"
         id="path990" /><path
         d="m 2200.98,3406.58 v 0 l 194.18,276.73 630.71,751.73 44.6,-37.5 -630.7,-751.67 -238.79,-239.29 v 0"
         style="fill:#273540;fill-opacity:1;fill-rule:nonzero;stroke:none"
         id="path992" /><path
         d="m 2200.98,3406.58 v 0 l 194.18,276.73 630.71,751.73 44.6,-37.5 -630.7,-751.67 z"
         style="fill:none;stroke:#273540;stroke-width:2.91293;stroke-linecap:butt;stroke-linejoin:miter;stroke-miterlimit:4;stroke-dasharray:none;stroke-opacity:1"
         id="path994" /><path
         d="m 2200.92,3406.58 v 0 l 239.29,238.84 751.67,630.78 37.45,-44.67 -751.74,-630.78 -276.67,-194.17 v 0"
         style="fill:#cb3b46;fill-opacity:1;fill-rule:nonzero;stroke:none"
         id="path996" /><path
         d="m 2200.92,3406.58 v 0 l 239.29,238.84 751.67,630.78 37.45,-44.67 -751.74,-630.78 z"
         style="fill:none;stroke:#cb3b46;stroke-width:2.91293;stroke-linecap:butt;stroke-linejoin:miter;stroke-miterlimit:4;stroke-dasharray:none;stroke-opacity:1"
         id="path998" /><path
         d="m 2200.98,3406.92 v 0 l 285.72,198.56 874.84,505.15 29.02,-50.53 -874.79,-505.09 -314.79,-148.09 v 0"
         style="fill:#cb3b46;fill-opacity:1;fill-rule:nonzero;stroke:none"
         id="path1000" /><path
         d="m 2200.98,3406.92 v 0 l 285.72,198.56 874.84,505.15 29.02,-50.53 -874.79,-505.09 z"
         style="fill:none;stroke:#cb3b46;stroke-width:2.91293;stroke-linecap:butt;stroke-linejoin:miter;stroke-miterlimit:4;stroke-dasharray:none;stroke-opacity:1"
         id="path1002" /><path
         d="m 2201.48,3407.14 -0.5,0.18 323.6,148.77 972.02,353.82 19.81,-54.79 -971.97,-353.77 -343.46,-94.03 0.5,-0.18"
         style="fill:#ed1c24;fill-opacity:1;fill-rule:nonzero;stroke:none"
         id="path1004" /><path
         d="m 2201.48,3407.14 -0.5,0.18 323.6,148.77 972.02,353.82 19.81,-54.79 -971.97,-353.77 -343.46,-94.03 z"
         style="fill:none;stroke:#ed1c24;stroke-width:3.49551;stroke-linecap:butt;stroke-linejoin:miter;stroke-miterlimit:4;stroke-dasharray:none;stroke-opacity:1"
         id="path1006" /><path
         d="m 2200.98,3406.46 v 0 l 330.2,87.84 976.93,172.27 10.11,-57.4 -976.97,-172.21 -340.27,-30.5 v 0"
         style="fill:#273540;fill-opacity:1;fill-rule:nonzero;stroke:none"
         id="path1008" /><path
         d="m 2200.98,3406.46 v 0 l 330.2,87.84 976.93,172.27 10.11,-57.4 -976.97,-172.21 z"
         style="fill:none;stroke:#273540;stroke-width:3.20422;stroke-linecap:butt;stroke-linejoin:miter;stroke-miterlimit:4;stroke-dasharray:none;stroke-opacity:1"
         id="path1010" /><path
         d="m 2200.59,3406.69 -0.47,0.17 336.81,29.13 981.29,0.06 -0.1,-58.26 h -981.24 l -336.76,29.07 0.47,-0.17"
         style="fill:#f46f1b;fill-opacity:1;fill-rule:nonzero;stroke:none"
         id="path1012" /><path
         d="m 2200.59,3406.69 -0.47,0.17 336.81,29.13 981.29,0.06 -0.1,-58.26 h -981.24 l -336.76,29.07 z"
         style="fill:none;stroke:#f46f1b;stroke-width:1.45646;stroke-linecap:butt;stroke-linejoin:miter;stroke-miterlimit:4;stroke-dasharray:none;stroke-opacity:1"
         id="path1014" /><path
         d="m 2200.92,3406.69 -0.8,-0.06 339.6,-30.32 974.75,-171.81 -10.24,-57.4 -974.69,171.86 -329.42,87.67 0.8,0.06"
         style="fill:#ed1c24;fill-opacity:1;fill-rule:nonzero;stroke:none"
         id="path1016" /><path
         d="m 2200.92,3406.69 -0.8,-0.06 339.6,-30.32 974.75,-171.81 -10.24,-57.4 -974.69,171.86 -329.42,87.67 z"
         style="fill:none;stroke:#ed1c24;stroke-width:2.91293;stroke-linecap:butt;stroke-linejoin:miter;stroke-miterlimit:4;stroke-dasharray:none;stroke-opacity:1"
         id="path1018" /><path
         d="m 2200.92,3406.69 v 0 l 343.91,-94.21 973.17,-354.06 -20.03,-54.78 -973.1,354.16 -323.95,148.89 v 0"
         style="fill:#273540;fill-opacity:1;fill-rule:nonzero;stroke:none"
         id="path1020" /><path
         d="m 2200.92,3406.69 v 0 l 343.91,-94.21 973.17,-354.06 -20.03,-54.78 -973.1,354.16 z"
         style="fill:none;stroke:#273540;stroke-width:2.91293;stroke-linecap:butt;stroke-linejoin:miter;stroke-miterlimit:4;stroke-dasharray:none;stroke-opacity:1"
         id="path1022" /><path
         d="m 2200.98,3406.92 v 0 l 314.23,-147.81 873.19,-504.06 -29.25,-50.42 -873.14,504.07 -285.03,198.22 v 0"
         style="fill:#273540;fill-opacity:1;fill-rule:nonzero;stroke:none"
         id="path1024" /><path
         d="m 2200.98,3406.92 v 0 l 314.23,-147.81 873.19,-504.06 -29.25,-50.42 -873.14,504.07 z"
         style="fill:none;stroke:#273540;stroke-width:2.91293;stroke-linecap:butt;stroke-linejoin:miter;stroke-miterlimit:4;stroke-dasharray:none;stroke-opacity:1"
         id="path1026" /><path
         d="m 2200.98,3406.92 v 0 l 276.73,-194.18 751.84,-630.77 -37.67,-44.6 -751.67,630.77 -239.23,238.78 v 0"
         style="fill:#cb3b46;fill-opacity:1;fill-rule:nonzero;stroke:none"
         id="path1028" /><path
         d="m 2200.98,3406.92 v 0 l 276.73,-194.18 751.84,-630.77 -37.67,-44.6 -751.67,630.77 z"
         style="fill:none;stroke:#cb3b46;stroke-width:2.91293;stroke-linecap:butt;stroke-linejoin:miter;stroke-miterlimit:4;stroke-dasharray:none;stroke-opacity:1"
         id="path1030" /><path
         d="m 2200.98,3406.92 v 0 l 238.79,-239.3 630.82,-751.74 -44.72,-37.33 -630.77,751.69 -194.12,276.68 v 0"
         style="fill:#f46f1b;fill-opacity:1;fill-rule:nonzero;stroke:none"
         id="path1032" /><path
         d="m 2200.98,3406.92 v 0 l 238.79,-239.3 630.82,-751.74 -44.72,-37.33 -630.77,751.69 z"
         style="fill:none;stroke:#f46f1b;stroke-width:2.91293;stroke-linecap:butt;stroke-linejoin:miter;stroke-miterlimit:4;stroke-dasharray:none;stroke-opacity:1"
         id="path1034" /><path
         d="m 2200.98,3406.92 v 0 l 197.7,-284.18 502.65,-870.5 -50.58,-29.01 -502.54,870.43 -147.23,313.26 v 0"
         style="fill:#cb3b46;fill-opacity:1;fill-rule:nonzero;stroke:none"
         id="path1036" /><path
         d="m 2200.98,3406.92 v 0 l 197.7,-284.18 502.65,-870.5 -50.58,-29.01 -502.54,870.43 z"
         style="fill:none;stroke:#cb3b46;stroke-width:3.20422;stroke-linecap:butt;stroke-linejoin:miter;stroke-miterlimit:4;stroke-dasharray:none;stroke-opacity:1"
         id="path1038" /><path
         d="m 2200.92,3406.92 v 0 l 148.89,-323.95 354.15,-972.85 -54.84,-19.79 -354.04,972.78 -94.16,343.81 v 0"
         style="fill:#cb3b46;fill-opacity:1;fill-rule:nonzero;stroke:none"
         id="path1040" /><path
         d="m 2200.92,3406.92 v 0 l 148.89,-323.95 354.15,-972.85 -54.84,-19.79 -354.04,972.78 z"
         style="fill:none;stroke:#cb3b46;stroke-width:3.20422;stroke-linecap:butt;stroke-linejoin:miter;stroke-miterlimit:4;stroke-dasharray:none;stroke-opacity:1"
         id="path1042" /><path
         d="m 2200.86,3406.92 v 0 l 87.85,-330.38 172.44,-977.45 -57.46,-9.95 -172.32,977.33 -30.51,340.45 v 0"
         style="fill:#ed1c24;fill-opacity:1;fill-rule:nonzero;stroke:none"
         id="path1044" /><path
         d="m 2200.86,3406.92 v 0 l 87.85,-330.38 172.44,-977.45 -57.46,-9.95 -172.32,977.33 z"
         style="fill:none;stroke:#ed1c24;stroke-width:2.91293;stroke-linecap:butt;stroke-linejoin:miter;stroke-miterlimit:4;stroke-dasharray:none;stroke-opacity:1"
         id="path1046" /><path
         d="m 2200.86,3406.63 v 0 l 29.13,-336.81 0.12,-981.38 -58.37,0.18 v 981.26 l 29.12,336.75 v 0"
         style="fill:#273540;fill-opacity:1;fill-rule:nonzero;stroke:none"
         id="path1048" /><path
         d="m 2200.86,3406.63 v 0 l 29.13,-336.81 0.12,-981.38 -58.37,0.18 v 981.26 z"
         style="fill:none;stroke:#273540;stroke-width:2.91293;stroke-linecap:butt;stroke-linejoin:miter;stroke-miterlimit:4;stroke-dasharray:none;stroke-opacity:1"
         id="path1050" /><path
         d="m 2200.86,3406.58 v 0 l -30.43,-340.39 -172.22,-976.99 -57.46,10.29 172.28,976.88 87.83,330.21 v 0"
         style="fill:#f46f1b;fill-opacity:1;fill-rule:nonzero;stroke:none"
         id="path1052" /><path
         d="m 2200.86,3406.58 v 0 l -30.43,-340.39 -172.22,-976.99 -57.46,10.29 172.28,976.88 z"
         style="fill:none;stroke:#f46f1b;stroke-width:2.91293;stroke-linecap:butt;stroke-linejoin:miter;stroke-miterlimit:4;stroke-dasharray:none;stroke-opacity:1"
         id="path1054" /><path
         d="m 2200.98,3406.12 v 0 l -93.93,-343.13 -353.19,-970.73 -54.8,20.14 353.25,970.62 148.67,323.1 v 0"
         style="fill:#ed1c24;fill-opacity:1;fill-rule:nonzero;stroke:none"
         id="path1056" /><path
         d="m 2200.98,3406.12 v 0 l -93.93,-343.13 -353.19,-970.73 -54.8,20.14 353.25,970.62 z"
         style="fill:none;stroke:#ed1c24;stroke-width:2.91293;stroke-linecap:butt;stroke-linejoin:miter;stroke-miterlimit:4;stroke-dasharray:none;stroke-opacity:1"
         id="path1058" /><path
         d="m 2200.98,3406.12 v 0 L 2053,3091.57 l -504.58,-874.14 -50.47,29.35 504.65,873.97 198.38,285.37 v 0"
         style="fill:#273540;fill-opacity:1;fill-rule:nonzero;stroke:none"
         id="path1060" /><path
         d="m 2200.98,3406.12 v 0 L 2053,3091.57 l -504.58,-874.14 -50.47,29.35 504.65,873.97 z"
         style="fill:none;stroke:#273540;stroke-width:2.91293;stroke-linecap:butt;stroke-linejoin:miter;stroke-miterlimit:4;stroke-dasharray:none;stroke-opacity:1"
         id="path1062" /><path
         d="m 2200.98,3406.58 v 0 l -194.23,-276.73 -630.71,-751.87 -44.61,37.66 630.77,751.69 238.78,239.25 v 0"
         style="fill:#cb3b46;fill-opacity:1;fill-rule:nonzero;stroke:none"
         id="path1064" /><path
         d="m 2200.98,3406.58 v 0 l -194.23,-276.73 -630.71,-751.87 -44.61,37.66 630.77,751.69 z"
         style="fill:none;stroke:#cb3b46;stroke-width:2.91293;stroke-linecap:butt;stroke-linejoin:miter;stroke-miterlimit:4;stroke-dasharray:none;stroke-opacity:1"
         id="path1066" /><path
         d="m 2200.98,3406.12 v 0 l -239.36,-238.79 -751.66,-630.94 -37.38,44.84 751.67,630.78 276.73,194.11 v 0"
         style="fill:#f46f1b;fill-opacity:1;fill-rule:nonzero;stroke:none"
         id="path1068" /><path
         d="m 2200.98,3406.12 v 0 l -239.36,-238.79 -751.66,-630.94 -37.38,44.84 751.67,630.78 z"
         style="fill:none;stroke:#f46f1b;stroke-width:2.91293;stroke-linecap:butt;stroke-linejoin:miter;stroke-miterlimit:4;stroke-dasharray:none;stroke-opacity:1"
         id="path1070" /><path
         d="m 2200.98,3406.92 v 0 l -285.09,-198.22 -872.8,-504.07 -29.07,50.63 872.86,503.97 314.1,147.69 v 0"
         style="fill:#f46f1b;fill-opacity:1;fill-rule:nonzero;stroke:none"
         id="path1072" /><path
         d="m 2200.98,3406.92 v 0 l -285.09,-198.22 -872.8,-504.07 -29.07,50.63 872.86,503.97 z"
         style="fill:none;stroke:#f46f1b;stroke-width:2.91293;stroke-linecap:butt;stroke-linejoin:miter;stroke-miterlimit:4;stroke-dasharray:none;stroke-opacity:1"
         id="path1074" /><path
         d="m 2200.98,3406.92 v 0 l -323.78,-148.77 -972.22,-353.99 -19.765,54.89 972.125,353.83 343.64,94.04 v 0"
         style="fill:#273540;fill-opacity:1;fill-rule:nonzero;stroke:none"
         id="path1076" /><path
         d="m 2200.98,3406.92 v 0 l -323.78,-148.77 -972.22,-353.99 -19.765,54.89 972.125,353.83 z"
         style="fill:none;stroke:#273540;stroke-width:2.91293;stroke-linecap:butt;stroke-linejoin:miter;stroke-miterlimit:4;stroke-dasharray:none;stroke-opacity:1"
         id="path1078" /><path
         d="m 2200.98,3407.04 v 0 l -330.43,-87.8 -977.484,-172.5 -9.961,57.58 977.365,172.33 340.51,30.39 v 0"
         style="fill:#cb3b46;fill-opacity:1;fill-rule:nonzero;stroke:none"
         id="path1080" /><path
         d="m 2200.98,3407.04 v 0 l -330.43,-87.8 -977.484,-172.5 -9.961,57.58 977.365,172.33 z"
         style="fill:none;stroke:#cb3b46;stroke-width:2.91293;stroke-linecap:butt;stroke-linejoin:miter;stroke-miterlimit:4;stroke-dasharray:none;stroke-opacity:1"
         id="path1082" /><path
         d="m 2193.07,3407.26 7.91,-0.63 -336.81,-29.07 -981.436,-0.17 0.204,58.43 981.232,0.01 336.81,-29.2 -7.91,0.63"
         style="fill:#ed1c24;fill-opacity:1;fill-rule:nonzero;stroke:none"
         id="path1084" /><path
         d="m 2193.07,3407.26 7.91,-0.63 -336.81,-29.07 -981.436,-0.17 0.204,58.43 981.232,0.01 336.81,-29.2 z"
         style="fill:none;stroke:#ed1c24;stroke-width:2.91293;stroke-linecap:butt;stroke-linejoin:miter;stroke-miterlimit:4;stroke-dasharray:none;stroke-opacity:1"
         id="path1086" /><path
         d="m 2200.98,3406.12 v 0 l -334.31,30.16 -982.881,173.12 10.352,57.52 982.719,-173.3 324.12,-87.5 v 0"
         style="fill:#f46f1b;fill-opacity:1;fill-rule:nonzero;stroke:none"
         id="path1088" /><path
         d="m 2200.98,3406.12 v 0 l -334.31,30.16 -982.881,173.12 10.352,57.52 982.719,-173.3 z"
         style="fill:none;stroke:#f46f1b;stroke-width:2.91293;stroke-linecap:butt;stroke-linejoin:miter;stroke-miterlimit:4;stroke-dasharray:none;stroke-opacity:1"
         id="path1090" /><path
         d="m 2200.98,3407.09 v 0 l -343.81,94.17 -972.756,353.86 20.176,54.85 972.55,-353.99 323.84,-148.89 v 0"
         style="fill:#cb3b46;fill-opacity:1;fill-rule:nonzero;stroke:none"
         id="path1092" /><path
         d="m 2200.98,3407.09 v 0 l -343.81,94.17 -972.756,353.86 20.176,54.85 972.55,-353.99 z"
         style="fill:none;stroke:#cb3b46;stroke-width:2.91293;stroke-linecap:butt;stroke-linejoin:miter;stroke-miterlimit:4;stroke-dasharray:none;stroke-opacity:1"
         id="path1094" /><path
         d="m 2200.98,3406.58 v 0 l -315.65,148.66 -877.4,506.35 29.41,50.53 877.18,-506.47 286.46,-199.07 v 0"
         style="fill:#f46f1b;fill-opacity:1;fill-rule:nonzero;stroke:none"
         id="path1096" /><path
         d="m 2200.98,3406.58 v 0 l -315.65,148.66 -877.4,506.35 29.41,50.53 877.18,-506.47 z"
         style="fill:none;stroke:#f46f1b;stroke-width:2.91293;stroke-linecap:butt;stroke-linejoin:miter;stroke-miterlimit:4;stroke-dasharray:none;stroke-opacity:1"
         id="path1098" /><path
         d="m 2200.59,3406.12 v 0 l -276.68,194.23 -751.96,630.72 37.72,44.61 751.67,-630.71 239.25,-238.85 v 0"
         style="fill:#ed1c24;fill-opacity:1;fill-rule:nonzero;stroke:none"
         id="path1100" /><path
         d="m 2200.59,3406.12 v 0 l -276.68,194.23 -751.96,630.72 37.72,44.61 751.67,-630.71 z"
         style="fill:none;stroke:#ed1c24;stroke-width:2.91293;stroke-linecap:butt;stroke-linejoin:miter;stroke-miterlimit:4;stroke-dasharray:none;stroke-opacity:1"
         id="path1102" /><path
         d="m 2200.92,3406.58 v 0 l -238.78,239.29 -631,751.67 44.9,37.44 630.76,-751.73 194.12,-276.67 v 0"
         style="fill:#f46f1b;fill-opacity:1;fill-rule:nonzero;stroke:none"
         id="path1104" /><path
         d="m 2200.92,3406.58 v 0 l -238.78,239.29 -631,751.67 44.9,37.44 630.76,-751.73 z"
         style="fill:none;stroke:#f46f1b;stroke-width:2.91293;stroke-linecap:butt;stroke-linejoin:miter;stroke-miterlimit:4;stroke-dasharray:none;stroke-opacity:1"
         id="path1106" /><path
         d="m 2200.98,3406.58 v 0 l -198.73,286.05 -505.89,875.7 50.75,29.08 505.55,-875.76 148.32,-315.07 v 0"
         style="fill:#ed1c24;fill-opacity:1;fill-rule:nonzero;stroke:none"
         id="path1108" /><path
         d="m 2200.98,3406.58 v 0 l -198.73,286.05 -505.89,875.7 50.75,29.08 505.55,-875.76 z"
         style="fill:none;stroke:#ed1c24;stroke-width:3.20422;stroke-linecap:butt;stroke-linejoin:miter;stroke-miterlimit:4;stroke-dasharray:none;stroke-opacity:1"
         id="path1110" /><path
         d="m 2200.92,3407.04 v 0 l -148.66,323.44 -353.76,971.32 55.02,19.81 353.47,-971.29 93.93,-343.28 v 0"
         style="fill:#f46f1b;fill-opacity:1;fill-rule:nonzero;stroke:none"
         id="path1112" /><path
         d="m 2200.92,3407.04 v 0 l -148.66,323.44 -353.76,971.32 55.02,19.81 353.47,-971.29 z"
         style="fill:none;stroke:#f46f1b;stroke-width:3.49551;stroke-linecap:butt;stroke-linejoin:miter;stroke-miterlimit:4;stroke-dasharray:none;stroke-opacity:1"
         id="path1114" /><path
         d="m 2200.92,3406.46 v 0 l -87.79,330.38 -172.55,977.48 57.57,9.97 172.34,-977.37 30.43,-340.46 v 0"
         style="fill:#273540;fill-opacity:1;fill-rule:nonzero;stroke:none"
         id="path1116" /><path
         d="m 2200.92,3406.46 v 0 l -87.79,330.38 -172.55,977.48 57.57,9.97 172.34,-977.37 z"
         style="fill:none;stroke:#273540;stroke-width:0.72823;stroke-linecap:butt;stroke-linejoin:miter;stroke-miterlimit:4;stroke-dasharray:none;stroke-opacity:1"
         id="path1118" /><path
         d="m 3442.46,1414.94 h 475.51 v -150.05 h -317 v -210.35 h 302.84 V 905.91 H 3600.97 V 637.82 h 317 V 487.781 h -475.51 v 927.159"
         style="fill:#273540;fill-opacity:1;fill-rule:nonzero;stroke:none"
         id="path1120" /><path
         d="m 1531.16,636.809 h 283.77 V 488.18 h -442.28 v 926.35 h 158.51 V 636.809"
         style="fill:#273540;fill-opacity:1;fill-rule:nonzero;stroke:none"
         id="path1122" /><path
         d="M 2120.95,1264.89 H 1985.4 v 149.64 h 431.7 V 1264.89 H 2279.5 V 636.789 h 137.6 V 488.18 h -431.7 v 148.609 h 135.55 v 628.101"
         style="fill:#273540;fill-opacity:1;fill-rule:nonzero;stroke:none"
         id="path1124" /><path
         d="m 984.805,1097.43 c 0,136.23 -86.375,201.59 -173.489,201.59 -87.128,0 -173.464,-65.36 -173.464,-201.59 V 977.93 H 984.805 Z M 637.852,488.191 H 479.355 v 609.239 c 0,229.37 157.723,339.75 331.961,339.75 175.664,0 333.414,-110.38 333.414,-339.75 V 488.191 H 984.805 V 829.289 H 637.852 V 488.191"
         style="fill:#273540;fill-opacity:1;fill-rule:nonzero;stroke:none"
         id="path1126" /><path
         d="m 3102.58,770.34 c -14.43,-108.301 -75.23,-147.078 -169.5,-147.078 -146.29,0 -202.52,120.508 -202.52,329.519 0,209.019 56.23,328.099 202.52,328.099 104.26,0 152.93,-45.57 164.16,-146.66 l 150.47,25.17 c -23.05,169.22 -145.18,271.58 -303.4,271.58 -255.55,0 -374.5,-224.91 -374.5,-485.279 0,-262.14 102.88,-472.55 361.65,-472.55 162.96,0 289.68,102.027 320.19,272.25 l -149.07,24.949"
         style="fill:#273540;fill-opacity:1;fill-rule:nonzero;stroke:none"
         id="path1128" /></g></g></svg>
