<?xml version="1.0" encoding="UTF-8" standalone="no"?>
<!-- Created with Inkscape (http://www.inkscape.org/) -->

<svg
   version="1.1"
   id="svg2988"
   xml:space="preserve"
   width="522"
   height="684"
   viewBox="0 0 522 684"
   sodipodi:docname="ALICE.gray.Inkscape.svg"
   inkscape:version="1.1.2 (0a00cf5339, 2022-02-04)"
   xmlns:inkscape="http://www.inkscape.org/namespaces/inkscape"
   xmlns:sodipodi="http://sodipodi.sourceforge.net/DTD/sodipodi-0.dtd"
   xmlns="http://www.w3.org/2000/svg"
   xmlns:svg="http://www.w3.org/2000/svg"><defs
     id="defs2992" /><sodipodi:namedview
     id="namedview2990"
     pagecolor="#ffffff"
     bordercolor="#666666"
     borderopacity="1.0"
     inkscape:pageshadow="2"
     inkscape:pageopacity="0.0"
     inkscape:pagecheckerboard="true"
     showgrid="false"
     inkscape:zoom="1"
     inkscape:cx="261"
     inkscape:cy="342"
     inkscape:window-width="1920"
     inkscape:window-height="979"
     inkscape:window-x="0"
     inkscape:window-y="0"
     inkscape:window-maximized="1"
     inkscape:current-layer="g2996" /><g
     id="g2994"
     inkscape:groupmode="layer"
     inkscape:label="ink_ext_XXXXXX"
     transform="matrix(1.3333333,0,0,-1.3333333,0,702.52)"><g
       id="g2996"
       transform="matrix(0.09967642,0,0,0.09968295,-24.717291,-22.325487)"><path
         d="m 1608.76,2080.95 h 1206.23 l 853.03,853.33 v 1206.76 l -853.04,853.41 H 1608.76 L 755.645,4141.04 V 2934.28 Z M 2928.68,1806.54 H 1495.07 L 481.23,2820.63 V 4254.68 L 1495.07,5268.86 H 2928.68 L 3942.43,4254.68 V 2820.63 L 2928.68,1806.54"
         style="fill:#4f4c4c;fill-opacity:1;fill-rule:nonzero;stroke:none"
         id="path3000" /><path
         d="m 2211.95,3537.9 v 0 l -29.33,339 v 987.62 h 58.67 V 3876.9 l -29.34,-339 v 0"
         style="fill:#7b7979;fill-opacity:1;fill-rule:nonzero;stroke:none"
         id="path3002" /><path
         d="m 2211.95,3537.9 v 0 l -29.33,339 v 987.62 h 58.67 V 3876.9 Z"
         style="fill:none;stroke:#7b7979;stroke-width:2.93181;stroke-linecap:butt;stroke-linejoin:miter;stroke-miterlimit:4;stroke-dasharray:none;stroke-opacity:1"
         id="path3004" /><path
         d="m 2212.28,3537.9 v 0 l 30.61,342.73 173.56,983.69 57.79,-10.23 -173.63,-983.69 -88.33,-332.5 v 0"
         style="fill:#a7a5a6;fill-opacity:1;fill-rule:nonzero;stroke:none"
         id="path3006" /><path
         d="m 2212.28,3537.9 v 0 l 30.61,342.73 173.56,983.69 57.79,-10.23 -173.63,-983.69 z"
         style="fill:none;stroke:#a7a5a6;stroke-width:2.93181;stroke-linecap:butt;stroke-linejoin:miter;stroke-miterlimit:4;stroke-dasharray:none;stroke-opacity:1"
         id="path3008" /><path
         d="m 2212.35,3537.78 v 0 l 94.84,346.17 356.38,979.32 54.99,-20.04 -356.23,-979.4 -149.98,-326.05 v 0"
         style="fill:#d3d2d2;fill-opacity:1;fill-rule:nonzero;stroke:none"
         id="path3010" /><path
         d="m 2212.35,3537.78 v 0 l 94.84,346.17 356.38,979.32 54.99,-20.04 -356.23,-979.4 z"
         style="fill:none;stroke:#d3d2d2;stroke-width:3.22494;stroke-linecap:butt;stroke-linejoin:miter;stroke-miterlimit:4;stroke-dasharray:none;stroke-opacity:1"
         id="path3012" /><path
         d="m 2212.35,3538.14 v 0 l 148.94,316.63 507.9,879.61 50.66,-29.39 -507.74,-879.56 -199.76,-287.29 v 0"
         style="fill:#d3d2d2;fill-opacity:1;fill-rule:nonzero;stroke:none"
         id="path3014" /><path
         d="m 2212.35,3538.14 v 0 l 148.94,316.63 507.9,879.61 50.66,-29.39 -507.74,-879.56 z"
         style="fill:none;stroke:#d3d2d2;stroke-width:2.93181;stroke-linecap:butt;stroke-linejoin:miter;stroke-miterlimit:4;stroke-dasharray:none;stroke-opacity:1"
         id="path3016" /><path
         d="m 2212.35,3537.78 v 0 l 195.43,278.51 634.88,756.6 44.89,-37.71 -634.95,-756.56 -240.25,-240.84 v 0"
         style="fill:#4f4c4c;fill-opacity:1;fill-rule:nonzero;stroke:none"
         id="path3018" /><path
         d="m 2212.35,3537.78 v 0 l 195.43,278.51 634.88,756.6 44.89,-37.71 -634.95,-756.56 z"
         style="fill:none;stroke:#4f4c4c;stroke-width:2.93181;stroke-linecap:butt;stroke-linejoin:miter;stroke-miterlimit:4;stroke-dasharray:none;stroke-opacity:1"
         id="path3020" /><path
         d="m 2212.28,3537.78 v 0 l 240.87,240.4 756.56,634.83 37.67,-44.93 -756.63,-634.87 -278.47,-195.43 v 0"
         style="fill:#a7a5a6;fill-opacity:1;fill-rule:nonzero;stroke:none"
         id="path3022" /><path
         d="m 2212.28,3537.78 v 0 l 240.87,240.4 756.56,634.83 37.67,-44.93 -756.63,-634.87 z"
         style="fill:none;stroke:#a7a5a6;stroke-width:2.93181;stroke-linecap:butt;stroke-linejoin:miter;stroke-miterlimit:4;stroke-dasharray:none;stroke-opacity:1"
         id="path3024" /><path
         d="m 2212.35,3538.14 v 0 l 287.62,199.84 880.4,508.46 29.34,-50.86 -880.48,-508.38 -316.88,-149.06 v 0"
         style="fill:#a7a5a6;fill-opacity:1;fill-rule:nonzero;stroke:none"
         id="path3026" /><path
         d="m 2212.35,3538.14 v 0 l 287.62,199.84 880.4,508.46 29.34,-50.86 -880.48,-508.38 z"
         style="fill:none;stroke:#a7a5a6;stroke-width:2.93181;stroke-linecap:butt;stroke-linejoin:miter;stroke-miterlimit:4;stroke-dasharray:none;stroke-opacity:1"
         id="path3028" /><path
         d="m 2212.91,3538.38 -0.56,0.16 325.78,149.69 978.2,356.16 19.96,-55.19 -978.2,-356.03 -345.74,-94.63 0.56,-0.16"
         style="fill:#7b7979;fill-opacity:1;fill-rule:nonzero;stroke:none"
         id="path3030" /><path
         d="m 2212.91,3538.38 -0.56,0.16 325.78,149.69 978.2,356.16 19.96,-55.19 -978.2,-356.03 -345.74,-94.63 z"
         style="fill:none;stroke:#7b7979;stroke-width:3.51814;stroke-linecap:butt;stroke-linejoin:miter;stroke-miterlimit:4;stroke-dasharray:none;stroke-opacity:1"
         id="path3032" /><path
         d="m 2212.35,3537.7 v 0 l 332.44,88.38 983.32,173.38 10.02,-57.75 -983.25,-173.35 -342.53,-30.66 v 0"
         style="fill:#4f4c4c;fill-opacity:1;fill-rule:nonzero;stroke:none"
         id="path3034" /><path
         d="m 2212.35,3537.7 v 0 l 332.44,88.38 983.32,173.38 10.02,-57.75 -983.25,-173.35 z"
         style="fill:none;stroke:#4f4c4c;stroke-width:3.22494;stroke-linecap:butt;stroke-linejoin:miter;stroke-miterlimit:4;stroke-dasharray:none;stroke-opacity:1"
         id="path3036" /><path
         d="m 2211.95,3537.9 -0.4,0.16 338.92,29.34 987.66,0.07 v -58.67 h -987.66 l -338.92,29.26 0.4,-0.16"
         style="fill:#d3d2d2;fill-opacity:1;fill-rule:nonzero;stroke:none"
         id="path3038" /><path
         d="m 2211.95,3537.9 -0.4,0.16 338.92,29.34 987.66,0.07 v -58.67 h -987.66 l -338.92,29.26 z"
         style="fill:none;stroke:#d3d2d2;stroke-width:1.46587;stroke-linecap:butt;stroke-linejoin:miter;stroke-miterlimit:4;stroke-dasharray:none;stroke-opacity:1"
         id="path3040" /><path
         d="m 2212.28,3537.9 -0.73,-0.05 341.81,-30.53 981.08,-172.95 -10.34,-57.76 -980.93,172.99 -331.62,88.25 0.73,0.05"
         style="fill:#7b7979;fill-opacity:1;fill-rule:nonzero;stroke:none"
         id="path3042" /><path
         d="m 2212.28,3537.9 -0.73,-0.05 341.81,-30.53 981.08,-172.95 -10.34,-57.76 -980.93,172.99 -331.62,88.25 z"
         style="fill:none;stroke:#7b7979;stroke-width:2.93181;stroke-linecap:butt;stroke-linejoin:miter;stroke-miterlimit:4;stroke-dasharray:none;stroke-opacity:1"
         id="path3044" /><path
         d="m 2212.28,3537.9 v 0 l 346.21,-94.83 979.32,-356.32 -20.11,-55.18 -979.33,356.51 -326.09,149.82 v 0"
         style="fill:#4f4c4c;fill-opacity:1;fill-rule:nonzero;stroke:none"
         id="path3046" /><path
         d="m 2212.28,3537.9 v 0 l 346.21,-94.83 979.32,-356.32 -20.11,-55.18 -979.33,356.51 z"
         style="fill:none;stroke:#4f4c4c;stroke-width:2.93181;stroke-linecap:butt;stroke-linejoin:miter;stroke-miterlimit:4;stroke-dasharray:none;stroke-opacity:1"
         id="path3048" /><path
         d="m 2212.35,3538.14 v 0 l 316.23,-148.82 878.97,-507.3 -29.42,-50.74 -878.88,507.34 -286.9,199.52 v 0"
         style="fill:#4f4c4c;fill-opacity:1;fill-rule:nonzero;stroke:none"
         id="path3050" /><path
         d="m 2212.35,3538.14 v 0 l 316.23,-148.82 878.97,-507.3 -29.42,-50.74 -878.88,507.34 z"
         style="fill:none;stroke:#4f4c4c;stroke-width:2.93181;stroke-linecap:butt;stroke-linejoin:miter;stroke-miterlimit:4;stroke-dasharray:none;stroke-opacity:1"
         id="path3052" /><path
         d="m 2212.35,3538.14 v 0 l 278.56,-195.43 756.56,-634.88 -37.76,-44.81 -756.56,634.8 -240.8,240.32 v 0"
         style="fill:#a7a5a6;fill-opacity:1;fill-rule:nonzero;stroke:none"
         id="path3054" /><path
         d="m 2212.35,3538.14 v 0 l 278.56,-195.43 756.56,-634.88 -37.76,-44.81 -756.56,634.8 z"
         style="fill:none;stroke:#a7a5a6;stroke-width:2.93181;stroke-linecap:butt;stroke-linejoin:miter;stroke-miterlimit:4;stroke-dasharray:none;stroke-opacity:1"
         id="path3056" /><path
         d="m 2212.35,3538.14 v 0 l 240.25,-240.88 635.03,-756.56 -45.05,-37.59 -634.8,756.59 -195.43,278.44 v 0"
         style="fill:#d3d2d2;fill-opacity:1;fill-rule:nonzero;stroke:none"
         id="path3058" /><path
         d="m 2212.35,3538.14 v 0 l 240.25,-240.88 635.03,-756.56 -45.05,-37.59 -634.8,756.59 z"
         style="fill:none;stroke:#d3d2d2;stroke-width:2.93181;stroke-linecap:butt;stroke-linejoin:miter;stroke-miterlimit:4;stroke-dasharray:none;stroke-opacity:1"
         id="path3060" /><path
         d="m 2212.35,3538.14 v 0 l 198.88,-286.02 505.98,-876.15 -50.82,-29.26 -505.82,876.11 -148.22,315.32 v 0"
         style="fill:#a7a5a6;fill-opacity:1;fill-rule:nonzero;stroke:none"
         id="path3062" /><path
         d="m 2212.35,3538.14 v 0 l 198.88,-286.02 505.98,-876.15 -50.82,-29.26 -505.82,876.11 z"
         style="fill:none;stroke:#a7a5a6;stroke-width:3.22494;stroke-linecap:butt;stroke-linejoin:miter;stroke-miterlimit:4;stroke-dasharray:none;stroke-opacity:1"
         id="path3064" /><path
         d="m 2212.28,3538.14 v 0 l 149.89,-326.06 356.39,-979.12 -55.14,-19.88 -356.4,979.04 -94.74,346.02 v 0"
         style="fill:#a7a5a6;fill-opacity:1;fill-rule:nonzero;stroke:none"
         id="path3066" /><path
         d="m 2212.28,3538.14 v 0 l 149.89,-326.06 356.39,-979.12 -55.14,-19.88 -356.4,979.04 z"
         style="fill:none;stroke:#a7a5a6;stroke-width:3.22494;stroke-linecap:butt;stroke-linejoin:miter;stroke-miterlimit:4;stroke-dasharray:none;stroke-opacity:1"
         id="path3068" /><path
         d="m 2212.28,3538.14 v 0 l 88.33,-332.51 173.63,-983.73 -57.96,-10.1 -173.39,983.65 -30.61,342.69 v 0"
         style="fill:#7b7979;fill-opacity:1;fill-rule:nonzero;stroke:none"
         id="path3070" /><path
         d="m 2212.28,3538.14 v 0 l 88.33,-332.51 173.63,-983.73 -57.96,-10.1 -173.39,983.65 z"
         style="fill:none;stroke:#7b7979;stroke-width:2.93181;stroke-linecap:butt;stroke-linejoin:miter;stroke-miterlimit:4;stroke-dasharray:none;stroke-opacity:1"
         id="path3072" /><path
         d="m 2212.28,3537.85 v 0 l 29.33,-338.99 0.08,-987.71 -58.76,0.17 v 987.62 l 29.35,338.91 v 0"
         style="fill:#4f4c4c;fill-opacity:1;fill-rule:nonzero;stroke:none"
         id="path3074" /><path
         d="m 2212.28,3537.85 v 0 l 29.33,-338.99 0.08,-987.71 -58.76,0.17 v 987.62 z"
         style="fill:none;stroke:#4f4c4c;stroke-width:2.93181;stroke-linecap:butt;stroke-linejoin:miter;stroke-miterlimit:4;stroke-dasharray:none;stroke-opacity:1"
         id="path3076" /><path
         d="m 2212.28,3537.78 v 0 l -30.71,-342.61 -173.31,-983.21 -57.79,10.26 173.39,983.21 88.42,332.35 v 0"
         style="fill:#d3d2d2;fill-opacity:1;fill-rule:nonzero;stroke:none"
         id="path3078" /><path
         d="m 2212.28,3537.78 v 0 l -30.71,-342.61 -173.31,-983.21 -57.79,10.26 173.39,983.21 z"
         style="fill:none;stroke:#d3d2d2;stroke-width:2.93181;stroke-linecap:butt;stroke-linejoin:miter;stroke-miterlimit:4;stroke-dasharray:none;stroke-opacity:1"
         id="path3080" /><path
         d="m 2212.35,3537.3 v 0 l -94.51,-345.3 -355.51,-977 -55.15,20.21 355.52,976.95 149.65,325.14 v 0"
         style="fill:#7b7979;fill-opacity:1;fill-rule:nonzero;stroke:none"
         id="path3082" /><path
         d="m 2212.35,3537.3 v 0 l -94.51,-345.3 -355.51,-977 -55.15,20.21 355.52,976.95 z"
         style="fill:none;stroke:#7b7979;stroke-width:2.93181;stroke-linecap:butt;stroke-linejoin:miter;stroke-miterlimit:4;stroke-dasharray:none;stroke-opacity:1"
         id="path3084" /><path
         d="m 2212.35,3537.3 v 0 l -148.85,-316.56 -507.9,-879.72 -50.75,29.5 507.83,879.6 199.67,287.18 v 0"
         style="fill:#4f4c4c;fill-opacity:1;fill-rule:nonzero;stroke:none"
         id="path3086" /><path
         d="m 2212.35,3537.3 v 0 l -148.85,-316.56 -507.9,-879.72 -50.75,29.5 507.83,879.6 z"
         style="fill:none;stroke:#4f4c4c;stroke-width:2.93181;stroke-linecap:butt;stroke-linejoin:miter;stroke-miterlimit:4;stroke-dasharray:none;stroke-opacity:1"
         id="path3088" /><path
         d="m 2212.35,3537.78 v 0 l -195.51,-278.52 -634.71,-756.64 -44.97,37.88 634.95,756.51 240.24,240.77 v 0"
         style="fill:#a7a5a6;fill-opacity:1;fill-rule:nonzero;stroke:none"
         id="path3090" /><path
         d="m 2212.35,3537.78 v 0 l -195.51,-278.52 -634.71,-756.64 -44.97,37.88 634.95,756.51 z"
         style="fill:none;stroke:#a7a5a6;stroke-width:2.93181;stroke-linecap:butt;stroke-linejoin:miter;stroke-miterlimit:4;stroke-dasharray:none;stroke-opacity:1"
         id="path3092" /><path
         d="m 2212.35,3537.3 v 0 l -240.89,-240.29 -756.55,-635.03 -37.59,45.13 756.56,634.84 278.47,195.35 v 0"
         style="fill:#d3d2d2;fill-opacity:1;fill-rule:nonzero;stroke:none"
         id="path3094" /><path
         d="m 2212.35,3537.3 v 0 l -240.89,-240.29 -756.55,-635.03 -37.59,45.13 756.56,634.84 z"
         style="fill:none;stroke:#d3d2d2;stroke-width:2.93181;stroke-linecap:butt;stroke-linejoin:miter;stroke-miterlimit:4;stroke-dasharray:none;stroke-opacity:1"
         id="path3096" /><path
         d="m 2212.35,3538.14 v 0 l -286.97,-199.52 -878.41,-507.34 -29.26,50.98 878.49,507.22 316.15,148.66 v 0"
         style="fill:#d3d2d2;fill-opacity:1;fill-rule:nonzero;stroke:none"
         id="path3098" /><path
         d="m 2212.35,3538.14 v 0 l -286.97,-199.52 -878.41,-507.34 -29.26,50.98 878.49,507.22 z"
         style="fill:none;stroke:#d3d2d2;stroke-width:2.93181;stroke-linecap:butt;stroke-linejoin:miter;stroke-miterlimit:4;stroke-dasharray:none;stroke-opacity:1"
         id="path3100" /><path
         d="m 2212.35,3538.14 v 0 l -325.92,-149.74 -978.45,-356.28 -19.96,55.24 978.52,356.15 345.81,94.63 v 0"
         style="fill:#4f4c4c;fill-opacity:1;fill-rule:nonzero;stroke:none"
         id="path3102" /><path
         d="m 2212.35,3538.14 v 0 l -325.92,-149.74 -978.45,-356.28 -19.96,55.24 978.52,356.15 z"
         style="fill:none;stroke:#4f4c4c;stroke-width:2.93181;stroke-linecap:butt;stroke-linejoin:miter;stroke-miterlimit:4;stroke-dasharray:none;stroke-opacity:1"
         id="path3104" /><path
         d="m 2212.35,3538.22 v 0 l -332.58,-88.3 -983.813,-173.63 -9.941,57.92 983.654,173.47 342.68,30.54 v 0"
         style="fill:#a7a5a6;fill-opacity:1;fill-rule:nonzero;stroke:none"
         id="path3106" /><path
         d="m 2212.35,3538.22 v 0 l -332.58,-88.3 -983.813,-173.63 -9.941,57.92 983.654,173.47 z"
         style="fill:none;stroke:#a7a5a6;stroke-width:2.93181;stroke-linecap:butt;stroke-linejoin:miter;stroke-miterlimit:4;stroke-dasharray:none;stroke-opacity:1"
         id="path3108" /><path
         d="m 2204.41,3538.46 7.94,-0.61 -338.99,-29.25 -987.669,-0.16 0.079,58.8 h 987.59 l 338.99,-29.39 -7.94,0.61"
         style="fill:#7b7979;fill-opacity:1;fill-rule:nonzero;stroke:none"
         id="path3110" /><path
         d="m 2204.41,3538.46 7.94,-0.61 -338.99,-29.25 -987.669,-0.16 0.079,58.8 h 987.59 l 338.99,-29.39 z"
         style="fill:none;stroke:#7b7979;stroke-width:2.93181;stroke-linecap:butt;stroke-linejoin:miter;stroke-miterlimit:4;stroke-dasharray:none;stroke-opacity:1"
         id="path3112" /><path
         d="m 2212.35,3537.3 v 0 l -336.43,30.38 -989.26,174.27 10.418,57.87 989.012,-174.43 326.26,-88.09 v 0"
         style="fill:#d3d2d2;fill-opacity:1;fill-rule:nonzero;stroke:none"
         id="path3114" /><path
         d="m 2212.35,3537.3 v 0 l -336.43,30.38 -989.26,174.27 10.418,57.87 989.012,-174.43 z"
         style="fill:none;stroke:#d3d2d2;stroke-width:2.93181;stroke-linecap:butt;stroke-linejoin:miter;stroke-miterlimit:4;stroke-dasharray:none;stroke-opacity:1"
         id="path3116" /><path
         d="m 2212.35,3538.3 v 0 l -346.05,94.75 -979.081,356.15 20.359,55.19 978.852,-356.23 325.92,-149.86 v 0"
         style="fill:#a7a5a6;fill-opacity:1;fill-rule:nonzero;stroke:none"
         id="path3118" /><path
         d="m 2212.35,3538.3 v 0 l -346.05,94.75 -979.081,356.15 20.359,55.19 978.852,-356.23 z"
         style="fill:none;stroke:#a7a5a6;stroke-width:2.93181;stroke-linecap:butt;stroke-linejoin:miter;stroke-miterlimit:4;stroke-dasharray:none;stroke-opacity:1"
         id="path3120" /><path
         d="m 2212.35,3537.78 v 0 l -317.67,149.62 -883.06,509.66 29.59,50.82 882.8,-509.7 288.34,-200.4 v 0"
         style="fill:#d3d2d2;fill-opacity:1;fill-rule:nonzero;stroke:none"
         id="path3122" /><path
         d="m 2212.35,3537.78 v 0 l -317.67,149.62 -883.06,509.66 29.59,50.82 882.8,-509.7 z"
         style="fill:none;stroke:#d3d2d2;stroke-width:2.93181;stroke-linecap:butt;stroke-linejoin:miter;stroke-miterlimit:4;stroke-dasharray:none;stroke-opacity:1"
         id="path3124" /><path
         d="m 2211.95,3537.3 v 0 l -278.47,195.51 -756.8,634.79 37.99,44.89 756.48,-634.79 240.8,-240.4 v 0"
         style="fill:#7b7979;fill-opacity:1;fill-rule:nonzero;stroke:none"
         id="path3126" /><path
         d="m 2211.95,3537.3 v 0 l -278.47,195.51 -756.8,634.79 37.99,44.89 756.48,-634.79 z"
         style="fill:none;stroke:#7b7979;stroke-width:2.93181;stroke-linecap:butt;stroke-linejoin:miter;stroke-miterlimit:4;stroke-dasharray:none;stroke-opacity:1"
         id="path3128" /><path
         d="m 2212.28,3537.78 v 0 l -240.33,240.84 -635.11,756.56 45.29,37.63 634.79,-756.56 195.36,-278.47 v 0"
         style="fill:#d3d2d2;fill-opacity:1;fill-rule:nonzero;stroke:none"
         id="path3130" /><path
         d="m 2212.28,3537.78 v 0 l -240.33,240.84 -635.11,756.56 45.29,37.63 634.79,-756.56 z"
         style="fill:none;stroke:#d3d2d2;stroke-width:2.93181;stroke-linecap:butt;stroke-linejoin:miter;stroke-miterlimit:4;stroke-dasharray:none;stroke-opacity:1"
         id="path3132" /><path
         d="m 2212.35,3537.78 v 0 l -200,287.9 -509.18,881.36 51.07,29.3 508.86,-881.44 149.25,-317.12 v 0"
         style="fill:#7b7979;fill-opacity:1;fill-rule:nonzero;stroke:none"
         id="path3134" /><path
         d="m 2212.35,3537.78 v 0 l -200,287.9 -509.18,881.36 51.07,29.3 508.86,-881.44 z"
         style="fill:none;stroke:#7b7979;stroke-width:3.22494;stroke-linecap:butt;stroke-linejoin:miter;stroke-miterlimit:4;stroke-dasharray:none;stroke-opacity:1"
         id="path3136" /><path
         d="m 2212.28,3538.22 v 0 l -149.58,325.57 -356.08,977.6 55.39,19.96 355.75,-977.6 94.52,-345.53 v 0"
         style="fill:#d3d2d2;fill-opacity:1;fill-rule:nonzero;stroke:none"
         id="path3138" /><path
         d="m 2212.28,3538.22 v 0 l -149.58,325.57 -356.08,977.6 55.39,19.96 355.75,-977.6 z"
         style="fill:none;stroke:#d3d2d2;stroke-width:3.51814;stroke-linecap:butt;stroke-linejoin:miter;stroke-miterlimit:4;stroke-dasharray:none;stroke-opacity:1"
         id="path3140" /><path
         d="m 2212.28,3537.7 v 0 l -88.34,332.5 -173.72,983.78 58.04,10.06 173.39,-983.73 30.63,-342.61 v 0"
         style="fill:#4f4c4c;fill-opacity:1;fill-rule:nonzero;stroke:none"
         id="path3142" /><path
         d="m 2212.28,3537.7 v 0 l -88.34,332.5 -173.72,983.78 58.04,10.06 173.39,-983.73 z"
         style="fill:none;stroke:#4f4c4c;stroke-width:0.73301;stroke-linecap:butt;stroke-linejoin:miter;stroke-miterlimit:4;stroke-dasharray:none;stroke-opacity:1"
         id="path3144" /><path
         d="m 3452.36,1545.87 h 475.51 v -150.05 h -317 v -210.35 h 302.84 v -148.62 h -302.84 v -268.1 h 317 V 618.711 h -475.51 v 927.159"
         style="fill:#231f20;fill-opacity:1;fill-rule:nonzero;stroke:none"
         id="path3146" /><path
         d="m 1541.06,767.75 h 283.77 V 619.109 h -442.28 v 926.351 h 158.51 V 767.75"
         style="fill:#231f20;fill-opacity:1;fill-rule:nonzero;stroke:none"
         id="path3148" /><path
         d="M 2130.85,1395.82 H 1995.3 v 149.64 H 2427 V 1395.82 H 2289.4 V 767.73 H 2427 V 619.109 H 1995.3 V 767.73 h 135.55 v 628.09"
         style="fill:#231f20;fill-opacity:1;fill-rule:nonzero;stroke:none"
         id="path3150" /><path
         d="m 994.707,1228.36 c 0,136.23 -86.379,201.59 -173.484,201.59 -87.129,0 -173.469,-65.36 -173.469,-201.59 v -119.5 H 994.707 Z M 647.754,619.121 H 489.258 v 609.239 c 0,229.38 157.722,339.76 331.965,339.76 175.664,0 333.407,-110.38 333.407,-339.76 V 619.121 H 994.707 V 960.23 H 647.754 V 619.121"
         style="fill:#231f20;fill-opacity:1;fill-rule:nonzero;stroke:none"
         id="path3152" /><path
         d="m 3112.48,901.27 c -14.42,-108.301 -75.22,-147.079 -169.5,-147.079 -146.29,0 -202.52,120.508 -202.52,329.519 0,209.03 56.23,328.1 202.52,328.1 104.27,0 152.93,-45.57 164.16,-146.66 l 150.48,25.17 c -23.06,169.22 -145.19,271.59 -303.41,271.59 -255.55,0 -374.49,-224.92 -374.49,-485.29 0,-262.14 102.87,-472.55 361.64,-472.55 162.97,0 289.68,102.039 320.19,272.25 l -149.07,24.95"
         style="fill:#231f20;fill-opacity:1;fill-rule:nonzero;stroke:none"
         id="path3154" /></g></g></svg>
